<svg width="56" height="56" viewBox="0 0 56 56" fill="none" xmlns="http://www.w3.org/2000/svg">
<g clip-path="url(#clip0)">
<path d="M8.38171 50.4001H11.1819V53.1998C11.1819 54.7465 12.4354 56 13.9821 56H47.582C49.1282 56 50.3817 54.7465 50.3817 53.1998V8.40009C50.3817 6.85345 49.1282 5.59991 47.582 5.59991H44.7818V2.80017C44.7818 1.25354 43.5283 0 41.9821 0H15.8487C15.829 0 15.8111 0.0102539 15.7914 0.0111083C15.7086 0.0166626 15.6265 0.0328979 15.5479 0.0598145C15.5189 0.0700684 15.4911 0.0773315 15.4629 0.0905762C15.3608 0.135437 15.2676 0.198669 15.1886 0.277283L5.85541 9.61047C5.77722 9.68994 5.71399 9.78265 5.6687 9.88391C5.65546 9.91296 5.64819 9.94202 5.63794 9.97192C5.61102 10.0493 5.59479 10.13 5.59009 10.2116C5.59009 10.2321 5.57812 10.2501 5.57812 10.2706V47.5999C5.57812 48.3433 5.87378 49.056 6.39972 49.5811C6.92566 50.1066 7.63873 50.4009 8.38171 50.4001V50.4001ZM47.582 7.46655C48.0972 7.46655 48.5151 7.8844 48.5151 8.40009V53.1998C48.5151 53.7155 48.0972 54.1334 47.582 54.1334H13.9821C13.4664 54.1334 13.0485 53.7155 13.0485 53.1998V50.4001H41.9821C43.5283 50.4001 44.7818 49.1465 44.7818 47.5999V7.46655H47.582ZM42.9152 2.80017V47.5999C42.9152 48.1156 42.4973 48.5334 41.9821 48.5334H8.38171C7.86646 48.5334 7.44861 48.1156 7.44861 47.5999V11.1998H13.9821C15.5283 11.1998 16.7818 9.94629 16.7818 8.40009V1.86664H41.9821C42.4973 1.86664 42.9152 2.28448 42.9152 2.80017ZM14.9152 3.1864V8.40009C14.9152 8.91534 14.4973 9.33319 13.9821 9.33319H8.76837L14.9152 3.1864Z" fill="#DDE1E6"/>
<path fill-rule="evenodd" clip-rule="evenodd" d="M12.1147 15.8667C11.5995 15.8667 11.1816 16.2845 11.1816 16.8002C11.1816 17.3155 11.5995 17.7333 12.1147 17.7333H38.2481C38.7638 17.7333 39.1816 17.3155 39.1816 16.8002C39.1816 16.2845 38.7638 15.8667 38.2481 15.8667H12.1147Z" fill="#DDE1E6"/>
<path fill-rule="evenodd" clip-rule="evenodd" d="M38.2481 34.5334H12.1147C11.5995 34.5334 11.1816 34.9513 11.1816 35.4666C11.1816 35.9822 11.5995 36.4001 12.1147 36.4001H38.2481C38.7638 36.4001 39.1816 35.9822 39.1816 35.4666C39.1816 34.9513 38.7638 34.5334 38.2481 34.5334V34.5334Z" fill="#DDE1E6"/>
<path fill-rule="evenodd" clip-rule="evenodd" d="M38.2484 20.5334H33.582C33.0663 20.5334 32.6484 20.9513 32.6484 21.4666C32.6484 21.9822 33.0663 22.4001 33.582 22.4001H38.2484C38.764 22.4001 39.1819 21.9822 39.1819 21.4666C39.1819 20.9513 38.764 20.5334 38.2484 20.5334V20.5334Z" fill="#DDE1E6"/>
<path fill-rule="evenodd" clip-rule="evenodd" d="M29.8484 21.4666C29.8484 20.9513 29.4306 20.5334 28.9149 20.5334H12.1147C11.5995 20.5334 11.1816 20.9513 11.1816 21.4666C11.1816 21.9822 11.5995 22.4001 12.1147 22.4001H28.9149C29.4306 22.4001 29.8484 21.9822 29.8484 21.4666Z" fill="#DDE1E6"/>
<path fill-rule="evenodd" clip-rule="evenodd" d="M23.3149 39.2H22.3813C21.8661 39.2 21.4482 39.6178 21.4482 40.1335C21.4482 40.6487 21.8661 41.0666 22.3813 41.0666H23.3149C23.8301 41.0666 24.248 40.6487 24.248 40.1335C24.248 39.6178 23.8301 39.2 23.3149 39.2V39.2Z" fill="#DDE1E6"/>
<path fill-rule="evenodd" clip-rule="evenodd" d="M17.7151 39.2H12.1147C11.5995 39.2 11.1816 39.6178 11.1816 40.1335C11.1816 40.6487 11.5995 41.0666 12.1147 41.0666H17.7151C18.2303 41.0666 18.6482 40.6487 18.6482 40.1335C18.6482 39.6178 18.2303 39.2 17.7151 39.2V39.2Z" fill="#DDE1E6"/>
<path fill-rule="evenodd" clip-rule="evenodd" d="M12.1147 27.0666H16.7816C17.2972 27.0666 17.7151 26.6487 17.7151 26.1335C17.7151 25.6178 17.2972 25.2 16.7816 25.2H12.1147C11.5995 25.2 11.1816 25.6178 11.1816 26.1335C11.1816 26.6487 11.5995 27.0666 12.1147 27.0666Z" fill="#DDE1E6"/>
<path fill-rule="evenodd" clip-rule="evenodd" d="M38.2479 25.2H21.4482C20.9325 25.2 20.5146 25.6178 20.5146 26.1335C20.5146 26.6487 20.9325 27.0666 21.4482 27.0666H38.2479C38.7636 27.0666 39.1815 26.6487 39.1815 26.1335C39.1815 25.6178 38.7636 25.2 38.2479 25.2V25.2Z" fill="#DDE1E6"/>
<path fill-rule="evenodd" clip-rule="evenodd" d="M12.1147 31.7333H14.9149C15.4306 31.7333 15.8484 31.3155 15.8484 30.8002C15.8484 30.2845 15.4306 29.8667 14.9149 29.8667H12.1147C11.5995 29.8667 11.1816 30.2845 11.1816 30.8002C11.1816 31.3155 11.5995 31.7333 12.1147 31.7333V31.7333Z" fill="#DDE1E6"/>
<path fill-rule="evenodd" clip-rule="evenodd" d="M19.582 31.7333H30.7818C31.2975 31.7333 31.7153 31.3155 31.7153 30.8002C31.7153 30.2845 31.2975 29.8667 30.7818 29.8667H19.582C19.0663 29.8667 18.6484 30.2845 18.6484 30.8002C18.6484 31.3155 19.0663 31.7333 19.582 31.7333V31.7333Z" fill="#DDE1E6"/>
<path fill-rule="evenodd" clip-rule="evenodd" d="M38.2479 29.8667H35.4482C34.9325 29.8667 34.5146 30.2845 34.5146 30.8002C34.5146 31.3155 34.9325 31.7333 35.4482 31.7333H38.2479C38.7636 31.7333 39.1815 31.3155 39.1815 30.8002C39.1815 30.2845 38.7636 29.8667 38.2479 29.8667V29.8667Z" fill="#DDE1E6"/>
</g>
<defs>
<clipPath id="clip0">
<rect width="56" height="56" fill="white"/>
</clipPath>
</defs>
</svg>
