<svg width="435" height="255" viewBox="0 0 435 255" fill="none" xmlns="http://www.w3.org/2000/svg">
<path fill-rule="evenodd" clip-rule="evenodd" d="M285.548 59.388C283.551 61.5703 281.121 63.3119 278.413 64.5012C275.705 65.6906 272.779 66.3015 269.821 66.295C263.943 66.3746 258.265 64.1644 253.988 60.1319C251.888 57.9456 250.28 55.335 249.271 52.4758C248.263 49.6167 247.879 46.575 248.143 43.5549V22.3024C247.827 16.7732 249.568 11.3226 253.031 7.00081C257.157 2.68092 262.824 0.167296 268.796 0.00805246C274.767 -0.151191 280.56 2.05684 284.91 6.15069C286.954 8.28804 288.53 10.8285 289.537 13.6098C290.543 16.391 290.958 19.3517 290.754 22.3024V43.5549C291.072 49.1019 289.289 54.5651 285.76 58.8567L285.548 59.388ZM261.957 51.3121C262.92 52.3229 264.073 53.134 265.349 53.6992C266.625 54.2644 268 54.5726 269.396 54.6063C270.868 54.6368 272.329 54.3377 273.671 53.731C275.013 53.1243 276.203 52.2252 277.153 51.0996C278.857 48.6893 279.648 45.7513 279.384 42.8111V21.5587C279.488 20.1907 279.305 18.8163 278.848 17.5228C278.392 16.2292 277.67 15.045 276.731 14.0454C275.791 13.0459 274.654 12.2528 273.391 11.7169C272.128 11.181 270.767 10.9138 269.396 10.9325C267.967 10.9794 266.562 11.3141 265.266 11.9167C263.97 12.5192 262.808 13.3772 261.851 14.4391C260.288 16.711 259.539 19.4448 259.726 22.1962V43.1299C259.422 46.1731 260.214 49.2247 261.957 51.7371V51.3121ZM207.982 12.419V1.58031H227.321V64.9125H215.951V12.419H207.982ZM403.499 1.58031V12.419H411.469V64.9125H422.839V1.58031H403.499ZM383.306 59.388C381.31 61.5703 378.88 63.3119 376.171 64.5012C373.463 65.6906 370.537 66.3015 367.579 66.295C361.701 66.3746 356.023 64.1644 351.746 60.1319C349.646 57.9456 348.038 55.335 347.03 52.4758C346.022 49.6167 345.637 46.575 345.902 43.5549V22.3024C345.585 16.7732 347.327 11.3226 350.79 7.00081C354.916 2.68092 360.582 0.167296 366.554 0.00805246C372.526 -0.151191 378.318 2.05684 382.668 6.15069C384.713 8.28804 386.289 10.8285 387.295 13.6098C388.302 16.391 388.716 19.3517 388.513 22.3024V43.5549C388.831 49.1019 387.047 54.5651 383.518 58.8567L383.306 59.388ZM359.716 51.3121C360.678 52.3229 361.831 53.134 363.107 53.6992C364.384 54.2644 365.759 54.5726 367.154 54.6063C368.627 54.6368 370.088 54.3377 371.43 53.731C372.772 53.1243 373.961 52.2252 374.911 51.0996C376.616 48.6893 377.406 45.7513 377.143 42.8111V21.5587C377.246 20.1907 377.064 18.8163 376.607 17.5228C376.15 16.2292 375.429 15.045 374.489 14.0454C373.549 13.0459 372.412 12.2528 371.149 11.7169C369.886 11.181 368.526 10.9138 367.154 10.9325C365.725 10.9794 364.321 11.3141 363.024 11.9167C361.728 12.5192 360.567 13.3772 359.609 14.4391C358.046 16.711 357.297 19.4448 357.484 22.1962V43.1299C357.181 46.1731 357.972 49.2247 359.716 51.7371V51.3121ZM305.741 1.58031V12.419H313.71V64.9125H325.081V1.58031H305.741ZM331.669 153.642C329.672 155.824 327.242 157.566 324.534 158.755C321.826 159.944 318.899 160.555 315.942 160.549C310.064 160.628 304.386 158.418 300.109 154.386C298.009 152.199 296.4 149.589 295.392 146.73C294.384 143.871 294 140.829 294.264 137.809V116.556C293.948 111.027 295.689 105.576 299.152 101.255C301.188 99.1029 303.628 97.3739 306.333 96.1665C309.038 94.9591 311.954 94.297 314.915 94.218C317.876 94.139 320.824 94.6448 323.589 95.7063C326.355 96.7678 328.883 98.3644 331.031 100.404C333.075 102.542 334.651 105.082 335.658 107.864C336.664 110.645 337.079 113.606 336.875 116.556V137.809C337.193 143.356 335.41 148.819 331.881 153.111L331.669 153.642ZM308.078 145.566C309.032 146.596 310.181 147.427 311.457 148.01C312.734 148.594 314.114 148.919 315.517 148.966C316.989 148.997 318.45 148.698 319.792 148.091C321.134 147.484 322.324 146.585 323.274 145.46C324.978 143.049 325.769 140.111 325.505 137.171V115.919C325.609 114.551 325.426 113.176 324.969 111.883C324.512 110.589 323.791 109.405 322.852 108.405C321.912 107.406 320.775 106.613 319.512 106.077C318.249 105.541 316.888 105.274 315.517 105.293C314.088 105.34 312.683 105.674 311.387 106.277C310.091 106.879 308.929 107.737 307.972 108.799C306.401 111.067 305.651 113.804 305.847 116.556V137.065C305.534 140.109 306.326 143.164 308.078 145.672V145.566ZM226.249 158.755C228.957 157.566 231.387 155.824 233.384 153.642C237.119 149.246 238.988 143.564 238.591 137.809V116.556C238.794 113.606 238.379 110.645 237.373 107.864C236.366 105.082 234.791 102.542 232.746 100.404C230.599 98.3644 228.07 96.7678 225.304 95.7063C222.539 94.6448 219.592 94.139 216.631 94.218C213.669 94.297 210.753 94.9591 208.048 96.1665C205.343 97.3739 202.903 99.1029 200.868 101.255C197.404 105.576 195.663 111.027 195.979 116.556V137.809C195.715 140.829 196.1 143.871 197.108 146.73C198.116 149.589 199.724 152.199 201.824 154.386C206.101 158.418 211.779 160.628 217.657 160.549C220.615 160.555 223.541 159.944 226.249 158.755ZM212.96 148.542C211.683 147.958 210.535 147.127 209.581 146.097V146.203C207.829 143.695 207.037 140.64 207.35 137.596V117.088C207.154 114.335 207.904 111.599 209.475 109.33C210.432 108.268 211.593 107.411 212.89 106.808C214.186 106.206 215.591 105.871 217.019 105.824C218.391 105.805 219.752 106.072 221.014 106.608C222.277 107.144 223.415 107.937 224.354 108.937C225.294 109.936 226.015 111.121 226.472 112.414C226.929 113.708 227.111 115.082 227.008 116.45V137.702C227.272 140.643 226.481 143.581 224.777 145.991C223.827 147.116 222.637 148.016 221.295 148.622C219.953 149.229 218.492 149.528 217.019 149.498C215.616 149.45 214.237 149.125 212.96 148.542ZM254.104 106.568V95.8351H273.444V159.167H262.074V106.568H254.104ZM422.372 158.403C425.02 157.307 427.419 155.687 429.424 153.641L429.956 152.578C433.485 148.286 435.268 142.823 434.95 137.276V116.024C435.153 113.073 434.739 110.112 433.732 107.331C432.726 104.55 431.15 102.009 429.106 99.8719C426.958 97.8319 424.429 96.2355 421.664 95.174C418.898 94.1124 415.951 93.6065 412.99 93.6855C410.029 93.7644 407.113 94.4267 404.408 95.6341C401.703 96.8415 399.263 98.5704 397.227 100.722C393.764 105.044 392.022 110.495 392.339 116.024V137.276C392.074 140.296 392.459 143.338 393.467 146.197C394.475 149.056 396.083 151.667 398.183 153.853C402.46 157.886 408.139 160.096 414.016 160.016C416.882 160.047 419.724 159.498 422.372 158.403ZM409.532 147.478C408.255 146.894 407.107 146.063 406.153 145.033V145.14C404.4 142.631 403.608 139.576 403.921 136.532V116.024C403.726 113.271 404.475 110.535 406.047 108.267C407.004 107.205 408.165 106.347 409.461 105.744C410.758 105.142 412.163 104.807 413.591 104.76C414.963 104.741 416.324 105.009 417.586 105.544C418.849 106.08 419.987 106.873 420.926 107.873C421.866 108.872 422.587 110.057 423.044 111.35C423.501 112.644 423.683 114.018 423.58 115.386V136.639C423.844 139.579 423.053 142.517 421.348 144.927C420.399 146.053 419.209 146.952 417.867 147.559C416.525 148.165 415.064 148.464 413.591 148.434C412.188 148.386 410.809 148.061 409.532 147.478ZM351.851 106.568V95.8351H371.191V159.167H359.821V106.568H351.851ZM278.413 252.901C281.121 251.712 283.551 249.97 285.548 247.788L285.76 247.257C289.298 242.97 291.083 237.503 290.754 231.955V210.703C290.958 207.752 290.543 204.791 289.537 202.01C288.53 199.229 286.954 196.688 284.91 194.551C282.762 192.511 280.234 190.914 277.468 189.853C274.703 188.791 271.755 188.285 268.794 188.364C265.833 188.443 262.917 189.105 260.212 190.313C257.507 191.52 255.067 193.249 253.031 195.401C249.568 199.723 247.827 205.173 248.143 210.703V231.955C247.879 234.975 248.263 238.017 249.271 240.876C250.28 243.735 251.888 246.345 253.988 248.532C258.265 252.564 263.943 254.775 269.821 254.695C272.779 254.702 275.705 254.09 278.413 252.901ZM265.349 242.099C264.073 241.534 262.92 240.723 261.957 239.712C260.205 237.204 259.413 234.149 259.726 231.105V210.596C259.539 207.845 260.288 205.111 261.851 202.839C262.808 201.777 263.97 200.919 265.266 200.317C266.562 199.714 267.967 199.379 269.396 199.332C270.767 199.314 272.128 199.581 273.391 200.117C274.654 200.653 275.791 201.446 276.731 202.445C277.67 203.445 278.392 204.629 278.848 205.923C279.305 207.216 279.488 208.591 279.384 209.959V231.211C279.658 234.152 278.866 237.093 277.153 239.5C276.203 240.625 275.013 241.524 273.671 242.131C272.329 242.738 270.868 243.037 269.396 243.006C268 242.973 266.625 242.664 265.349 242.099ZM207.982 200.822V189.983H227.321V253.315H215.951V200.822H207.982ZM403.499 189.983V200.822H411.469V253.315H422.839V189.983H403.499ZM383.306 247.788C381.31 249.97 378.88 251.712 376.171 252.901C373.463 254.09 370.537 254.702 367.579 254.695C361.701 254.775 356.023 252.564 351.746 248.532C349.646 246.345 348.038 243.735 347.03 240.876C346.022 238.017 345.637 234.975 345.902 231.955V210.703C345.585 205.173 347.327 199.723 350.79 195.401C352.826 193.249 355.266 191.52 357.971 190.313C360.675 189.105 363.592 188.443 366.553 188.364C369.514 188.285 372.461 188.791 375.227 189.853C377.992 190.914 380.521 192.511 382.668 194.551C384.713 196.688 386.289 199.229 387.295 202.01C388.302 204.791 388.716 207.752 388.513 210.703V231.955C388.841 237.503 387.057 242.97 383.518 247.257L383.306 247.788ZM359.716 239.712C360.678 240.723 361.831 241.534 363.107 242.099C364.384 242.664 365.759 242.973 367.154 243.006C368.627 243.037 370.088 242.738 371.43 242.131C372.772 241.524 373.961 240.625 374.911 239.5C376.624 237.093 377.416 234.152 377.143 231.211V209.959C377.246 208.591 377.064 207.216 376.607 205.923C376.15 204.629 375.429 203.445 374.489 202.445C373.549 201.446 372.412 200.653 371.149 200.117C369.886 199.581 368.526 199.314 367.154 199.332C365.725 199.379 364.321 199.714 363.024 200.317C361.728 200.919 360.567 201.777 359.609 202.839C358.046 205.111 357.297 207.845 357.484 210.596V231.105C357.171 234.149 357.963 237.204 359.716 239.712ZM305.741 189.983V200.822H313.71V253.315H325.081V189.983H305.741ZM89.6501 59.388C87.6537 61.5703 85.2237 63.3119 82.5156 64.5012C79.8075 65.6906 76.881 66.3015 73.9233 66.295C68.0455 66.3746 62.3674 64.1644 58.0902 60.1319C55.9901 57.9456 54.382 55.335 53.374 52.4759C52.3659 49.6167 51.9813 46.575 52.2458 43.5549V22.3024C51.9294 16.7732 53.6706 11.3226 57.1338 7.00081C61.2599 2.68093 66.9264 0.167301 72.8981 0.00805763C78.8697 -0.151186 84.6621 2.05685 89.0125 6.1507C91.057 8.28805 92.6328 10.8285 93.6392 13.6098C94.6456 16.391 95.0604 19.3517 94.857 22.3024V43.5549C95.1746 49.1019 93.3915 54.5651 89.8626 58.8567L89.6501 59.388ZM66.0599 51.3122C67.0226 52.3229 68.1751 53.134 69.4514 53.6992C70.7277 54.2644 72.1028 54.5726 73.4982 54.6063C74.9708 54.6368 76.4316 54.3377 77.7738 53.731C79.1159 53.1243 80.3055 52.2252 81.2554 51.0996C82.9596 48.6893 83.7506 45.7513 83.4869 42.8111V21.5587C83.5903 20.1907 83.4077 18.8163 82.9509 17.5228C82.494 16.2292 81.7728 15.045 80.8332 14.0455C79.8936 13.0459 78.7562 12.2529 77.4934 11.7169C76.2305 11.181 74.8699 10.9138 73.4982 10.9325C72.0695 10.9794 70.6648 11.3141 69.3684 11.9167C68.0721 12.5192 66.9107 13.3772 65.9536 14.4391C64.3902 16.711 63.6412 19.4448 63.8284 22.1962V43.1299C63.5249 46.1731 64.3161 49.2247 66.0599 51.7371V51.3122ZM12.0832 1.58031V12.419H20.0529V64.9125H31.4229V1.58031H12.0832ZM187.408 59.388C185.411 61.5703 182.981 63.3119 180.273 64.5012C177.565 65.6906 174.639 66.3015 171.681 66.295C165.803 66.3746 160.125 64.1644 155.848 60.1319C153.748 57.9456 152.139 55.335 151.131 52.4759C150.123 49.6167 149.739 46.575 150.003 43.5549V22.3024C149.687 16.7732 151.428 11.3226 154.891 7.00081C159.017 2.68093 164.684 0.167301 170.656 0.00805763C176.627 -0.151186 182.42 2.05685 186.77 6.1507C188.815 8.28805 190.39 10.8285 191.397 13.6098C192.403 16.391 192.818 19.3517 192.614 22.3024V43.5549C192.932 49.1019 191.149 54.5651 187.62 58.8567L187.408 59.388ZM163.817 51.3122C164.78 52.3229 165.933 53.134 167.209 53.6992C168.485 54.2644 169.86 54.5726 171.256 54.6063C172.728 54.6368 174.189 54.3377 175.531 53.731C176.873 53.1243 178.063 52.2252 179.013 51.0996C180.717 48.6893 181.508 45.7513 181.244 42.8111V21.5587C181.348 20.1907 181.165 18.8163 180.708 17.5228C180.251 16.2292 179.53 15.045 178.591 14.0455C177.651 13.0459 176.514 12.2529 175.251 11.7169C173.988 11.181 172.627 10.9138 171.256 10.9325C169.827 10.9794 168.422 11.3141 167.126 11.9167C165.83 12.5192 164.668 13.3772 163.711 14.4391C162.148 16.711 161.399 19.4448 161.586 22.1962V43.1299C161.282 46.1731 162.074 49.2247 163.817 51.7371V51.3122ZM109.842 1.58031V12.419H117.812V64.9125H129.182V1.58031H109.842ZM135.77 153.642C133.774 155.824 131.344 157.566 128.636 158.755C125.928 159.944 123.001 160.555 120.043 160.549C114.166 160.628 108.487 158.418 104.21 154.386C102.11 152.199 100.502 149.589 99.494 146.73C98.486 143.871 98.1014 140.829 98.3659 137.809V116.556C98.0495 111.027 99.7907 105.576 103.254 101.255C105.29 99.1029 107.73 97.3739 110.435 96.1665C113.14 94.9591 116.056 94.297 119.017 94.218C121.978 94.139 124.925 94.6448 127.691 95.7063C130.456 96.7678 132.985 98.3644 135.133 100.404C137.177 102.542 138.753 105.082 139.759 107.864C140.766 110.645 141.18 113.606 140.977 116.556V137.809C141.295 143.356 139.512 148.819 135.983 153.111L135.77 153.642ZM112.18 145.566C113.134 146.596 114.282 147.427 115.559 148.01C116.836 148.594 118.215 148.919 119.618 148.966C121.091 148.997 122.552 148.698 123.894 148.091C125.236 147.484 126.426 146.585 127.375 145.46C129.08 143.049 129.871 140.111 129.607 137.171V115.919C129.71 114.551 129.528 113.176 129.071 111.883C128.614 110.589 127.893 109.405 126.953 108.405C126.014 107.406 124.876 106.613 123.613 106.077C122.351 105.541 120.99 105.274 119.618 105.293C118.19 105.34 116.785 105.674 115.489 106.277C114.192 106.879 113.031 107.737 112.074 108.799C110.502 111.067 109.753 113.804 109.948 116.556V137.065C109.635 140.109 110.427 143.164 112.18 145.672V145.566ZM30.3508 158.755C33.0589 157.566 35.4889 155.824 37.4853 153.642C41.2206 149.246 43.0892 143.564 42.6922 137.809V116.556C42.8956 113.606 42.4808 110.645 41.4745 107.864C40.4681 105.082 38.8923 102.542 36.8478 100.404C34.7002 98.3644 32.1713 96.7678 29.406 95.7063C26.6407 94.6448 23.6932 94.139 20.7321 94.218C17.7711 94.297 14.8547 94.9591 12.1499 96.1665C9.44506 97.3739 7.00495 99.1029 4.96912 101.255C1.50585 105.576 -0.235334 111.027 0.0810703 116.556V137.809C-0.183466 140.829 0.201147 143.871 1.20918 146.73C2.21722 149.589 3.82529 152.199 5.92544 154.386C10.2026 158.418 15.8807 160.628 21.7585 160.549C24.7162 160.555 27.6427 159.944 30.3508 158.755ZM17.0615 148.542C15.7848 147.958 14.6364 147.127 13.6826 146.097V146.203C11.9302 143.695 11.1381 140.64 11.4511 137.596V117.088C11.2554 114.335 12.0052 111.599 13.5763 109.33C14.5334 108.268 15.6948 107.411 16.9912 106.808C18.2875 106.206 19.6922 105.871 21.1209 105.824C22.4927 105.805 23.8533 106.072 25.1161 106.608C26.3789 107.144 27.5163 107.937 28.4559 108.937C29.3955 109.936 30.1167 111.121 30.5736 112.414C31.0305 113.708 31.213 115.082 31.1096 116.45V137.702C31.3734 140.643 30.5823 143.581 28.8781 145.991C27.9282 147.116 26.7386 148.016 25.3965 148.622C24.0544 149.229 22.5935 149.528 21.1209 149.498C19.7179 149.45 18.3382 149.125 17.0615 148.542ZM58.2059 106.568V95.8351H77.5456V159.167H66.1756V106.568H58.2059ZM155.953 95.8351V106.568H163.923V159.167H175.293V95.8351H155.953ZM89.6501 247.788C87.6537 249.97 85.2237 251.712 82.5156 252.901C79.8075 254.09 76.881 254.702 73.9233 254.695C68.0455 254.775 62.3674 252.564 58.0902 248.532C55.9901 246.345 54.382 243.735 53.374 240.876C52.3659 238.017 51.9813 234.975 52.2458 231.955V210.703C51.9294 205.173 53.6706 199.723 57.1338 195.401C59.1697 193.249 61.6099 191.52 64.3147 190.313C67.0195 189.105 69.9359 188.443 72.8969 188.364C75.8579 188.285 78.8055 188.791 81.5708 189.853C84.3361 190.914 86.8649 192.511 89.0125 194.551C91.057 196.688 92.6328 199.229 93.6392 202.01C94.6456 204.791 95.0604 207.752 94.857 210.703V231.955C95.1852 237.503 93.4009 242.97 89.8626 247.257L89.6501 247.788ZM66.0599 239.712C67.0226 240.723 68.1751 241.534 69.4514 242.099C70.7277 242.664 72.1028 242.973 73.4982 243.006C74.9708 243.037 76.4316 242.738 77.7738 242.131C79.1159 241.524 80.3055 240.625 81.2554 239.5C82.9682 237.093 83.7601 234.152 83.4869 231.211V209.959C83.5903 208.591 83.4077 207.216 82.9509 205.923C82.494 204.629 81.7728 203.445 80.8332 202.445C79.8936 201.446 78.7562 200.653 77.4934 200.117C76.2305 199.581 74.8699 199.314 73.4982 199.332C72.0695 199.379 70.6648 199.714 69.3684 200.317C68.0721 200.919 66.9107 201.777 65.9536 202.839C64.3902 205.111 63.6412 207.845 63.8284 210.596V231.105C63.5154 234.149 64.3074 237.204 66.0599 239.712ZM12.0832 189.983V200.822H20.0529V253.315H31.4229V189.983H12.0832ZM187.408 247.788C185.411 249.97 182.981 251.712 180.273 252.901C177.565 254.09 174.639 254.702 171.681 254.695C165.803 254.775 160.125 252.564 155.848 248.532C153.748 246.345 152.139 243.735 151.131 240.876C150.123 238.017 149.739 234.975 150.003 231.955V210.703C149.687 205.173 151.428 199.723 154.891 195.401C156.927 193.249 159.367 191.52 162.072 190.313C164.777 189.105 167.693 188.443 170.654 188.364C173.615 188.285 176.563 188.791 179.328 189.853C182.094 190.914 184.622 192.511 186.77 194.551C188.815 196.688 190.39 199.229 191.397 202.01C192.403 204.791 192.818 207.752 192.614 210.703V231.955C192.943 237.503 191.158 242.97 187.62 247.257L187.408 247.788ZM163.817 239.712C164.78 240.723 165.933 241.534 167.209 242.099C168.485 242.664 169.86 242.973 171.256 243.006C172.728 243.037 174.189 242.738 175.531 242.131C176.873 241.524 178.063 240.625 179.013 239.5C180.726 237.093 181.518 234.152 181.244 231.211V209.959C181.348 208.591 181.165 207.216 180.708 205.923C180.251 204.629 179.53 203.445 178.591 202.445C177.651 201.446 176.514 200.653 175.251 200.117C173.988 199.581 172.627 199.314 171.256 199.332C169.827 199.379 168.422 199.714 167.126 200.317C165.83 200.919 164.668 201.777 163.711 202.839C162.148 205.111 161.399 207.845 161.586 210.596V231.105C161.273 234.149 162.065 237.204 163.817 239.712ZM109.842 189.983V200.822H117.812V253.315H129.182V189.983H109.842Z" fill="#F5F7F7"/>
</svg>
