<svg width="56" height="56" viewBox="0 0 56 56" fill="none" xmlns="http://www.w3.org/2000/svg">
<g opacity="0.9">
<path d="M9.84931 43.307C9.06531 43.307 8.31165 43.5027 7.64301 43.8701C4.12079 39.3549 2.1875 33.7461 2.1875 28C2.1875 13.7667 13.7667 2.1875 28 2.1875C29.7304 2.1875 31.4599 2.35968 33.1406 2.69934C33.7319 2.81897 34.3096 2.43616 34.4292 1.844C34.5488 1.25183 34.166 0.675049 33.5739 0.554993C31.7508 0.186707 29.8756 0 28 0C20.5211 0 13.4894 2.91254 8.20099 8.20099C2.91254 13.4894 0 20.5211 0 28C0 34.2912 2.13623 40.4307 6.02545 45.3526C5.52472 46.1007 5.25556 46.98 5.25556 47.9007C5.25556 49.1278 5.73365 50.2813 6.60138 51.1487C7.46869 52.0164 8.62226 52.4945 9.84931 52.4945C11.0764 52.4945 12.2299 52.0164 13.0977 51.1487C13.9654 50.2813 14.4431 49.1273 14.4431 47.9003C14.4431 46.6737 13.9654 45.5197 13.0977 44.6524C12.2299 43.7846 11.0764 43.307 9.84931 43.307V43.307ZM11.5506 49.602C11.0964 50.0566 10.4919 50.307 9.84931 50.307C9.20673 50.307 8.6026 50.0566 8.14801 49.602C7.69342 49.1474 7.44306 48.5433 7.44306 47.9007C7.44306 47.2577 7.69342 46.6536 8.14801 46.199C8.60218 45.7444 9.20673 45.4945 9.84931 45.4945C10.4919 45.4945 11.096 45.7448 11.5506 46.199C12.0052 46.6536 12.2556 47.2577 12.2556 47.9007C12.2556 48.5433 12.0052 49.1474 11.5506 49.602V49.602Z" fill="#DDE1E6"/>
<path d="M49.974 10.6461C51.163 8.86231 50.9721 6.42359 49.3994 4.85089C48.5316 3.98358 47.3781 3.50549 46.151 3.50549C44.924 3.50549 43.7704 3.98358 42.9026 4.85089C42.0349 5.71863 41.5573 6.87219 41.5573 8.09925C41.5573 9.3263 42.0349 10.4799 42.9026 11.3476C43.7704 12.2153 44.924 12.693 46.151 12.693C46.935 12.693 47.6887 12.4973 48.3573 12.1299C51.8795 16.6455 53.8128 22.2539 53.8128 28C53.8128 42.2332 42.2336 53.8125 28.0003 53.8125C26.287 53.8125 24.5738 53.6437 22.9088 53.3105C22.3166 53.1921 21.7403 53.5762 21.6215 54.1684C21.5032 54.761 21.8873 55.3369 22.4794 55.4557C24.2854 55.8167 26.1431 56 28.0003 56C35.4792 56 42.5109 53.0874 47.7993 47.799C53.0878 42.5105 56.0003 35.4789 56.0003 28C56.0003 21.7083 53.8637 15.5684 49.974 10.6461V10.6461ZM44.4497 9.80097C43.9951 9.34638 43.7448 8.74225 43.7448 8.09925C43.7448 7.45667 43.9951 6.85254 44.4497 6.39795C44.9039 5.94336 45.5084 5.69299 46.151 5.69299C46.7936 5.69299 47.3981 5.94336 47.8527 6.39795C48.7905 7.33618 48.7905 8.86274 47.8527 9.80097C47.3981 10.2551 46.7936 10.5055 46.151 10.5055C45.508 10.5055 44.9039 10.2551 44.4497 9.80097Z" fill="#DDE1E6"/>
<path d="M23.4868 46.8125C23.4868 47.4166 23.9769 47.9063 24.5806 47.9063H31.4195C32.0236 47.9063 32.5133 47.4166 32.5133 46.8125V44.6921C33.9514 44.305 35.3262 43.7351 36.6182 42.9908L38.1153 44.4879C38.3204 44.693 38.5985 44.8083 38.8891 44.8083C39.1787 44.8083 39.4573 44.693 39.6624 44.4874L44.4962 39.6502C44.9231 39.2229 44.9231 38.5304 44.4962 38.1035L43.0009 36.6082C43.7451 35.3162 44.3151 33.9413 44.7022 32.5032H46.8145C47.4186 32.5032 47.9082 32.0136 47.9082 31.4094V24.5705C47.9082 23.9664 47.4186 23.4768 46.8145 23.4768H44.7017C44.3147 22.0391 43.7451 20.6642 43.0009 19.3722L44.4881 17.885C44.6932 17.6799 44.8086 17.4013 44.8086 17.1112C44.8081 16.8211 44.6928 16.5425 44.4877 16.3375L39.65 11.5036C39.2232 11.0768 38.5306 11.0768 38.1033 11.504L36.6182 12.9896C35.3262 12.2453 33.9514 11.6754 32.5133 11.2883V9.1875C32.5133 8.58337 32.0236 8.09375 31.4195 8.09375H24.5806C23.9769 8.09375 23.4868 8.58337 23.4868 9.1875V11.2887C22.0491 11.6754 20.6743 12.2453 19.3823 12.9896L17.8967 11.504C17.4699 11.0772 16.7773 11.0768 16.3501 11.5036L11.5128 16.3379C11.3073 16.543 11.192 16.8211 11.192 17.1112C11.192 17.4013 11.3073 17.6799 11.5124 17.885L12.9996 19.3722C12.2554 20.6642 11.6854 22.0386 11.2983 23.4768H9.18988C8.58576 23.4768 8.09613 23.9664 8.09613 24.5701L8.09229 31.409C8.09186 31.6991 8.20722 31.9777 8.41229 32.1828C8.61737 32.3878 8.89551 32.5032 9.18604 32.5032H11.2983C11.6854 33.9413 12.2554 35.3162 12.9996 36.6082L11.5043 38.1035C11.0775 38.5304 11.077 39.2229 11.5043 39.6502L16.3381 44.4874C16.5432 44.6925 16.8214 44.8083 17.1115 44.8083H17.1119C17.402 44.8083 17.6801 44.693 17.8852 44.4879L19.3818 42.9908C20.6743 43.7351 22.0491 44.305 23.4868 44.6921V46.8125ZM19.8108 40.6905C19.378 40.4107 18.8085 40.4713 18.4436 40.8358L17.1119 42.1675L13.8242 38.8773L15.1547 37.5464C15.5191 37.182 15.5798 36.6124 15.2999 36.1796C14.3083 34.645 13.611 32.9629 13.2282 31.1796C13.1197 30.6759 12.6745 30.3157 12.1588 30.3157H10.2802L10.2828 25.6643H12.1588C12.6745 25.6643 13.1197 25.3045 13.2282 24.8004C13.611 23.0175 14.3083 21.3354 15.2999 19.8007C15.5798 19.3679 15.5191 18.7984 15.1547 18.434L13.8328 17.1116L17.123 13.824L18.4436 15.145C18.8085 15.5095 19.3776 15.5697 19.8108 15.2903C21.345 14.2986 23.0271 13.6014 24.8104 13.2186C25.3142 13.11 25.6743 12.6644 25.6743 12.1492V10.2813H30.3258V12.1487C30.3258 12.6644 30.6855 13.11 31.1897 13.2181C32.9725 13.6014 34.655 14.2982 36.1893 15.2899C36.6221 15.5697 37.1916 15.5095 37.556 15.1446L38.8771 13.824L42.1673 17.1116L40.8454 18.4335C40.4805 18.7984 40.4203 19.3679 40.7002 19.8007C41.6918 21.3354 42.3886 23.0175 42.7719 24.8004C42.88 25.3045 43.3256 25.6643 43.8413 25.6643H45.7207V30.3157H43.8413C43.3256 30.3157 42.8804 30.6759 42.7719 31.1796C42.3891 32.9625 41.6918 34.645 40.7002 36.1792C40.4203 36.6124 40.481 37.182 40.8454 37.5464L42.1759 38.8768L38.8882 42.1671L37.5565 40.8358C37.1916 40.4709 36.6221 40.4107 36.1893 40.6905C34.6546 41.6821 32.9725 42.379 31.1897 42.7622C30.6855 42.8707 30.3258 43.3159 30.3258 43.8316V45.7188H25.6743V43.8316C25.6743 43.3164 25.3142 42.8707 24.8104 42.7622C23.0275 42.3794 21.3455 41.6821 19.8108 40.6905V40.6905Z" fill="#DDE1E6"/>
<path d="M37.0375 28.0001C37.0375 23.0167 32.9833 18.9625 27.9999 18.9625C23.0165 18.9625 18.9624 23.0167 18.9624 28.0001C18.9624 32.9835 23.0165 37.0376 27.9999 37.0376C32.9833 37.0376 37.0375 32.9835 37.0375 28.0001ZM21.1499 28.0001C21.1499 24.2228 24.2227 21.15 27.9999 21.15C31.7772 21.15 34.85 24.2232 34.85 28.0001C34.85 31.7769 31.7772 34.8501 27.9999 34.8501C24.2227 34.8501 21.1499 31.7774 21.1499 28.0001Z" fill="#DDE1E6"/>
<path d="M17.9771 51.8832C17.6895 51.8832 17.4071 52.0002 17.2037 52.2036C17.0004 52.407 16.8833 52.6894 16.8833 52.9769C16.8833 53.2657 17.0004 53.5469 17.2037 53.7502C17.4071 53.9536 17.6895 54.0707 17.9771 54.0707C18.2646 54.0707 18.547 53.9536 18.7504 53.7502C18.9537 53.5469 19.0708 53.2645 19.0708 52.9769C19.0708 52.6894 18.9537 52.407 18.7504 52.2036C18.547 52.0002 18.2646 51.8832 17.9771 51.8832Z" fill="#DDE1E6"/>
</g>
</svg>
