<svg width="58" height="58" viewBox="0 0 58 58" fill="none" xmlns="http://www.w3.org/2000/svg">
<path d="M12.3926 43.4205C12.3926 42.9122 11.9805 42.5001 11.4722 42.5001C6.65758 42.5001 2.74063 38.5859 2.74063 33.7751C2.74063 30.3624 4.75018 27.2432 7.85994 25.8291C8.32269 25.6188 8.52724 25.0731 8.3168 24.6104C8.10646 24.1477 7.56068 23.9431 7.09806 24.1535C3.33282 25.8657 0.9 29.6421 0.9 33.7751C0.9 39.6011 5.64261 44.3408 11.4722 44.3408C11.9805 44.3408 12.3926 43.9287 12.3926 43.4205Z" fill="#DDE1E6" stroke="#DDE1E6" stroke-width="0.2"/>
<path d="M43.995 22.2977L44.0799 22.2526L43.9951 22.2977C44.2337 22.7465 44.7908 22.9169 45.2397 22.6784L45.1927 22.5901L45.2397 22.6784C45.6884 22.4398 45.8589 21.8826 45.6203 21.4337C45.1636 20.5746 44.6344 19.7702 44.0426 19.0263V8.16294L45.9589 5.87951C46.2194 5.96897 46.4987 6.01749 46.7891 6.01749C48.2012 6.01749 49.35 4.86987 49.35 3.45875C49.35 2.04762 48.2011 0.9 46.7891 0.9C45.377 0.9 44.2281 2.04762 44.2281 3.45875C44.2281 3.90748 44.3444 4.32982 44.5484 4.69691L42.4173 7.23625L42.4173 7.23628C42.2783 7.40202 42.2019 7.61147 42.2019 7.82784V17.0816C40.8077 15.8417 39.2027 14.863 37.4635 14.1913V8.60412C38.4221 8.23408 39.1042 7.30348 39.1042 6.2162C39.1042 4.80507 37.9554 3.65745 36.5432 3.65745C35.1311 3.65745 33.9823 4.80507 33.9823 6.2162C33.9823 7.30348 34.6644 8.23408 35.6229 8.60412V13.6089C34.3987 13.3034 33.1258 13.1436 31.8277 13.1436C31.1831 13.1436 30.5463 13.1828 29.9202 13.2591V5.84667C30.8787 5.47663 31.5608 4.54603 31.5608 3.45875C31.5608 2.04762 30.412 0.9 28.9999 0.9C27.5877 0.9 26.4389 2.04762 26.4389 3.45875C26.4389 4.54603 27.121 5.47663 28.0795 5.84667V13.5959C25.9872 14.1101 24.0516 15.0462 22.3768 16.3172V8.60412C23.3353 8.23408 24.0174 7.30348 24.0174 6.2162C24.0174 4.80507 22.8686 3.65745 21.4565 3.65745C20.0443 3.65745 18.8955 4.80507 18.8955 6.2162C18.8955 7.30348 19.5776 8.23408 20.5362 8.60412V17.9585C18.7799 19.7934 17.4628 22.0671 16.7674 24.6269C16.4353 24.4339 16.0944 24.2599 15.7457 24.1054V7.82795C15.7457 7.61148 15.6694 7.40202 15.5303 7.23637C15.5303 7.23636 15.5303 7.23636 15.5303 7.23636L13.3993 4.69702C13.6034 4.32983 13.7196 3.9075 13.7196 3.45875C13.7196 2.04762 12.5709 0.9 11.1587 0.9C9.74653 0.9 8.59775 2.04762 8.59775 3.45875C8.59775 4.86987 9.74653 6.01749 11.1587 6.01749C11.4489 6.01749 11.7283 5.96898 11.9888 5.87952L13.9051 8.16294V23.4882C13.1166 23.3035 12.302 23.2094 11.4719 23.2094C10.9637 23.2094 10.5516 23.6215 10.5516 24.1297C10.5516 24.638 10.9637 25.05 11.4719 25.05C13.4231 25.05 15.2676 25.6785 16.8071 26.8678C16.9706 26.9942 17.1692 27.0598 17.3698 27.0598C17.4813 27.0598 17.5935 27.0395 17.7007 26.9982L17.7008 26.9982C18.001 26.8824 18.2189 26.6183 18.2757 26.3016L18.1773 26.284L18.2757 26.3016C19.4499 19.744 25.1492 14.9843 31.8277 14.9843C36.9348 14.9843 41.597 17.7865 43.995 22.2977ZM46.7891 2.74062C47.1865 2.74062 47.5094 3.06306 47.5094 3.45875C47.5094 3.85444 47.1865 4.17687 46.7891 4.17687C46.3917 4.17687 46.0687 3.85444 46.0687 3.45875C46.0687 3.06306 46.3917 2.74062 46.7891 2.74062ZM36.5432 5.49796C36.9406 5.49796 37.2635 5.8205 37.2635 6.21609C37.2635 6.61168 36.9406 6.93421 36.5432 6.93421C36.1458 6.93421 35.8229 6.61178 35.8229 6.21609C35.8229 5.8204 36.1458 5.49796 36.5432 5.49796ZM28.9999 2.74062C29.3973 2.74062 29.7202 3.06306 29.7202 3.45875C29.7202 3.85444 29.3973 4.17687 28.9999 4.17687C28.6025 4.17687 28.2795 3.85444 28.2795 3.45875C28.2795 3.06306 28.6025 2.74062 28.9999 2.74062ZM21.4565 5.49796C21.8539 5.49796 22.1768 5.8205 22.1768 6.21609C22.1768 6.61168 21.8539 6.93421 21.4565 6.93421C21.0591 6.93421 20.7362 6.61178 20.7362 6.21609C20.7362 5.8204 21.0591 5.49796 21.4565 5.49796ZM10.4384 3.45875C10.4384 3.06306 10.7613 2.74062 11.1587 2.74062C11.5561 2.74062 11.879 3.06306 11.879 3.45875C11.879 3.85444 11.5561 4.17687 11.1587 4.17687C10.7613 4.17687 10.4384 3.85434 10.4384 3.45875Z" fill="#DDE1E6" stroke="#DDE1E6" stroke-width="0.2"/>
<path d="M47.4348 28.5231C47.9788 28.4078 48.5354 28.3498 49.0997 28.3498C53.511 28.3498 57.0999 31.9365 57.0998 36.3455C57.0998 40.7544 53.511 44.341 49.0996 44.341H46.4094C45.9011 44.341 45.4891 43.929 45.4891 43.4207C45.4891 42.9125 45.9011 42.5004 46.4094 42.5004H49.0996C52.496 42.5004 55.2592 39.7392 55.2592 36.3455C55.2592 32.9517 52.4961 30.1905 49.0996 30.1905C48.3118 30.1905 47.5452 30.3369 46.8206 30.6254L46.8206 30.6254C46.5268 30.7423 46.1933 30.7004 45.9376 30.5137C45.682 30.3272 45.5402 30.0224 45.562 29.7068L45.6618 29.7137L45.562 29.7068C45.5843 29.3852 45.5956 29.0607 45.5956 28.7425C45.5956 27.699 45.4784 26.6593 45.2473 25.6525L47.4348 28.5231ZM47.4348 28.5231C47.4194 27.415 47.2871 26.3119 47.0412 25.2407L47.0412 25.2407C46.9275 24.7452 46.4336 24.4358 45.9383 24.5496M47.4348 28.5231L45.2472 25.6525C45.1335 25.1571 45.443 24.6633 45.9383 24.5496M45.9383 24.5496L45.9606 24.6465L45.9383 24.5496Z" fill="#DDE1E6" stroke="#DDE1E6" stroke-width="0.2"/>
<path d="M39.885 42.5001H32.2827C31.7745 42.5001 31.3624 42.9122 31.3624 43.4204C31.3624 43.9287 31.7745 44.3407 32.2827 44.3407H35.6229V52.1534C34.6644 52.5235 33.9822 53.454 33.9822 54.5413C33.9822 55.9525 35.131 57.1001 36.5432 57.1001C37.9553 57.1001 39.1041 55.9525 39.1041 54.5413C39.1041 53.4539 38.422 52.5233 37.4635 52.1534V44.3407H39.885C40.3933 44.3407 40.8053 43.9287 40.8053 43.4204C40.8053 42.9122 40.3933 42.5001 39.885 42.5001ZM36.5432 55.2595C36.1458 55.2595 35.8229 54.937 35.8229 54.5413C35.8229 54.1456 36.1458 53.8232 36.5432 53.8232C36.9406 53.8232 37.2635 54.1457 37.2635 54.5413C37.2635 54.9369 36.9406 55.2595 36.5432 55.2595Z" fill="#DDE1E6" stroke="#DDE1E6" stroke-width="0.2"/>
<path d="M25.7148 42.5001H18.2451C17.7369 42.5001 17.3248 42.9122 17.3248 43.4204C17.3248 43.9287 17.7369 44.3407 18.2451 44.3407H20.5365V52.1534C19.578 52.5235 18.8959 53.454 18.8959 54.5413C18.8959 55.9525 20.0446 57.1001 21.4568 57.1001C22.869 57.1001 24.0177 55.9525 24.0177 54.5413C24.0177 53.4539 23.3356 52.5233 22.3771 52.1534V44.3407H25.7148C26.223 44.3407 26.6351 43.9287 26.6351 43.4204C26.6351 42.9122 26.223 42.5001 25.7148 42.5001ZM21.4568 55.2595C21.0594 55.2595 20.7365 54.937 20.7365 54.5413C20.7365 54.1456 21.0594 53.8232 21.4568 53.8232C21.8542 53.8232 22.1771 54.1457 22.1771 54.5413C22.1771 54.9369 21.8542 55.2595 21.4568 55.2595Z" fill="#DDE1E6" stroke="#DDE1E6" stroke-width="0.2"/>
<path d="M10.6194 56.8846L10.6194 56.8846C10.7917 57.0292 11.0018 57.1 11.2105 57.1C11.4729 57.1 11.7339 56.9882 11.9159 56.7712L15.5827 52.402L15.5827 52.402C15.7217 52.2362 15.7981 52.0268 15.7981 51.8104V40.3694C16.7566 39.9994 17.4387 39.0688 17.4387 37.9815C17.4387 36.5705 16.2899 35.4228 14.8778 35.4228C13.4656 35.4228 12.3168 36.5705 12.3168 37.9816C12.3168 39.0689 12.9989 39.9995 13.9574 40.3695V51.4755L10.506 55.5881C10.1792 55.9774 10.23 56.5578 10.6194 56.8846ZM14.8778 38.6997C14.4804 38.6997 14.1574 38.3773 14.1574 37.9816C14.1574 37.5859 14.4804 37.2635 14.8778 37.2635C15.2752 37.2635 15.5981 37.586 15.5981 37.9816C15.5981 38.3772 15.2752 38.6997 14.8778 38.6997Z" fill="#DDE1E6" stroke="#DDE1E6" stroke-width="0.2"/>
<path d="M29 35.4228C27.5878 35.4228 26.4391 36.5705 26.4391 37.9816C26.4391 39.0689 27.1212 39.9995 28.0797 40.3695V56.1797C28.0797 56.688 28.4917 57.1 29 57.1C29.5083 57.1 29.9203 56.688 29.9203 56.1797V40.3695C30.8788 39.9995 31.5609 39.0689 31.5609 37.9816C31.5609 36.5705 30.4122 35.4228 29 35.4228ZM29 38.6997C28.6026 38.6997 28.2797 38.3773 28.2797 37.9816C28.2797 37.5859 28.6026 37.2635 29 37.2635C29.3974 37.2635 29.7203 37.586 29.7203 37.9816C29.7203 38.3772 29.3974 38.6997 29 38.6997Z" fill="#DDE1E6" stroke="#DDE1E6" stroke-width="0.2"/>
<path d="M46.0843 56.7713L46.1528 56.7138L46.0843 56.7713C46.2664 56.9883 46.5273 57.1 46.7897 57.1C46.9984 57.1 47.2085 57.0293 47.3808 56.8847L47.3204 56.8126L47.3808 56.8847C47.7702 56.5579 47.8209 55.9774 47.4942 55.5881L44.0428 51.4755V40.3695C45.0013 39.9995 45.6834 39.0689 45.6834 37.9816C45.6834 36.5705 44.5347 35.4228 43.1225 35.4228C41.7104 35.4228 40.5616 36.5705 40.5616 37.9816C40.5616 39.0689 41.2437 39.9995 42.2022 40.3695V51.8105C42.2022 52.027 42.2785 52.2364 42.4176 52.4021L46.0843 56.7713ZM43.1225 37.2635C43.5199 37.2635 43.8428 37.586 43.8428 37.9816C43.8428 38.3772 43.5199 38.6997 43.1225 38.6997C42.7251 38.6997 42.4022 38.3773 42.4022 37.9816C42.4022 37.5859 42.7251 37.2635 43.1225 37.2635Z" fill="#DDE1E6" stroke="#DDE1E6" stroke-width="0.2"/>
</svg>
