<svg width="744" height="800" viewBox="0 0 744 800" fill="none" xmlns="http://www.w3.org/2000/svg">
<path d="M628.172 141.07C622.939 141.345 617.789 142.497 612.938 144.476C608.737 146.304 604.675 148.434 600.783 150.848C597.257 152.994 593.387 154.517 589.344 155.353H588.574C593.424 144.098 594.01 131.465 590.224 119.811C587.925 112.683 583.345 106.506 577.189 102.232C573.699 99.7899 569.689 98.1914 565.474 97.5625C561.246 96.8685 556.911 97.2656 552.88 98.7161C548.853 100.175 545.293 102.688 542.574 105.994C539.855 109.3 538.077 113.275 537.425 117.503C536.445 123.748 537.305 130.142 539.9 135.906C542.203 140.916 545.41 145.46 549.36 149.31C553.121 152.885 557.405 155.867 562.064 158.154H562.724C560.135 161.054 557.176 163.602 553.925 165.735C551.072 167.837 548.035 169.675 544.85 171.229C547.254 172.484 549.399 174.18 551.175 176.228C554.367 180.03 556.12 184.833 556.125 189.796C559.65 187.894 563.049 185.765 566.299 183.424C573.503 178.238 579.614 171.686 584.284 164.142C586.462 164.307 588.65 164.307 590.828 164.142C595.681 163.567 600.423 162.29 604.908 160.352C608.682 158.817 612.56 157.551 616.513 156.561C623.698 155.303 631.092 156.878 637.137 160.956L643.572 141.729C638.467 141.073 633.315 140.853 628.172 141.07ZM570.039 148.321C569.432 149.643 568.715 150.911 567.894 152.112L565.914 151.562C562.249 149.605 558.999 146.956 556.345 143.762C553.717 140.699 551.835 137.07 550.845 133.16C549.745 129.262 549.745 125.137 550.845 121.239C551.238 119.581 552.075 118.061 553.267 116.842C554.458 115.622 555.959 114.75 557.61 114.317C559.269 113.97 560.984 113.987 562.636 114.366C564.288 114.746 565.838 115.479 567.179 116.515C569.924 118.858 571.851 122.013 572.679 125.524C574.692 133.185 573.75 141.321 570.039 148.321Z" fill="#F5F7F7"/>
<path d="M195.392 149.255C199.341 145.404 202.548 140.861 204.851 135.851C207.446 130.086 208.306 123.692 207.326 117.448C206.638 113.259 204.843 109.33 202.126 106.066C199.41 102.801 195.869 100.321 191.872 98.8804C187.821 97.4324 183.469 97.0355 179.222 97.7268C175.032 98.3828 171.046 99.9793 167.563 102.396C161.407 106.671 156.827 112.847 154.528 119.975C150.738 131.639 151.285 144.278 156.068 155.572H155.133C151.149 154.71 147.338 153.188 143.858 151.067C139.954 148.641 135.872 146.511 131.649 144.695C126.78 142.71 121.611 141.559 116.359 141.289C111.198 141.069 106.028 141.289 100.905 141.948L107.615 161.12C113.66 157.042 121.054 155.467 128.239 156.726C132.191 157.715 136.069 158.982 139.844 160.516C144.328 162.454 149.071 163.731 153.923 164.306C156.065 164.471 158.216 164.471 160.358 164.306C165.027 171.978 171.178 178.644 178.452 183.918C181.697 186.24 185.076 188.367 188.572 190.29C188.585 185.219 190.353 180.309 193.577 176.392C195.337 174.328 197.486 172.63 199.902 171.393C196.699 169.84 193.643 168.001 190.772 165.9C187.535 163.768 184.595 161.219 182.027 158.319H182.687C187.361 155.965 191.646 152.908 195.392 149.255ZM178.892 151.617L176.967 152.331C176.147 151.13 175.429 149.862 174.822 148.54C171.138 141.533 170.197 133.406 172.182 125.743C173.011 122.233 174.937 119.077 177.682 116.734C179.023 115.698 180.573 114.965 182.226 114.585C183.878 114.206 185.593 114.189 187.252 114.537C188.897 114.98 190.392 115.856 191.582 117.073C192.772 118.291 193.613 119.805 194.017 121.458C195.116 125.356 195.116 129.481 194.017 133.379C193.027 137.289 191.144 140.918 188.517 143.981C185.743 147.142 182.381 149.736 178.617 151.617H178.892Z" fill="#F5F7F7"/>
<path d="M109.673 525.589L86.8892 527.672L88.9747 550.43L111.759 548.347L109.673 525.589Z" fill="#F5F7F7"/>
<path d="M239.115 209.572C236.475 214.406 226.795 210.341 205.456 202.87C213.761 217.977 241.095 225.228 260.949 225.228C249.18 214.571 245.495 196.773 235.045 185.456C232.602 182.694 229.556 180.529 226.142 179.129C222.728 177.729 219.038 177.131 215.356 177.381C211.549 177.652 207.979 179.324 205.337 182.075C202.695 184.825 201.169 188.458 201.056 192.268C218.051 187.489 241.755 204.683 239.115 209.572Z" fill="#F5F7F7"/>
<path d="M393.604 24.061L372.43 0L350.98 24.061L372.43 48.1219L393.604 24.061Z" fill="#F5F7F7"/>
<path d="M415.77 144.586C411.056 138.17 407.347 131.076 404.77 123.546C403.935 120.96 403.292 118.316 402.846 115.636H412.58C418.692 105.946 424.309 95.9534 429.41 85.6967C441.619 54.824 426.165 42.354 403.561 42.354L372.431 76.5777L341.083 42.7385C318.423 42.7385 303.024 55.2085 315.288 86.0263C320.258 96.1819 325.765 106.066 331.788 115.636H341.577C341.131 118.316 340.488 120.96 339.653 123.546C337.076 131.076 333.367 138.17 328.653 144.586C321.379 154.394 311.978 162.432 301.154 168.097L304.839 169.251C311.823 171.668 318.588 174.03 325.243 175.898C332.5 170.854 338.968 164.763 344.437 157.825C350.781 150.069 355.917 141.402 359.672 132.116C361.932 126.828 363.574 121.299 364.567 115.636H379.746C382.846 131.139 389.743 145.634 399.821 157.825C405.204 164.751 411.622 170.81 418.85 175.788C426.77 173.646 435.349 170.624 443.269 167.768C432.507 162.156 423.117 154.24 415.77 144.586Z" fill="#F5F7F7"/>
<path d="M435.349 144.421C439.066 151.956 443.178 159.291 447.668 166.394C460.855 161.314 474.794 158.455 488.917 157.934C496.188 157.891 503.422 158.966 510.366 161.12C513.611 155.627 516.691 150.134 519.496 144.64C528.516 121.843 517.131 112.779 500.467 112.779L477.422 137.883L454.598 112.779C437.494 112.559 426.109 121.788 435.349 144.421Z" fill="#F5F7F7"/>
<path d="M492.932 101.243L477.203 83.9939L461.473 101.243L477.203 119.536L492.932 101.243Z" fill="#F5F7F7"/>
<path d="M234.495 161.176C241.439 159.021 248.673 157.947 255.944 157.989C270.031 158.522 283.932 161.381 297.083 166.449C301.52 159.308 305.626 151.983 309.403 144.476C318.422 121.843 307.038 112.614 290.153 112.724L267.329 137.829L244.285 112.724C227.785 112.724 216.236 121.788 225.255 144.586C228.17 150.189 231.085 155.737 234.495 161.176Z" fill="#F5F7F7"/>
<path d="M283.168 101.243L267.439 83.9939L251.709 101.243L267.439 119.536L283.168 101.243Z" fill="#F5F7F7"/>
<path d="M484.078 226.657C503.987 226.657 531.321 219.406 539.626 204.683C518.286 212.044 508.552 216.055 505.967 211.275C503.382 206.496 526.976 189.302 544.026 194.356C543.909 190.548 542.372 186.922 539.717 184.188C537.061 181.454 533.478 179.81 529.671 179.579C526.005 179.332 522.33 179.916 518.921 181.286C515.512 182.655 512.456 184.776 509.982 187.489C499.312 198.531 495.847 216.11 484.078 226.657Z" fill="#F5F7F7"/>
<path d="M557.325 578.325L535.869 586.099L543.653 607.53L565.109 599.756L557.325 578.325Z" fill="#F5F7F7"/>
<path d="M619.373 362.563C659.687 371.682 739.379 336.579 743.834 247.202L621.573 317.297C621.573 310.54 621.078 304.058 620.693 297.961C674.206 289.501 755.328 213.088 728.049 126.677C669.531 266.319 497.057 250.113 493.537 358.882C532.476 357.893 538.141 416.947 500.852 424.253C493.003 400.187 478.538 378.81 459.108 362.563V335.096H444.918C429.079 296.642 432.159 240.665 474.013 225.228C489.412 215.725 493.097 185.072 512.511 175.788C471.098 158.594 433.974 194.63 393.22 191.774C394.636 195.066 396.743 198.016 399.4 200.423C402.057 202.831 405.201 204.64 408.62 205.727C388.985 228.415 381.121 265.495 380.131 297.466C377.449 297.119 374.749 296.936 372.046 296.917C369.618 296.844 367.188 296.991 364.786 297.356C364.181 264.891 356.041 227.206 336.352 203.969C339.723 202.88 342.826 201.094 345.46 198.728C348.094 196.362 350.2 193.468 351.641 190.236C310.943 193.147 273.764 156.671 232.35 173.755C251.765 183.369 255.45 214.406 270.849 224.02C312.703 239.511 315.783 296.642 299.888 335.59H284.819V363.057C265.442 379.252 251 400.548 243.13 424.528C205.841 417.496 211.561 358.168 250.5 359.157C247.035 250.388 74.5054 266.593 15.9323 126.952C-11.2919 213.363 69.8305 289.775 123.344 298.235C122.904 304.333 122.574 310.815 122.464 317.572L0.0927734 247.202C4.54763 336.304 84.2951 371.407 124.609 362.563C125.269 368.056 126.094 373.934 127.139 379.812L14.2273 344.544C43.1014 422.55 109.704 436.284 137.588 420.023C139.178 424.767 141.013 429.424 143.088 433.977L53.5511 428.978C95.4047 489.405 144.848 489.405 163.548 471.112C165.582 474.133 167.727 477.154 169.982 480.121L107.119 496.161C152.713 538.351 187.747 530.111 198.361 511.378C200.396 513.136 202.431 514.949 204.521 516.871L166.022 544.338C209.306 570.047 232.46 557.468 236.75 539.669L241.755 542.471L223.001 573.673C258.309 585.319 272.499 572.794 273.489 557.742C274.534 558.841 275.579 559.94 276.679 560.983C280.639 575.046 254.02 596.306 251.765 596.745C262.325 597.296 272.856 595.2 282.399 590.647V595.482C279.429 612.896 248.41 616.906 232.9 619.158C230.574 616.678 227.763 614.701 224.641 613.35C221.52 611.998 218.153 611.302 214.751 611.303C212.136 611.288 209.536 611.696 207.051 612.511C195.007 602.074 131.704 549.337 131.154 549.008C120.539 540.548 107.504 557.413 118.339 565.488L191.432 625.915C189.371 630.829 188.943 636.274 190.211 641.448C191.48 646.623 194.378 651.255 198.478 654.662C202.579 658.069 207.666 660.071 212.991 660.375C218.316 660.678 223.598 659.267 228.06 656.348C233.56 660.743 246.21 671.675 246.815 672.114C257.43 680.629 270.519 663.819 259.684 655.634L242.085 640.967C265.441 628.119 290.308 618.228 316.113 611.522C289.108 629.87 267.879 674.421 289.438 703.811L290.923 701.174C290.208 702.163 303.903 677.388 315.618 660.303C319.797 654.096 324.417 648.108 328.597 642.285C306.598 677.168 296.753 745.011 330.082 761.711C330.467 759.788 348.177 679.695 348.562 677.717C341.302 721.225 345.207 778.081 372.046 800C398.83 778.026 402.79 721.225 395.475 677.717C395.915 679.695 413.624 759.788 414.009 761.711C447.008 745.231 437.494 677.168 415.439 642.285C419.619 648.108 424.294 654.096 428.474 660.303C440.189 677.388 453.883 702.163 453.113 701.174L454.598 703.811C476.212 674.421 454.983 629.87 427.924 611.522C437.494 614.379 448.493 617.455 460.923 622.015C476.555 628.037 490.498 637.743 501.567 650.305C505.73 655.646 511.156 659.872 517.356 662.605C523.557 665.337 530.339 666.49 537.096 665.962C545.527 665.642 553.573 662.349 559.806 656.667C566.038 650.986 570.053 643.282 571.139 634.924C572.015 625.932 569.719 616.917 564.65 609.435L546.83 615.917L538.25 618.993L535.116 610.479L528.901 592.845C522.134 593.542 515.669 596.006 510.157 599.988C504.645 603.971 500.279 609.331 497.497 615.533C483.362 612.456 464.498 606.798 462.353 594.987V590.153C471.915 594.705 482.464 596.801 493.042 596.251C490.787 595.811 464.168 574.277 468.128 560.489C469.173 559.445 470.273 558.346 471.263 557.248C472.363 572.3 486.497 584.715 521.806 573.179L503.052 541.976L508.001 539.175C512.291 556.973 535.501 569.553 578.784 543.844L540.285 516.377C542.375 514.674 544.41 512.861 546.445 510.884C557.06 529.616 592.094 537.746 637.742 495.667L574.824 479.626C577.079 476.66 579.169 473.639 581.259 470.617C599.573 488.91 649.072 488.91 690.926 428.483L601.388 433.317C603.313 428.703 605.073 424.143 606.888 419.529C634.827 436.009 701.43 422.056 730.304 344.05L616.843 379.537C617.833 373.549 618.658 368.056 619.373 362.563ZM444.588 563.62V584.11H432.159C415.989 607.512 394.98 621.685 371.991 621.685C349.002 621.685 327.992 607.512 311.823 584.11H299.338V563.51C284.3 552.254 272.094 537.654 263.687 520.868C255.28 504.081 250.903 485.569 250.903 466.799C250.903 448.03 255.28 429.518 263.687 412.731C272.094 395.945 284.3 381.345 299.338 370.089V350.697H310.998C327.497 326.581 348.617 311.914 371.991 311.914C395.365 311.914 416.429 326.581 432.929 350.697H444.588V370.198C459.626 381.455 471.832 396.055 480.239 412.841C488.647 429.628 493.024 448.14 493.024 466.909C493.024 485.679 488.647 504.191 480.239 520.977C471.832 537.764 459.626 552.364 444.588 563.62Z" fill="#F5F7F7"/>
<path d="M395.42 534.725H348.506L329.752 551.589V570.871H414.174V551.589L395.42 534.725Z" fill="#F5F7F7"/>
<path d="M395.421 474.023H348.507V534.725H395.421V474.023Z" fill="#F5F7F7"/>
<path d="M395.421 418.65H348.507V440.349H395.421V418.65Z" fill="#F5F7F7"/>
<path d="M340.311 440.349V474.023H403.614V440.349H340.311ZM395.309 467.321H348.506V447.325H395.419L395.309 467.321Z" fill="#F5F7F7"/>
<path d="M371.88 384.921L380.955 374.648L371.88 364.321L362.75 374.648L371.88 384.921Z" fill="#F5F7F7"/>
<path d="M358.847 413.871H354.612C351.975 409.711 349.552 405.421 347.352 401.016C341.852 387.832 348.727 382.449 358.352 382.449L371.661 397.006L385.081 382.339C394.761 382.339 401.58 387.832 396.081 400.906C393.894 405.272 391.49 409.526 388.876 413.651H358.627L358.847 413.871Z" fill="#F5F7F7"/>
<path d="M308.357 544.997V540.108H317.102V568.674H311.932V544.997H308.357Z" fill="#F5F7F7"/>
<path d="M327.497 503.193V498.303H336.351V526.924H331.181V503.193H327.497Z" fill="#F5F7F7"/>
<path d="M318.422 524.232C317.522 525.237 316.42 526.04 315.188 526.589C313.956 527.138 312.621 527.421 311.272 527.418C308.614 527.453 306.048 526.448 304.122 524.617C303.16 523.63 302.425 522.446 301.969 521.146C301.513 519.846 301.347 518.462 301.483 517.091V507.642C301.31 505.14 302.097 502.666 303.682 500.721C305.006 499.186 306.779 498.105 308.751 497.631C310.722 497.156 312.793 497.313 314.671 498.078C316.549 498.843 318.139 500.177 319.217 501.893C320.295 503.61 320.805 505.621 320.677 507.642V517.311C320.839 519.821 320.032 522.298 318.422 524.232ZM307.422 520.881C308.302 521.796 309.507 522.329 310.777 522.364C311.445 522.376 312.108 522.239 312.717 521.964C313.325 521.688 313.865 521.281 314.297 520.771C315.069 519.687 315.421 518.36 315.287 517.036V507.532C315.412 506.362 315.073 505.19 314.343 504.266C313.613 503.342 312.551 502.74 311.382 502.588H310.777C310.128 502.596 309.488 502.743 308.9 503.017C308.312 503.292 307.79 503.689 307.367 504.181C306.665 505.213 306.335 506.453 306.432 507.697V516.926C306.304 518.352 306.739 519.771 307.642 520.881H307.422Z" fill="#F5F7F7"/>
<path d="M283.334 503.193V498.303H292.354V526.924H286.854V503.193H283.334Z" fill="#F5F7F7"/>
<path d="M317.982 417.936V413.102H326.727V441.667H321.612V417.936H317.982Z" fill="#F5F7F7"/>
<path d="M308.854 439.47C307.937 440.448 306.83 441.231 305.601 441.769C304.372 442.307 303.046 442.59 301.704 442.601C299.046 442.636 296.479 441.63 294.554 439.799C293.599 438.819 292.868 437.643 292.412 436.354C291.957 435.064 291.787 433.69 291.914 432.328V422.55C291.877 420.626 292.41 418.733 293.445 417.109C294.48 415.486 295.973 414.203 297.734 413.423C299.496 412.643 301.449 412.4 303.349 412.724C305.249 413.047 307.011 413.924 308.414 415.244C309.322 416.222 310.024 417.374 310.477 418.629C310.931 419.884 311.127 421.218 311.054 422.55V432.273C311.258 434.864 310.472 437.435 308.854 439.47ZM297.854 436.064C298.261 436.516 298.754 436.884 299.304 437.146C299.853 437.407 300.45 437.558 301.058 437.588C301.666 437.619 302.274 437.529 302.848 437.324C303.421 437.119 303.948 436.803 304.399 436.393L304.729 436.064C305.501 434.98 305.853 433.652 305.719 432.328V422.44C305.843 421.27 305.505 420.097 304.775 419.173C304.045 418.249 302.982 417.647 301.814 417.496H301.209C300.562 417.518 299.927 417.67 299.341 417.944C298.754 418.218 298.23 418.607 297.799 419.089C297.097 420.121 296.767 421.361 296.864 422.605V431.779C296.781 433.225 297.231 434.652 298.129 435.789L297.854 436.064Z" fill="#F5F7F7"/>
<path d="M273.819 417.936V413.102H282.564V441.667H277.394V417.936H273.819Z" fill="#F5F7F7"/>
<path d="M327.993 375.417V370.528H336.738V399.148H331.568V375.417H327.993Z" fill="#F5F7F7"/>
<path d="M319.083 396.622C318.179 397.616 317.074 398.409 315.842 398.948C314.61 399.488 313.278 399.762 311.933 399.753C309.282 399.808 306.714 398.822 304.784 397.006C303.827 396.015 303.096 394.83 302.64 393.531C302.185 392.232 302.015 390.85 302.144 389.48V380.032C302.007 378.72 302.156 377.394 302.581 376.146C303.007 374.898 303.698 373.757 304.608 372.801C305.517 371.845 306.624 371.098 307.85 370.611C309.077 370.124 310.395 369.908 311.713 369.979C312.927 369.957 314.133 370.174 315.262 370.618C316.391 371.061 317.422 371.723 318.296 372.565C319.169 373.407 319.868 374.412 320.352 375.523C320.836 376.635 321.097 377.831 321.118 379.043C321.173 379.425 321.173 379.814 321.118 380.196V389.865C321.3 392.291 320.575 394.698 319.083 396.622ZM308.083 393.216C308.958 394.146 310.162 394.698 311.438 394.754C312.107 394.765 312.769 394.628 313.378 394.353C313.986 394.077 314.526 393.67 314.958 393.161C315.73 392.076 316.082 390.749 315.948 389.425V379.922C316.073 378.751 315.734 377.579 315.004 376.655C314.275 375.731 313.212 375.129 312.043 374.978H311.438C310.789 374.986 310.149 375.132 309.561 375.407C308.973 375.681 308.451 376.078 308.028 376.571C307.326 377.603 306.996 378.843 307.093 380.087V389.315C306.951 390.759 307.386 392.201 308.303 393.325L308.083 393.216Z" fill="#F5F7F7"/>
<path d="M275.855 481.714C274.942 482.698 273.836 483.483 272.606 484.022C271.376 484.561 270.048 484.841 268.705 484.845C266.047 484.88 263.481 483.874 261.556 482.043C260.6 481.063 259.87 479.887 259.414 478.597C258.958 477.308 258.788 475.934 258.916 474.572V465.069C258.806 462.574 259.585 460.121 261.116 458.147C262.439 456.612 264.212 455.531 266.184 455.057C268.156 454.583 270.227 454.739 272.105 455.504C273.983 456.269 275.573 457.604 276.65 459.32C277.728 461.036 278.238 463.047 278.11 465.069V474.792C278.245 477.299 277.441 479.766 275.855 481.714ZM264.855 478.308C265.73 479.238 266.934 479.79 268.21 479.846C268.879 479.857 269.541 479.72 270.15 479.445C270.759 479.169 271.298 478.762 271.73 478.253C272.515 477.154 272.868 475.804 272.72 474.462V464.739C272.828 463.561 272.467 462.388 271.716 461.473C270.965 460.558 269.883 459.975 268.705 459.85H268.21C267.561 459.858 266.921 460.004 266.333 460.279C265.745 460.554 265.223 460.951 264.8 461.443C264.098 462.475 263.768 463.715 263.865 464.959V474.188C263.802 474.932 263.892 475.681 264.128 476.389C264.364 477.098 264.743 477.75 265.24 478.308H264.855Z" fill="#F5F7F7"/>
<path d="M285.093 460.509V455.62H293.893V484.185H288.723V460.509H285.093Z" fill="#F5F7F7"/>
<path d="M320.182 481.714C319.279 482.696 318.183 483.482 316.962 484.02C315.741 484.559 314.422 484.84 313.087 484.845C310.411 484.889 307.824 483.883 305.882 482.044C304.927 481.063 304.196 479.888 303.74 478.598C303.285 477.308 303.115 475.934 303.242 474.573V465.069C303.12 463.11 303.602 461.16 304.621 459.483C305.641 457.805 307.151 456.479 308.948 455.683C310.744 454.888 312.742 454.661 314.671 455.032C316.601 455.404 318.37 456.357 319.742 457.763C320.661 458.734 321.37 459.884 321.824 461.141C322.278 462.398 322.468 463.735 322.382 465.069V474.792C322.559 477.295 321.772 479.772 320.182 481.714ZM309.182 478.308C309.616 478.783 310.142 479.164 310.728 479.428C311.315 479.693 311.949 479.835 312.592 479.846C313.252 479.857 313.907 479.72 314.506 479.444C315.106 479.168 315.636 478.761 316.057 478.253C316.842 477.154 317.194 475.805 317.047 474.463V464.739C317.17 463.567 316.822 462.393 316.08 461.476C315.337 460.56 314.261 459.975 313.087 459.85C312.355 459.768 311.613 459.871 310.931 460.149C310.249 460.427 309.647 460.872 309.182 461.443C308.46 462.468 308.111 463.709 308.192 464.959V474.188C308.107 474.921 308.17 475.663 308.377 476.371C308.585 477.079 308.934 477.738 309.402 478.308H309.182Z" fill="#F5F7F7"/>
<path d="M426.823 544.997V540.108H435.623V568.674H430.453V544.997H426.823Z" fill="#F5F7F7"/>
<path d="M451.849 503.193V498.303H460.594V526.924H455.479V503.193H451.849Z" fill="#F5F7F7"/>
<path d="M442.774 524.232C441.874 525.237 440.772 526.04 439.54 526.589C438.308 527.138 436.973 527.421 435.624 527.418C432.966 527.453 430.399 526.448 428.474 524.617C427.511 523.63 426.776 522.446 426.32 521.146C425.864 519.846 425.698 518.462 425.834 517.091V507.642C425.696 506.34 425.843 505.024 426.266 503.785C426.689 502.546 427.377 501.414 428.283 500.467C429.189 499.521 430.29 498.783 431.51 498.305C432.731 497.827 434.04 497.62 435.349 497.699C437.941 497.698 440.438 498.679 442.334 500.446C443.235 501.427 443.928 502.58 444.373 503.836C444.817 505.091 445.002 506.423 444.919 507.752V517.421C445.083 519.879 444.318 522.31 442.774 524.232ZM431.774 520.881C432.654 521.796 433.859 522.329 435.129 522.365C435.797 522.376 436.46 522.239 437.068 521.964C437.677 521.688 438.217 521.281 438.649 520.772C439.421 519.687 439.773 518.36 439.639 517.036V507.532C439.763 506.362 439.425 505.19 438.695 504.266C437.965 503.342 436.902 502.74 435.734 502.588H435.129C434.48 502.597 433.84 502.743 433.252 503.018C432.664 503.292 432.141 503.689 431.719 504.182C431.017 505.213 430.687 506.453 430.784 507.697V516.926C430.656 518.352 431.09 519.771 431.994 520.881H431.774Z" fill="#F5F7F7"/>
<path d="M407.85 503.193V498.303H416.595V526.924H411.425V503.193H407.85Z" fill="#F5F7F7"/>
<path d="M461.363 417.936V413.102H470.163V441.667H464.993V417.936H461.363Z" fill="#F5F7F7"/>
<path d="M452.288 439.47C451.371 440.449 450.264 441.231 449.035 441.769C447.806 442.308 446.48 442.591 445.138 442.601C442.48 442.636 439.914 441.631 437.988 439.8C437.033 438.819 436.302 437.644 435.846 436.354C435.391 435.064 435.221 433.691 435.348 432.329V422.55C435.334 421.266 435.573 419.992 436.051 418.8C436.53 417.608 437.239 416.522 438.138 415.604C439.036 414.686 440.108 413.953 441.29 413.449C442.472 412.944 443.742 412.677 445.028 412.662C447.561 412.605 450.014 413.553 451.848 415.299C452.756 416.278 453.458 417.429 453.911 418.684C454.365 419.939 454.561 421.273 454.488 422.605V432.329C454.672 434.9 453.888 437.447 452.288 439.47ZM441.288 436.064C441.695 436.517 442.188 436.884 442.738 437.146C443.287 437.407 443.884 437.558 444.492 437.589C445.1 437.619 445.708 437.529 446.282 437.324C446.855 437.119 447.382 436.803 447.833 436.394L448.163 436.064C448.935 434.98 449.287 433.652 449.153 432.329V422.441C449.278 421.27 448.939 420.098 448.209 419.174C447.479 418.25 446.416 417.648 445.248 417.497H444.643C443.996 417.518 443.361 417.67 442.775 417.944C442.188 418.218 441.664 418.608 441.233 419.09C440.531 420.121 440.201 421.361 440.298 422.605V431.779C440.195 433.219 440.625 434.646 441.508 435.789L441.288 436.064Z" fill="#F5F7F7"/>
<path d="M417.199 417.936V413.102H425.943V441.667H420.829V417.936H417.199Z" fill="#F5F7F7"/>
<path d="M430.948 375.417V370.528H439.693V399.148H434.578V375.417H430.948Z" fill="#F5F7F7"/>
<path d="M421.874 396.621C420.961 397.605 419.855 398.391 418.625 398.929C417.395 399.468 416.067 399.748 414.724 399.752C412.073 399.808 409.505 398.822 407.575 397.006C406.618 396.015 405.887 394.83 405.431 393.531C404.976 392.232 404.806 390.85 404.935 389.48V380.031C404.763 377.529 405.549 375.055 407.135 373.11C408.073 372.098 409.214 371.296 410.484 370.757C411.754 370.217 413.124 369.952 414.504 369.978C416.962 369.828 419.378 370.657 421.224 372.285C423.069 373.912 424.193 376.204 424.349 378.658C424.407 379.114 424.407 379.575 424.349 380.031V389.7C424.428 392.236 423.544 394.709 421.874 396.621ZM410.875 393.215C411.749 394.146 412.953 394.698 414.229 394.753C414.89 394.765 415.544 394.627 416.144 394.351C416.743 394.076 417.273 393.669 417.694 393.16C418.486 392.084 418.857 390.756 418.739 389.425V379.921C418.864 378.751 418.525 377.579 417.795 376.655C417.066 375.731 416.003 375.129 414.834 374.977H414.229C413.58 374.985 412.94 375.132 412.352 375.406C411.764 375.681 411.242 376.078 410.82 376.57C410.098 377.595 409.748 378.836 409.83 380.086V389.315C409.766 390.034 409.846 390.758 410.063 391.446C410.28 392.134 410.63 392.772 411.095 393.325L410.875 393.215Z" fill="#F5F7F7"/>
<path d="M438.428 481.714C437.534 482.707 436.439 483.499 435.217 484.039C433.994 484.579 432.67 484.854 431.333 484.845C428.657 484.889 426.071 483.883 424.128 482.044C423.173 481.063 422.442 479.888 421.987 478.598C421.531 477.308 421.361 475.934 421.488 474.573V465.069C421.366 463.11 421.848 461.16 422.868 459.483C423.887 457.805 425.397 456.479 427.194 455.683C428.99 454.888 430.988 454.661 432.917 455.032C434.847 455.404 436.616 456.357 437.988 457.763C438.907 458.734 439.616 459.884 440.07 461.141C440.524 462.398 440.714 463.735 440.628 465.069V474.792C440.806 477.295 440.018 479.772 438.428 481.714ZM427.428 478.308C427.862 478.783 428.388 479.164 428.974 479.428C429.561 479.693 430.195 479.835 430.838 479.846C431.498 479.857 432.153 479.72 432.752 479.444C433.352 479.168 433.882 478.761 434.303 478.253C435.088 477.154 435.44 475.805 435.293 474.463V464.739C435.418 463.584 435.085 462.425 434.365 461.511C433.646 460.598 432.597 460.001 431.443 459.85H430.838C430.188 459.851 429.545 459.994 428.956 460.269C428.367 460.545 427.846 460.945 427.428 461.443C426.706 462.468 426.357 463.709 426.438 464.959V474.188C426.328 475.662 426.758 477.127 427.648 478.308H427.428Z" fill="#F5F7F7"/>
<path d="M447.558 460.509V455.62H456.577V484.185H451.078V460.509H447.558Z" fill="#F5F7F7"/>
<path d="M482.647 481.714C481.734 482.698 480.628 483.483 479.398 484.022C478.168 484.561 476.84 484.841 475.497 484.845C472.839 484.88 470.272 483.874 468.347 482.043C467.392 481.063 466.661 479.888 466.205 478.598C465.75 477.308 465.58 475.934 465.707 474.572V465.069C465.597 462.574 466.377 460.122 467.907 458.147C468.847 457.139 469.989 456.339 471.259 455.799C472.528 455.26 473.897 454.993 475.277 455.016C477.869 455.014 480.366 455.996 482.262 457.763C483.163 458.744 483.856 459.897 484.3 461.152C484.745 462.408 484.93 463.74 484.846 465.069V474.792C485.019 477.295 484.232 479.769 482.647 481.714ZM471.647 478.308C472.521 479.238 473.725 479.79 475.002 479.846C475.662 479.857 476.316 479.72 476.916 479.444C477.516 479.168 478.046 478.761 478.467 478.253C479.271 477.162 479.643 475.812 479.512 474.463V464.739C479.619 463.561 479.259 462.388 478.507 461.473C477.756 460.558 476.675 459.975 475.497 459.85H475.002C474.353 459.858 473.713 460.005 473.125 460.279C472.537 460.554 472.014 460.951 471.592 461.443C470.87 462.468 470.521 463.709 470.602 464.959V474.188C470.524 474.924 470.596 475.669 470.813 476.377C471.03 477.085 471.389 477.742 471.867 478.308H471.647Z" fill="#F5F7F7"/>
<path d="M357.196 354.103C356.302 355.096 355.208 355.888 353.985 356.428C352.762 356.968 351.438 357.242 350.101 357.234C347.443 357.269 344.877 356.263 342.952 354.432C341.996 353.452 341.266 352.276 340.81 350.986C340.354 349.696 340.184 348.323 340.312 346.961V337.458C340.177 334.96 340.959 332.499 342.512 330.536C344.365 328.605 346.905 327.482 349.582 327.41C352.259 327.338 354.857 328.323 356.811 330.152C357.73 331.123 358.439 332.273 358.893 333.53C359.348 334.787 359.537 336.124 359.451 337.458V347.181C359.614 349.691 358.807 352.168 357.196 354.103ZM346.196 350.697C346.62 351.185 347.143 351.577 347.732 351.846C348.32 352.114 348.96 352.253 349.606 352.253C350.253 352.253 350.893 352.114 351.481 351.846C352.069 351.577 352.593 351.185 353.016 350.697C353.821 349.605 354.193 348.255 354.061 346.906V337.348C354.169 336.17 353.808 334.996 353.057 334.081C352.306 333.167 351.224 332.584 350.046 332.459H349.551C348.902 332.467 348.262 332.613 347.674 332.888C347.086 333.163 346.564 333.559 346.141 334.052C345.42 335.077 345.07 336.317 345.152 337.568V346.796C345.069 348.218 345.542 349.617 346.471 350.697H346.196Z" fill="#F5F7F7"/>
<path d="M366.325 332.898V328.009H374.85V356.575H369.735V332.898H366.325Z" fill="#F5F7F7"/>
<path d="M401.58 354.103C400.667 355.087 399.561 355.873 398.331 356.411C397.101 356.95 395.773 357.23 394.43 357.234C391.772 357.269 389.206 356.263 387.281 354.433C386.325 353.452 385.595 352.277 385.139 350.987C384.683 349.697 384.513 348.324 384.641 346.962V337.458C384.506 334.96 385.288 332.499 386.841 330.536C387.789 329.539 388.933 328.746 390.2 328.207C391.468 327.669 392.833 327.396 394.21 327.405C395.429 327.354 396.645 327.544 397.789 327.964C398.933 328.384 399.983 329.026 400.878 329.853C401.772 330.681 402.494 331.677 403.002 332.784C403.509 333.891 403.793 335.087 403.835 336.304C403.89 336.687 403.89 337.075 403.835 337.458V347.181C403.998 349.692 403.191 352.169 401.58 354.103ZM390.581 350.697C391.455 351.627 392.659 352.179 393.935 352.235C394.604 352.247 395.266 352.11 395.875 351.834C396.484 351.559 397.023 351.152 397.455 350.642C398.24 349.543 398.593 348.194 398.445 346.852V337.348C398.553 336.17 398.192 334.997 397.441 334.082C396.69 333.167 395.608 332.584 394.43 332.459H393.935C393.286 332.467 392.646 332.614 392.058 332.888C391.47 333.163 390.948 333.56 390.526 334.052C389.823 335.084 389.493 336.324 389.591 337.568V346.797C389.477 348.204 389.911 349.601 390.801 350.697H390.581Z" fill="#F5F7F7"/>
<path d="M357.196 604.655C356.294 605.638 355.197 606.423 353.977 606.962C352.756 607.501 351.436 607.781 350.101 607.786C347.443 607.821 344.877 606.816 342.952 604.985C341.996 604.005 341.266 602.829 340.81 601.539C340.354 600.249 340.184 598.876 340.312 597.514V587.791C340.248 585.855 340.765 583.944 341.795 582.304C342.826 580.663 344.323 579.367 346.096 578.582C347.868 577.797 349.835 577.559 351.744 577.898C353.654 578.237 355.418 579.138 356.811 580.484C357.73 581.456 358.439 582.606 358.893 583.863C359.348 585.12 359.537 586.457 359.451 587.791V597.514C359.672 600.098 358.861 602.665 357.196 604.655ZM346.197 601.249C346.625 601.712 347.143 602.083 347.72 602.338C348.297 602.593 348.92 602.727 349.551 602.733C350.212 602.744 350.866 602.606 351.466 602.331C352.066 602.055 352.595 601.648 353.016 601.139C353.808 600.063 354.179 598.735 354.061 597.404V587.791C354.186 586.62 353.847 585.448 353.117 584.524C352.388 583.6 351.325 582.998 350.156 582.847H349.551C348.905 582.868 348.269 583.02 347.683 583.294C347.097 583.568 346.573 583.958 346.141 584.44C345.42 585.465 345.07 586.705 345.152 587.955V597.239C345.106 598.656 345.575 600.041 346.471 601.139L346.197 601.249Z" fill="#F5F7F7"/>
<path d="M366.325 583.396V578.562H374.85V607.127H369.735V583.396H366.325Z" fill="#F5F7F7"/>
<path d="M401.579 604.655C400.662 605.634 399.555 606.416 398.326 606.955C397.097 607.493 395.771 607.776 394.429 607.787C391.771 607.822 389.205 606.816 387.28 604.985C386.324 604.005 385.594 602.829 385.138 601.539C384.682 600.249 384.512 598.876 384.64 597.514V587.791C384.51 586.599 384.619 585.394 384.959 584.245C385.299 583.096 385.864 582.025 386.621 581.095C387.378 580.166 388.312 579.395 389.369 578.828C390.426 578.261 391.585 577.909 392.779 577.793H394.209C395.427 577.741 396.644 577.931 397.788 578.351C398.932 578.772 399.982 579.414 400.877 580.241C401.771 581.068 402.493 582.064 403.001 583.171C403.508 584.279 403.792 585.475 403.834 586.692C403.889 587.075 403.889 587.463 403.834 587.846V597.569C404.04 600.135 403.23 602.679 401.579 604.655ZM390.58 601.25C390.987 601.702 391.479 602.07 392.029 602.331C392.579 602.593 393.175 602.743 393.783 602.774C394.391 602.805 395 602.715 395.573 602.51C396.147 602.305 396.674 601.988 397.124 601.579L397.454 601.25C398.226 600.165 398.578 598.838 398.444 597.514V587.791C398.569 586.621 398.23 585.448 397.5 584.524C396.771 583.6 395.708 582.998 394.539 582.847H393.934C393.288 582.868 392.652 583.021 392.066 583.294C391.48 583.568 390.956 583.958 390.525 584.44C389.822 585.472 389.492 586.712 389.59 587.956V597.239C389.54 598.605 389.967 599.945 390.8 601.03L390.58 601.25Z" fill="#F5F7F7"/>
</svg>
