<svg width="66" height="70" viewBox="0 0 66 70" fill="none" xmlns="http://www.w3.org/2000/svg">
<path d="M48.7977 50.5983L46.9185 51.2786L47.6002 53.1536L49.4794 52.4734L48.7977 50.5983Z" fill="white"/>
<path d="M54.2339 31.6933C57.7655 32.4915 64.7476 29.4204 65.1373 21.6163L54.4207 27.7585C54.4104 27.1671 54.3806 26.6012 54.3439 26.0693C59.0345 25.3256 66.136 18.6413 63.7481 11.0823C58.6243 23.3012 43.5104 21.8801 43.2085 31.4006C46.6199 31.3155 47.1179 36.4816 43.8507 37.1199C43.1636 35.0211 41.8988 33.1574 40.2006 31.7418V29.3583H38.958C37.5671 25.9987 37.8374 21.0751 41.5046 19.7127C42.8529 18.8787 43.1761 16.1965 44.8724 15.3728C41.2462 13.8709 37.9918 17.0194 34.4261 16.7709C34.682 17.33 35.1613 17.8261 35.7719 17.9955C34.0551 19.9807 33.3396 23.2203 33.2799 26.02C32.8336 25.9594 32.3812 25.9566 31.9342 26.0115C31.8796 23.1684 31.1666 19.8727 29.4413 17.8542C30.052 17.684 30.5304 17.1802 30.7871 16.6143C27.2214 16.8696 23.9645 13.676 20.3408 15.1984C22.0371 16.0357 22.3603 18.7511 23.7086 19.5953C27.3758 20.9747 27.6461 25.9596 26.2543 29.3608H24.9358V31.7435C23.2382 33.1594 21.9737 35.023 21.2866 37.1216C18.0194 36.4833 18.5175 31.3172 21.9288 31.4023C21.626 21.8801 6.51305 23.3012 1.38926 11.0823C-0.998662 18.6413 6.10625 25.3256 10.7925 26.0693C10.7559 26.6012 10.726 27.1671 10.7166 27.7585L0 21.6146C0.389743 29.4187 7.37185 32.4898 10.9026 31.6916C10.9631 32.1903 11.0356 32.6889 11.126 33.2046L1.23319 30.1267C3.76183 36.9505 9.59091 38.1538 12.0394 36.731C12.1792 37.1332 12.3336 37.5354 12.5025 37.9376L4.66071 37.5122C8.32787 42.777 12.656 42.7932 14.2678 41.1985C14.4478 41.464 14.6345 41.7303 14.8307 41.989L9.32482 43.3923C13.322 47.0744 16.3897 46.363 17.3192 44.7215C17.4958 44.878 17.6757 45.0338 17.8591 45.1869L14.4844 47.5798C18.2753 49.8264 20.3041 48.7269 20.6802 47.168L21.1169 47.4173L19.4743 50.1404C22.5658 51.1615 23.805 50.0672 23.898 48.7473C23.9884 48.8435 24.0813 48.9397 24.1751 49.0299C24.5222 50.2637 22.1914 52.1197 21.9927 52.1605C22.924 52.2669 23.8229 51.9665 24.6774 51.6287V52.0482C24.4156 53.5757 21.7002 53.9271 20.3596 54.1228C20.0772 53.8215 19.7147 53.6067 19.3145 53.5035C18.9143 53.4003 18.4929 53.4129 18.0996 53.5399C17.0694 52.683 11.5226 48.0547 11.4765 48.0291C10.5469 47.2888 9.40329 48.7627 10.3542 49.4758L16.7504 54.7755C16.5687 55.2061 16.5306 55.6837 16.6416 56.1376C16.7527 56.5915 17.0071 56.9977 17.3673 57.2963C17.7274 57.5949 18.1743 57.7701 18.6418 57.7959C19.1094 57.8218 19.5728 57.697 19.9639 57.4399C20.4227 57.8262 21.5527 58.7793 21.609 58.8201C22.536 59.563 23.6839 58.0925 22.7347 57.3735L21.1894 56.0902C23.851 54.5883 26.0061 54.0097 27.6709 53.5135C25.3034 55.121 23.4425 59.0175 25.3324 61.5883L25.4629 61.3551C25.3981 61.4402 26.598 59.2737 27.6248 57.7811C27.9907 57.2399 28.3975 56.7149 28.7642 56.2026C26.8317 59.2541 25.9737 65.1895 28.8904 66.6523C28.9254 66.4821 30.4758 59.4745 30.5108 59.3035C29.8712 63.1123 30.2157 68.0845 32.5644 70C34.9165 68.0921 35.2619 63.12 34.6248 59.312C34.6624 59.4822 36.2128 66.4932 36.2452 66.6608C39.161 65.198 38.3031 59.2626 36.3714 56.2111C36.7381 56.7217 37.1441 57.2484 37.5108 57.7896C38.5342 59.2813 39.7367 61.4487 39.6727 61.3636L39.8023 61.5968C41.6931 59.026 39.8322 55.1295 37.4639 53.5221C38.3022 53.7714 39.2642 54.042 40.3516 54.4402C41.7206 54.9663 42.9413 55.816 43.9087 56.9165C44.6601 57.7981 45.6476 58.3691 47.0215 58.284C48.5404 58.1904 49.8521 57.0791 50.0013 55.5678C50.078 54.7822 49.8774 53.9946 49.4342 53.3408L47.871 53.9067L47.1213 54.1781L46.8493 53.4293L46.2821 51.8703C45.6898 51.9312 45.124 52.1468 44.6418 52.4953C44.1595 52.8439 43.7778 53.3131 43.5352 53.8556C42.2952 53.5833 40.6356 53.0898 40.4573 52.0542V51.6346C41.3102 51.975 42.2116 52.2729 43.142 52.1665C42.9442 52.1256 40.6134 50.2697 40.9605 49.0358C41.0535 48.9456 41.1473 48.8494 41.2368 48.7533C41.3306 50.0731 42.5698 51.1666 45.6604 50.1463L44.0187 47.4232L44.4545 47.1739C44.8315 48.7329 46.8595 49.8323 50.6503 47.5858L47.2757 45.1861C47.459 45.0329 47.6381 44.8772 47.8147 44.7206C48.7443 46.3621 51.8127 47.0735 55.8099 43.3914L50.3032 41.9882C50.5002 41.7329 50.6861 41.4631 50.8661 41.1976C52.4788 42.7923 56.8095 42.7762 60.4732 37.5113L52.6323 37.9368C52.8029 37.5343 52.9547 37.1326 53.0945 36.7301C55.5396 38.1529 61.3729 36.9497 63.9016 30.1258L54.0088 33.2038C54.1009 32.6906 54.1742 32.192 54.2339 31.6933ZM38.9273 49.3013V51.1045H37.8374C36.4234 53.1519 34.583 54.3917 32.5687 54.3917C30.5543 54.3917 28.7139 53.1519 27.299 51.1045H26.2091V49.3013C24.8929 48.3161 23.8246 47.0387 23.0888 45.5702C22.353 44.1017 21.97 42.4825 21.97 40.8407C21.97 39.1989 22.353 37.5796 23.0888 36.1111C23.8246 34.6426 24.8929 33.3652 26.2091 32.38V30.6781H27.2282C28.6516 28.5694 30.5202 27.2879 32.5687 27.2879C34.6172 27.2879 36.4848 28.5694 37.9082 30.6781H38.9273V32.38C40.2439 33.365 41.3125 34.6424 42.0485 36.1109C42.7844 37.5794 43.1676 39.1988 43.1676 40.8407C43.1676 42.4826 42.7844 44.1019 42.0485 45.5705C41.3125 47.039 40.2439 48.3163 38.9273 49.3013Z" fill="white"/>
<path d="M17.5992 16.8337C19.0891 16.4006 21.1606 17.9085 20.932 18.3331C20.7035 18.7577 19.8532 18.4029 17.983 17.7502C18.7104 19.0683 21.1052 19.7142 22.8441 19.7074C21.8122 18.7713 21.4915 17.22 20.5747 16.2261C20.1304 15.7241 19.42 15.4603 18.852 15.5224C18.1314 15.6049 17.5915 16.1598 17.5992 16.8337Z" fill="white"/>
<path d="M48.0848 13.0597C48.4123 13.3722 48.7863 13.6323 49.1935 13.8306L49.254 13.8553C49.027 14.108 48.7692 14.3313 48.4865 14.5199C48.233 14.6946 47.9661 14.8492 47.6882 14.982C47.9002 15.0902 48.089 15.2384 48.2443 15.4185C48.5209 15.7516 48.6742 16.1696 48.6784 16.6022C48.9866 16.4363 49.284 16.251 49.5687 16.0474C50.2002 15.5919 50.7362 15.0175 51.1464 14.3565L51.3972 13.846L51.1464 14.3565C51.3372 14.3701 51.5288 14.3701 51.7195 14.3565C52.1456 14.3056 52.5619 14.1929 52.9553 14.0221C53.285 13.8873 53.6242 13.7769 53.9702 13.6919C54.5991 13.5819 55.2462 13.7195 55.7756 14.0757L56.3632 12.3985C55.9139 12.3411 55.4606 12.3212 55.008 12.3389C54.5506 12.3631 54.1006 12.4641 53.6768 12.6376C53.3069 12.7964 52.9497 12.983 52.6082 13.1958C52.2986 13.381 51.9607 13.5141 51.6078 13.5898H51.5225C51.9446 12.6021 51.9952 11.4956 51.665 10.4736C51.4618 9.85088 51.0614 9.31091 50.5239 8.93508C50.2181 8.72337 49.8682 8.58371 49.5005 8.52662C49.1296 8.46634 48.7494 8.50179 48.3961 8.62958C48.0436 8.75673 47.732 8.97627 47.494 9.26512C47.256 9.55397 47.1004 9.90147 47.0435 10.2711C46.9561 10.817 47.0302 11.3765 47.2567 11.8811C47.4585 12.321 47.7391 12.7204 48.0848 13.0597ZM48.1914 10.6115C48.2258 10.4664 48.2989 10.3334 48.403 10.2264C48.507 10.1194 48.6381 10.0425 48.7824 10.0039C48.9278 9.97379 49.078 9.97563 49.2227 10.0093C49.3673 10.0429 49.5028 10.1076 49.6199 10.1987C49.8624 10.403 50.0353 10.6775 50.1145 10.9842C50.2882 11.6559 50.2042 12.3682 49.8791 12.9814C49.8261 13.0961 49.7643 13.2065 49.6941 13.3116L49.5517 13.2477C49.2313 13.0809 48.9461 12.8541 48.7116 12.5797C48.4749 12.3132 48.303 11.9958 48.2093 11.6522C48.1058 11.3138 48.0996 10.9532 48.1914 10.6115Z" fill="white"/>
<path d="M11.2171 13.6919C11.5631 13.777 11.9023 13.8874 12.232 14.0221C12.6252 14.1928 13.0412 14.3055 13.4669 14.3565C13.658 14.3701 13.8498 14.3701 14.0409 14.3565L13.7893 13.846L14.0409 14.3565C14.4508 15.0175 14.9865 15.5919 15.6177 16.0474C15.9024 16.251 16.1998 16.4363 16.5081 16.6022C16.5121 16.1694 16.6657 15.7513 16.943 15.4185C17.098 15.2385 17.2865 15.0902 17.4982 14.982C17.2205 14.8493 16.9539 14.6948 16.7008 14.5199C16.418 14.3315 16.1601 14.1082 15.9333 13.8553L15.9938 13.8306C16.4009 13.632 16.7749 13.372 17.1025 13.0597C17.4485 12.7213 17.7297 12.3228 17.9323 11.8836C18.1585 11.379 18.2325 10.8196 18.1455 10.2736C18.0884 9.90398 17.9326 9.5565 17.6944 9.26767C17.4563 8.97884 17.1446 8.75931 16.7921 8.63213C16.4401 8.50492 16.0614 8.46948 15.6919 8.52917C15.3243 8.58652 14.9744 8.72616 14.6685 8.93763C14.1319 9.31395 13.7321 9.85381 13.5292 10.4762C13.1998 11.4982 13.2504 12.6044 13.6716 13.5924H13.5863C13.2334 13.5168 12.8954 13.3837 12.5859 13.1984C12.2429 12.9856 11.8843 12.799 11.5131 12.6401C11.0878 12.4652 10.636 12.3634 10.1767 12.3389C9.72502 12.3204 9.27259 12.3395 8.8241 12.3959L9.4117 14.0732C9.94136 13.7177 10.5886 13.581 11.2171 13.6919ZM15.0736 10.9842C15.1522 10.6772 15.3252 10.4026 15.5683 10.1987C15.6852 10.1077 15.8206 10.0431 15.9651 10.0095C16.1096 9.97583 16.2596 9.97392 16.4049 10.0039C16.5493 10.0423 16.6805 10.1191 16.7846 10.2261C16.8887 10.3331 16.9617 10.4663 16.9959 10.6115C17.0886 10.9531 17.0824 11.3139 16.978 11.6522C16.8846 11.9958 16.713 12.3132 16.4765 12.5797C16.2415 12.8539 15.9561 13.0806 15.6356 13.2477L15.4932 13.3115C15.4237 13.2061 15.3618 13.0957 15.3082 12.9814C14.9834 12.368 14.8997 11.6558 15.0736 10.9842Z" fill="white"/>
<path d="M34.4599 2.10612L32.6075 0L30.7296 2.10612L32.6075 4.21139L34.4599 2.10612Z" fill="white"/>
<path d="M29.0747 10.1173H29.9343C29.8951 10.3522 29.8381 10.5838 29.7638 10.81C29.5432 11.4684 29.2228 12.0891 28.8137 12.6506C28.1624 13.503 27.3297 14.2006 26.3755 14.6929L26.6979 14.8053C27.3068 15.0189 27.8995 15.2256 28.4828 15.3848C29.1195 14.9454 29.687 14.4136 30.1663 13.8071C30.7193 13.1272 31.1682 12.3693 31.4984 11.558C31.6946 11.0933 31.8376 10.608 31.9248 10.1114H33.2604C33.5094 11.4653 34.155 12.7366 35.0189 13.8028C35.5519 14.4564 35.9903 14.9091 36.6683 15.3822C37.3633 15.1967 38.0959 14.9295 38.8106 14.681C37.8641 14.1873 37.0379 13.4921 36.3903 12.6447C35.9815 12.0835 35.6595 11.4641 35.4351 10.8075C35.3623 10.5808 35.3053 10.3493 35.2645 10.1148H36.1259C36.6599 9.27195 37.1506 8.40257 37.5962 7.51001C38.6682 4.80907 37.3147 3.71899 35.3353 3.71899L32.6063 6.71011L29.8772 3.73601C27.8969 3.73601 26.5512 4.82694 27.6198 7.52448C28.0578 8.41416 28.5435 9.2797 29.0747 10.1173Z" fill="white"/>
<path d="M38.0983 12.6369C38.425 13.296 38.7854 13.9379 39.178 14.5601C40.3336 14.1669 41.5276 13.8197 42.7889 13.8197C43.4251 13.8174 44.0579 13.9127 44.6651 14.1023C44.9528 13.6263 45.2189 13.1401 45.4634 12.6437C46.2556 10.6491 45.257 9.85428 43.7978 9.85428L41.7791 12.0515L39.7835 9.85428C38.3081 9.84832 37.3086 10.6525 38.0983 12.6369Z" fill="white"/>
<path d="M43.1614 8.85762L41.7824 7.34888L40.4068 8.85762L41.7824 10.4566L43.1614 8.85762Z" fill="white"/>
<path d="M20.5288 14.1023C21.136 13.9128 21.7688 13.8175 22.4051 13.8197C23.6655 13.8197 24.8595 14.1669 26.0151 14.5601C26.4077 13.9379 26.7681 13.296 27.0948 12.6369C27.8845 10.6525 26.885 9.84832 25.4062 9.85428L23.4105 12.0515L21.3962 9.85428C19.9378 9.85428 18.9383 10.6491 19.7306 12.6437C19.9762 13.1395 20.2423 13.6257 20.5288 14.1023Z" fill="white"/>
<path d="M24.7905 8.85762L23.4141 7.34888L22.035 8.85762L23.4141 10.4566L24.7905 8.85762Z" fill="white"/>
<path d="M9.5945 45.9828L7.59869 46.165L7.78138 48.1565L9.77719 47.9742L9.5945 45.9828Z" fill="white"/>
<path d="M42.3685 19.8272C44.1091 19.8323 46.5038 19.1949 47.2296 17.8921C45.3593 18.5371 44.5099 18.8869 44.2805 18.4682C44.0511 18.0495 46.1235 16.5595 47.6133 16.9875C47.621 16.3221 47.0812 15.7732 46.3588 15.6941C45.7909 15.632 45.0796 15.8932 44.6361 16.3885C43.7211 17.3705 43.4004 18.9064 42.3685 19.8272Z" fill="white"/>
<path d="M36.3165 39.2427C36.089 39.4907 35.8124 39.6889 35.5041 39.8245C35.1957 39.9602 34.8625 40.0304 34.5256 40.0307C33.8559 40.0404 33.2088 39.7891 32.7218 39.3303C32.1658 38.8147 32.0583 38.162 32.0583 37.4429V35.0594C32.0583 34.4271 32.1846 33.8042 32.6144 33.3175C33.0724 32.8018 33.7845 32.5295 34.4676 32.5295C35.1208 32.5212 35.7511 32.7694 36.2227 33.2205C36.7301 33.7166 36.8862 34.3786 36.8862 35.0594V37.5025C36.8819 38.1433 36.7566 38.7466 36.3165 39.2427ZM33.6011 38.3866C33.7091 38.5044 33.84 38.5988 33.986 38.6641C34.1319 38.7294 34.2898 38.7641 34.4497 38.7662C34.6165 38.7684 34.7818 38.7337 34.9337 38.6647C35.0855 38.5957 35.2202 38.4941 35.3281 38.3671C35.5524 38.0948 35.5839 37.7637 35.5839 37.4234V35.0288C35.5839 34.3378 35.184 33.7932 34.4522 33.7932C34.2892 33.7953 34.1284 33.8319 33.9805 33.9006C33.8326 33.9692 33.701 34.0683 33.5943 34.1914C33.3896 34.4646 33.3504 34.7565 33.3504 35.0773V37.4038C33.3512 37.7442 33.3709 38.1135 33.6011 38.3866Z" fill="white"/>
<path d="M32.5172 48.365C32.2898 48.6133 32.0132 48.8116 31.7049 48.9474C31.3966 49.0832 31.0633 49.1535 30.7262 49.1538C30.0564 49.1629 29.4093 48.9118 28.9217 48.4535C28.3656 47.9378 28.259 47.2851 28.259 46.5652V44.1825C28.259 43.5494 28.3852 42.9265 28.8151 42.4406C29.273 41.9241 29.9851 41.6518 30.6683 41.6518C31.3214 41.6441 31.9515 41.8922 32.4234 42.3428C32.9308 42.8389 33.0869 43.5009 33.0869 44.1825V46.6239C33.0834 47.2664 32.9564 47.8697 32.5172 48.365ZM29.8061 47.5089C29.9139 47.6268 30.0449 47.7214 30.1908 47.7869C30.3368 47.8523 30.4946 47.8872 30.6546 47.8893C30.8214 47.8915 30.9866 47.8567 31.1384 47.7875C31.2901 47.7184 31.4246 47.6166 31.5322 47.4893C31.7565 47.217 31.788 46.886 31.788 46.5456V44.1519C31.788 43.4601 31.388 42.9155 30.6563 42.9155C30.4928 42.9175 30.3316 42.954 30.1833 43.0226C30.035 43.0913 29.903 43.1905 29.7958 43.3137C29.592 43.586 29.5528 43.8779 29.5528 44.1995V46.5252C29.5528 46.8664 29.5724 47.2366 29.8061 47.5089Z" fill="white"/>
<path d="M28.2553 33.9013V32.6768H30.459V39.8674H29.1619V33.9013H28.2553Z" fill="white"/>
<path d="M34.2408 43.0246V41.7983H36.4453V48.9898H35.1482V43.0246H34.2408Z" fill="white"/>
</svg>
