<svg width="80" height="88" viewBox="0 0 80 88" fill="none" xmlns="http://www.w3.org/2000/svg">
<path d="M32.2276 36.9639C33.9081 32.7634 33.608 26.6428 29.1069 24.9626C27.4264 23.9425 27.0663 20.5821 24.9658 19.562C29.4069 17.7018 33.4279 21.6022 37.809 21.3022C37.509 22.0223 36.9088 22.6223 36.1286 22.8024C38.4092 25.5026 39.2494 29.103 39.1894 32.8234C39.4294 32.8234 39.7295 32.7634 40.0296 32.7634C40.2696 32.7634 40.5697 32.7634 40.8098 32.8234C40.7498 29.103 41.59 25.5026 43.8705 22.8024C43.1504 22.5623 42.5502 21.9623 42.2501 21.2422C46.6312 21.5422 50.6522 17.6418 55.0933 19.502C53.653 20.2221 52.9928 22.1423 52.1526 23.5224C51.7325 24.2425 51.0723 24.7826 50.3522 25.2026C46.3912 27.1828 46.2111 32.9434 47.8315 36.9639V47.885H32.5877L32.2276 36.9639Z" fill="#F3E731"/>
<path d="M40.81 37.564V33.0635C40.6899 29.2831 41.5301 25.5627 43.8707 22.8624C43.1505 22.6224 42.5504 22.0223 42.2503 21.3023C46.6314 21.6023 50.6524 17.7019 55.0935 19.5621C53.6532 20.2821 52.993 22.2024 52.1528 23.5825C51.7327 24.3026 51.0725 24.8426 50.3523 25.2627C46.3913 27.2429 46.2113 33.1235 47.8317 37.0839" fill="url(#paint0_linear)"/>
<path d="M39.2494 37.564V33.0635C39.3694 29.2831 38.5292 25.5627 36.1886 22.8624C36.9088 22.6224 37.509 22.0223 37.809 21.3023C33.4279 21.6023 29.4069 17.7019 24.9658 19.5621C26.4062 20.2821 27.0663 22.2024 27.9066 23.5825C28.3267 24.3026 28.9868 24.8426 29.707 25.2627C33.668 27.2429 33.848 33.1235 32.2276 37.0839" fill="url(#paint1_linear)"/>
<path d="M66.6167 39.8441C70.9377 40.8042 79.5199 37.0238 80 27.4227L66.8567 34.9835C66.8567 34.2635 66.7967 33.5434 66.7367 32.8833C72.4981 31.9832 81.2003 23.7624 78.3196 14.4014C72.018 29.463 53.4134 27.7228 53.1133 39.424C57.2543 39.304 57.9145 45.6047 54.0135 46.4447C53.1733 43.9245 51.6729 41.6442 49.5124 39.8441V36.9037H47.4719C45.4314 34.2035 42.8507 32.7033 40.09 32.7033C37.3293 32.7033 34.7487 34.2035 32.7082 36.9037H30.6677V39.8441C28.5671 41.6442 27.0068 43.9245 26.1665 46.4447C22.1455 45.6647 22.7457 39.304 26.9467 39.424C26.5866 27.7228 8.04201 29.463 1.74044 14.4014C-1.2003 23.7023 7.56189 31.9232 13.2633 32.8233C13.2033 33.4834 13.2033 34.1434 13.1433 34.9235L0 27.4827C0.48012 37.0838 9.06227 40.8642 13.3833 39.9041C13.4434 40.5041 13.5634 41.1042 13.6834 41.7643L1.56039 37.9839C4.68117 46.3847 11.823 47.8849 14.8237 46.0847C15.0038 46.5648 15.1838 47.0448 15.3638 47.5849L5.76144 47.0448C10.2626 53.5255 15.6039 53.5255 17.5844 51.6053C17.8245 51.9053 18.0045 52.2654 18.3046 52.5654L11.5229 54.3056C16.4441 58.8661 20.2251 57.966 21.3653 55.9257C21.6054 56.1058 21.7854 56.2858 22.0255 56.5258L17.8845 59.4661C22.5656 62.2264 25.0263 60.9063 25.5064 58.9861L26.0465 59.2861L24.006 62.6465C27.7869 63.9066 29.3473 62.5864 29.4674 60.9063C29.5874 61.0263 29.7074 61.1463 29.8275 61.2663C30.2476 62.7665 27.3668 65.0467 27.1268 65.1067C28.2671 65.2267 29.3473 64.8667 30.4276 64.4466V64.9867C30.1275 66.9069 26.7067 67.3269 25.0863 67.567C24.3661 66.9669 23.4059 66.7269 22.5656 67.0269C22.5056 66.9669 14.2836 60.1262 14.2236 60.0662C13.0833 59.1661 11.7029 60.9663 12.8432 61.8664L20.7052 68.4071C19.865 70.5673 22.4456 72.4275 24.3661 71.4674C24.4261 71.5274 26.5266 73.3276 26.6467 73.3876C27.7869 74.2877 29.1673 72.4875 28.027 71.5874L26.1065 70.0272C29.3473 68.167 32.048 67.447 34.0885 66.8469C34.0885 66.9069 34.0885 66.7869 34.0885 66.8469C31.2078 68.8271 28.8672 73.6276 31.2078 76.8079L31.3878 76.5079C31.3278 76.6279 32.7682 73.9276 34.0285 72.1275C34.4486 71.4674 34.9287 70.8073 35.4089 70.1472V70.2072C33.0083 73.9876 31.988 81.2484 35.5889 83.0486C35.6489 82.8686 37.5094 74.2277 37.5694 73.9876C36.7292 78.8482 37.2693 85.3288 40.4501 87.4291L40.5701 87.4891L40.6902 87.4291C43.931 85.3288 44.4111 78.9082 43.5709 73.9876C43.6309 74.1677 45.5514 82.8086 45.5514 82.9886C48.9722 81.3084 48.012 73.9276 45.7915 70.1472C46.2116 70.7473 46.6917 71.4074 47.1118 72.0674C48.3721 73.9276 49.8725 76.5679 49.7524 76.4479L49.9325 76.7479C52.2131 73.6276 50.0525 68.6471 46.1515 66.8469C54.1935 68.227 53.9535 72.3075 58.9347 73.0276C62.9557 73.1476 64.8162 67.927 61.4554 65.7668L58.9347 67.387L57.0143 65.1067C55.814 65.4667 54.9137 66.4268 54.6137 67.687C53.2933 67.507 49.2723 66.7269 49.8125 64.8067C50.6527 65.3467 51.7329 65.4067 52.6932 65.4067C52.4531 65.4067 49.2723 62.2864 50.6527 61.0863C50.7727 62.7065 52.2731 64.0266 56.114 62.8265L54.1335 59.4661L54.6737 59.1661C55.1538 61.0863 57.6144 62.4664 62.2956 59.6461L58.1545 56.7058C58.3946 56.5258 58.5746 56.3458 58.8147 56.1058C59.955 58.146 63.7359 58.9861 68.6572 54.4856L61.9355 52.7454C62.1755 52.4454 62.4156 52.0853 62.5957 51.7853C64.5761 53.7655 69.9175 53.7055 74.4186 47.2248L64.7562 47.7049C64.9362 47.2248 65.1763 46.7448 65.2963 46.2047C68.2971 47.9449 75.4389 46.4447 78.5596 38.1039L66.4366 41.8843C66.4366 41.1042 66.5566 40.5041 66.6167 39.8441ZM45.6714 70.0272C45.6714 70.0272 45.6714 69.9672 45.6714 70.0272C45.7314 69.9672 45.7314 70.0272 45.7314 70.0272H45.6714Z" fill="url(#paint2_linear)"/>
<path d="M40.0301 0L42.3107 2.58027L40.0301 5.16054L37.7495 2.58027L40.0301 0Z" fill="#FFDF2D"/>
<path d="M43.0307 17.8217C43.6908 18.6018 44.231 19.2019 45.0712 19.7419C45.7913 19.5619 46.5715 19.2619 47.3517 19.0218C47.4718 18.9618 47.5918 18.9618 47.7118 18.9018C46.5715 18.3018 45.5513 17.4617 44.7111 16.3816C44.231 15.6615 43.8109 14.9414 43.5108 14.1013C43.4508 13.8013 43.3307 13.5613 43.3307 13.2612H40.8701C40.9901 13.8613 41.1702 14.4614 41.4103 15.0614C41.7703 16.0815 42.3105 16.9816 43.0307 17.8217Z" fill="url(#paint3_linear)"/>
<path d="M59.4749 62.6465L60.7953 64.3267L59.2349 65.7068L57.9146 64.0266L59.4749 62.6465Z" fill="#F1CE1D"/>
<path d="M11.403 57.4263L12.0632 59.8265L9.60259 59.9465L9.00244 57.6063L11.403 57.4263Z" fill="#F1CE1D"/>
<path d="M36.7892 13.3218H35.7089C35.0488 12.3017 34.4486 11.2215 33.9085 10.1414C32.5882 6.84108 34.2686 5.46094 36.6692 5.46094L40.03 9.12132L43.3909 5.46094C45.8515 5.46094 47.4719 6.78108 46.1516 10.1414C45.6114 11.2215 45.0113 12.3017 44.3511 13.3218H43.3308H36.7892Z" fill="#CB9911"/>
<path d="M43.3911 5.46094C45.8517 5.46094 47.4721 6.78108 46.1518 10.1414C45.6117 11.2215 45.0115 12.3017 44.3514 13.3218H40.0303C40.0303 9.12132 43.3911 5.46094 43.3911 5.46094Z" fill="url(#paint4_linear)"/>
<path d="M40.0301 0L37.7495 2.58027L40.0301 5.16054V0Z" fill="url(#paint5_linear)"/>
<path d="M63.3755 17.5812C63.7956 17.4612 64.2158 17.3412 64.5758 17.1012C64.9959 16.8611 65.4161 16.6211 65.8962 16.4411C66.4363 16.2011 66.9764 16.0811 67.5166 16.0811C68.0567 16.0811 68.6569 16.0811 69.197 16.1411L68.4768 18.1813C67.8167 17.7612 67.0365 17.5812 66.2563 17.7012C65.8362 17.8212 65.4161 17.9413 64.996 18.1213C64.5158 18.3013 63.9757 18.4813 63.4956 18.5413C63.2555 18.5413 63.0155 18.5413 62.7754 18.5413L63.2555 17.5812H63.3755V17.5812Z" fill="url(#paint6_linear)"/>
<path d="M63.4355 13.7418C63.1955 12.9617 62.7153 12.3017 62.0552 11.8216C61.6951 11.5816 61.275 11.4016 60.7949 11.3416C60.3147 11.2815 59.8946 11.2815 59.4145 11.4616C58.5143 11.7616 57.9141 12.5417 57.7341 13.5018C57.6141 14.1619 57.7341 14.8819 57.9742 15.482C58.2142 16.022 58.5743 16.5021 58.9944 16.9221C59.4145 17.2822 59.8346 17.6422 60.3748 17.8822L60.4348 17.9422C60.1347 18.2423 59.8346 18.5423 59.4745 18.7823C59.1745 19.0224 58.8144 19.2024 58.5143 19.3224C58.7544 19.4424 58.9944 19.6224 59.1745 19.8624C59.5345 20.2825 59.7146 20.7625 59.7146 21.3026C60.0747 21.1226 60.4348 20.8826 60.7949 20.6425C61.5751 20.1025 62.2352 19.3824 62.7153 18.5423L63.1955 17.5822C63.7956 16.3821 63.8556 15.0019 63.4355 13.7418ZM60.8549 17.1622C60.4348 16.9821 60.1347 16.6821 59.8346 16.3221C59.5345 16.022 59.3545 15.602 59.2345 15.182C59.1144 14.7619 59.1144 14.3419 59.2345 13.9218C59.2945 13.5618 59.5946 13.2618 59.9547 13.2017C60.3147 13.1417 60.6748 13.2017 60.9749 13.4418C61.275 13.6818 61.515 14.0418 61.5751 14.4019C61.8151 15.242 61.6951 16.0821 61.275 16.8621C61.215 16.9821 61.155 17.1622 61.0349 17.2822L60.8549 17.1622Z" fill="url(#paint7_linear)"/>
<path d="M60.8549 17.1617C60.4348 16.9817 60.1347 16.6817 59.8347 16.3216C59.5346 16.0216 59.3545 15.6016 59.2345 15.1815C59.1145 14.7615 59.1145 14.3414 59.2345 13.9214C59.2945 13.5613 59.5946 13.2613 59.9547 13.2013C60.3148 13.1413 61.275 11.4611 60.8549 11.4011C60.3748 11.3411 59.9547 11.3411 59.4746 11.5211C58.5744 11.8212 57.9742 12.6012 57.7942 13.5614C57.6741 14.2214 57.7942 14.9415 58.0342 15.5416C58.2743 16.0816 58.6344 16.5617 59.0545 16.9817C59.4746 17.3418 59.8947 17.7018 60.4348 17.9418L60.4948 18.0018L61.035 17.3417L60.8549 17.1617Z" fill="url(#paint8_linear)"/>
<path d="M16.6838 17.5812C16.2637 17.4612 15.8435 17.3412 15.4835 17.1012C15.0634 16.8611 14.6432 16.6211 14.1631 16.4411C13.623 16.2011 13.0829 16.0811 12.5427 16.0811C12.0026 16.0811 11.4024 16.0811 10.8623 16.1411L11.5825 18.1813C12.2426 17.7612 13.0228 17.5812 13.803 17.7012C14.2231 17.8212 14.6432 17.9413 15.0634 18.1213C15.5435 18.3013 16.0836 18.4813 16.5637 18.5413C16.8038 18.5413 17.0438 18.5413 17.2839 18.5413L16.8038 17.5812H16.6838V17.5812Z" fill="url(#paint9_linear)"/>
<path d="M16.6234 13.7413C16.8635 12.9612 17.3436 12.3012 18.0037 11.8211C18.3638 11.5811 18.7839 11.4011 19.2641 11.3411C19.7442 11.2811 20.1643 11.2811 20.6444 11.4611C21.5446 11.7611 22.1448 12.5412 22.3248 13.5013C22.4449 14.1614 22.3248 14.8814 22.0848 15.4815C21.8447 16.0216 21.4846 16.5016 21.0645 16.9217C20.6444 17.2817 20.2243 17.6417 19.6842 17.8818L19.6242 17.9418C19.9242 18.2418 20.2243 18.5418 20.5844 18.7818C20.8845 19.0219 21.2446 19.2019 21.5446 19.3219C21.3046 19.4419 21.0645 19.6219 20.8845 19.862C20.5244 20.282 20.3443 20.7621 20.3443 21.3021C19.9842 21.1221 19.6242 20.8821 19.2641 20.642C18.4839 20.102 17.8237 19.3819 17.3436 18.5418L16.8635 17.5817C16.2633 16.3816 16.2033 15.0014 16.6234 13.7413ZM19.204 17.1617C19.6242 16.9817 19.9242 16.6816 20.2243 16.3216C20.5244 16.0216 20.7044 15.6015 20.8245 15.1815C20.9445 14.7614 20.9445 14.3414 20.8245 13.9213C20.7644 13.5613 20.4644 13.2613 20.1043 13.2013C19.7442 13.1413 19.3841 13.2013 19.084 13.4413C18.7839 13.6813 18.5439 14.0413 18.4839 14.4014C18.2438 15.2415 18.3638 16.0816 18.7839 16.8616C18.844 16.9817 18.904 17.1617 19.024 17.2817L19.204 17.1617Z" fill="url(#paint10_linear)"/>
<path d="M19.2045 17.1612C19.6246 16.9812 19.9246 16.6812 20.2247 16.3212C20.5248 16.0211 20.7048 15.6011 20.8249 15.181C20.9449 14.761 20.9449 14.3409 20.8249 13.9209C20.7648 13.5609 20.4648 13.2608 20.1047 13.2008C19.7446 13.1408 18.7844 11.4606 19.2045 11.4006C19.6846 11.3406 20.1047 11.3406 20.5848 11.5206C21.485 11.8207 22.0852 12.6008 22.2652 13.5609C22.3853 14.2209 22.2652 14.941 22.0252 15.5411C21.7851 16.0811 21.425 16.5612 21.0049 16.9812C20.5848 17.3413 20.1647 17.7013 19.6246 17.9413L19.5645 18.0013L19.0244 17.3413L19.2045 17.1612Z" fill="url(#paint11_linear)"/>
<path d="M56.8944 19.9221C56.1742 19.8621 55.334 20.1621 54.7939 20.7622C53.6536 21.9623 53.2935 23.8825 52.0332 25.0226C54.1937 25.0226 57.1345 24.2425 58.0347 22.6224C55.7541 23.4025 54.6739 23.8825 54.4338 23.3425C54.1337 22.8024 56.7144 20.9422 58.5148 21.4823C58.4548 20.7022 57.7946 20.0421 56.8944 19.9221Z" fill="url(#paint12_linear)"/>
<path d="M23.1663 19.9821C23.8865 19.9221 24.7267 20.2222 25.2668 20.8222C26.4071 22.0224 26.7672 23.9426 28.0275 25.0827C25.867 25.0827 22.9262 24.3026 22.026 22.6824C24.3066 23.4625 25.3869 23.9426 25.6269 23.4025C25.927 22.8624 23.3463 21.0023 21.5459 21.5423C21.6059 20.7622 22.2661 20.0422 23.1663 19.9821Z" fill="url(#paint13_linear)"/>
<path d="M36.669 5.46094C34.2084 5.46094 32.588 6.78108 33.9083 10.1414C34.4484 11.2215 35.0486 12.3017 35.7088 13.3218H40.0298C40.0298 9.12132 36.669 5.46094 36.669 5.46094Z" fill="url(#paint14_linear)"/>
<path d="M32.7683 19.0819C33.4885 19.3219 34.2687 19.622 34.9888 19.802C35.8291 19.2019 36.4292 18.6619 37.0294 17.8818C37.6895 17.0417 38.2297 16.1416 38.6498 15.1215C38.8898 14.5814 39.0699 13.9814 39.1899 13.3213H36.7293C36.6693 13.6213 36.6092 13.9214 36.5492 14.1614C36.2492 14.9415 35.8891 15.7215 35.409 16.4416C34.6288 17.4617 33.6085 18.3618 32.4082 18.9619C32.5282 18.9619 32.6483 19.0219 32.7683 19.0819Z" fill="url(#paint15_linear)"/>
<path d="M48.1317 18.7816C49.572 18.3016 51.0124 17.8815 52.5728 17.8815C53.353 17.8815 54.1332 18.0015 54.8534 18.2415C55.2134 17.6415 55.5135 17.0414 55.8136 16.4414C56.7738 13.9811 55.5735 13.021 53.7731 13.021L51.3125 15.7213L48.8519 13.021C47.0514 13.021 45.7911 13.9811 46.7513 16.4414C47.1714 17.2214 47.6516 18.0015 48.1317 18.7816Z" fill="#CB9911"/>
<path d="M51.3127 9.00098L52.9932 10.8612L51.3127 12.8414L49.6323 10.8612L51.3127 9.00098Z" fill="#FFDF2D"/>
<path d="M51.3127 9.00098V12.8414L49.6323 10.8612L51.3127 9.00098Z" fill="url(#paint16_linear)"/>
<path d="M52.0329 17.8815C52.2129 17.8815 52.393 17.8815 52.573 17.8815C52.8131 17.8815 53.0531 17.8815 53.2932 17.9415C53.3532 17.9415 53.4733 17.9415 53.5333 17.9415C53.7133 17.9415 53.8333 18.0015 53.9534 18.0015C54.0134 18.0015 54.1334 18.0615 54.1934 18.0615C54.3735 18.1215 54.4935 18.1215 54.6736 18.1815C54.7336 18.1815 54.7936 18.2415 54.9136 18.2415C55.2737 17.6415 55.5738 17.0414 55.8739 16.4414C56.8341 13.9811 55.6338 13.021 53.8333 13.021L51.6128 17.9415C51.6728 17.8815 51.8529 17.8815 52.0329 17.8815Z" fill="url(#paint17_linear)"/>
<path d="M48.1317 18.7816C48.3717 18.6616 48.6718 18.6016 48.9119 18.5416C48.9119 18.5416 48.9119 18.5416 48.9719 18.5416C49.8121 18.3016 50.7123 18.0615 51.5525 17.9415L48.8519 13.021C47.0514 13.021 45.7911 13.9811 46.7513 16.4414C47.1714 17.2214 47.6516 18.0015 48.1317 18.7816Z" fill="url(#paint18_linear)"/>
<path d="M31.9278 18.7816C30.4875 18.3016 29.0471 17.8815 27.4867 17.8815C26.7065 17.8815 25.9263 18.0015 25.2062 18.2415C24.8461 17.6415 24.546 17.0414 24.2459 16.4414C23.2857 13.9811 24.486 13.021 26.2864 13.021L28.747 15.7213L31.2077 13.021C33.0081 13.021 34.2684 13.9811 33.3082 16.4414C32.8881 17.2214 32.408 18.0015 31.9278 18.7816Z" fill="#CB9911"/>
<path d="M28.7468 9.00098L27.0664 10.8612L28.7468 12.8414L30.4272 10.8612L28.7468 9.00098Z" fill="#FFDF2D"/>
<path d="M28.7471 9.00098V12.8414L30.4275 10.8612L28.7471 9.00098Z" fill="url(#paint19_linear)"/>
<path d="M28.0869 17.8815C27.9068 17.8815 27.7268 17.8815 27.5468 17.8815C27.3067 17.8815 27.0666 17.8815 26.8266 17.9415C26.7666 17.9415 26.6465 17.9415 26.5865 17.9415C26.4065 17.9415 26.2864 18.0015 26.1664 18.0015C26.1064 18.0015 25.9864 18.0615 25.9263 18.0615C25.7463 18.1215 25.6263 18.1215 25.4462 18.1815C25.3862 18.1815 25.3262 18.2415 25.2062 18.2415C24.8461 17.6415 24.546 17.0414 24.2459 16.4414C23.2857 13.9811 24.486 13.021 26.2864 13.021L28.507 17.9415C28.387 17.8815 28.2069 17.8815 28.0869 17.8815Z" fill="url(#paint20_linear)"/>
<path d="M31.9277 18.7816C31.6876 18.6616 31.3876 18.6016 31.1475 18.5416C31.1475 18.5416 31.1475 18.5416 31.0875 18.5416C30.2473 18.3016 29.347 18.0615 28.5068 17.9415L31.2075 13.021C33.008 13.021 34.2683 13.9811 33.308 16.4414C32.8879 17.2214 32.4078 18.0015 31.9277 18.7816Z" fill="url(#paint21_linear)"/>
<path d="M32.1076 21.1823C32.6477 21.7223 33.4879 22.9825 35.3484 22.9825C36.4887 22.9825 37.3289 22.3824 37.809 21.3623C33.4279 21.6623 29.4069 17.7619 24.9658 19.6221" fill="url(#paint22_linear)"/>
<path d="M47.9524 21.1222C47.4123 21.6623 46.5721 22.9224 44.7116 22.9224C43.5713 22.9224 42.7311 22.3224 42.251 21.3023C46.6321 21.6023 50.6531 17.7019 55.0942 19.5621" fill="url(#paint23_linear)"/>
<path d="M54.0736 46.4448C54.0136 46.4448 54.0136 46.4448 53.9536 46.5048C53.9536 46.5048 54.0136 46.5048 54.0736 46.4448Z" fill="#030202"/>
<path d="M54.2539 59.1063C54.3739 59.0463 54.494 58.9863 54.614 58.9263L54.2539 59.1063Z" fill="#030202"/>
<path d="M56.0542 41.1646C56.5943 42.1847 56.7144 43.5048 56.2342 44.5849C56.4743 44.1049 56.5943 43.6248 56.5943 43.0247C56.5943 42.3647 56.4143 41.7046 56.0542 41.1646Z" fill="url(#paint24_linear)"/>
<path d="M71.598 23.2227C69.6175 24.7828 67.457 26.103 65.3564 27.2431C67.757 26.223 69.8576 24.7828 71.598 23.2227Z" fill="url(#paint25_linear)"/>
<path d="M13.2635 32.9434C13.6836 35.8837 14.1037 38.704 14.8239 41.4043C15.5441 44.1045 16.5043 46.6848 17.7647 49.0851C19.085 51.4853 20.7054 53.6455 22.6859 55.5657C23.6461 56.5259 24.7264 57.4259 25.8667 58.326C27.007 59.2261 28.1473 60.0062 29.4076 60.9063C14.1037 54.7257 12.6634 40.9242 13.2635 32.9434Z" fill="#FFDF2D"/>
<path d="M66.7368 32.9434C66.3167 35.8837 65.8966 38.704 65.1764 41.4043C64.4562 44.1045 63.496 46.6848 62.2357 49.0851C60.9153 51.4853 59.2949 53.6455 57.3145 55.5657C56.3542 56.5259 55.2739 57.4259 54.1337 58.326C52.9934 59.2261 51.8531 60.0062 50.5928 60.9063C65.8966 54.7257 67.337 40.9242 66.7368 32.9434Z" fill="#FFDF2D"/>
<path d="M62.2357 59.4061L58.0946 56.4658C57.0744 57.3059 55.9341 58.146 54.6138 58.9261C55.0939 60.8463 57.5545 62.1664 62.2357 59.4061Z" fill="url(#paint26_linear)"/>
<path d="M58.7549 55.9258C59.8952 57.966 63.6761 58.8061 68.5373 54.3056L61.7556 52.5654C60.9154 53.7056 59.8952 54.8457 58.7549 55.9258Z" fill="url(#paint27_linear)"/>
<path d="M74.2985 47.0449L64.6361 47.585C64.036 48.9651 63.3758 50.2853 62.4756 51.6054C64.4561 53.5256 69.7974 53.5256 74.2985 47.0449Z" fill="url(#paint28_linear)"/>
<path d="M65.1758 46.0847C68.1765 47.8249 75.3183 46.3848 78.4391 37.9839L66.3161 41.7643C66.076 43.1444 65.7159 44.5846 65.1758 46.0847Z" fill="url(#paint29_linear)"/>
<path d="M66.6167 39.8442C70.9378 40.8043 79.5199 37.0239 80.0001 27.4229L66.8568 34.9836C66.8568 36.5438 66.7967 38.164 66.6167 39.8442Z" fill="url(#paint30_linear)"/>
<path d="M54.0737 59.2261C52.9934 59.8261 51.8531 60.3662 50.6528 60.8462C50.7729 62.4664 52.3333 63.7865 56.1142 62.5864L54.0737 59.2261Z" fill="url(#paint31_linear)"/>
<path d="M17.7642 59.4061L21.9052 56.4658C22.9254 57.3059 24.0657 58.146 25.3861 58.9261C24.9059 60.8463 22.4453 62.1664 17.7642 59.4061Z" fill="url(#paint32_linear)"/>
<path d="M21.2448 55.9258C20.1046 57.966 16.3236 58.8061 11.4624 54.3056L18.2441 52.5654C19.0843 53.7056 20.1046 54.8457 21.2448 55.9258Z" fill="url(#paint33_linear)"/>
<path d="M5.70117 47.0449L15.3636 47.585C15.9637 48.9651 16.6239 50.2853 17.5241 51.6054C15.5436 53.5256 10.2023 53.5256 5.70117 47.0449Z" fill="url(#paint34_linear)"/>
<path d="M14.7638 46.0847C11.7631 47.8249 4.62127 46.3848 1.50049 37.9839L13.6235 41.7643C13.9236 43.1444 14.2837 44.5846 14.7638 46.0847Z" fill="url(#paint35_linear)"/>
<path d="M13.3833 39.8442C9.06226 40.8043 0.48012 37.0239 0 27.4229L13.1433 34.9836C13.1433 36.5438 13.2033 38.164 13.3833 39.8442Z" fill="url(#paint36_linear)"/>
<path d="M25.9263 59.2261C27.0065 59.8261 28.1468 60.3662 29.3471 60.8462C29.2271 62.4664 27.6667 63.7865 23.8857 62.5864L25.9263 59.2261Z" fill="url(#paint37_linear)"/>
<path d="M59.4749 62.6465L60.7953 64.3267L59.2349 65.7068L57.9146 64.0266L59.4749 62.6465Z" fill="#FFDF2D"/>
<path d="M59.4749 62.6465L59.2349 65.7068L57.9146 64.0266L59.4749 62.6465Z" fill="url(#paint38_linear)"/>
<path d="M9.00244 57.6063L11.403 57.4263L12.0632 59.8265L9.60259 59.9465L9.00244 57.6063Z" fill="#F1CE1D"/>
<path d="M9.00244 57.6063L11.403 57.4263L12.0632 59.8265L9.60259 59.9465L9.00244 57.6063Z" fill="#FFDF2D"/>
<path d="M9.00244 57.6064L12.0632 59.8267L9.60259 59.9467L9.00244 57.6064Z" fill="url(#paint39_linear)"/>
<path d="M63.1354 68.4671C63.0754 67.387 62.5353 66.3069 61.455 65.5868L58.9344 67.207L57.0139 64.9268C55.8736 65.2868 55.0334 66.1869 54.6733 67.267C54.6733 67.327 54.6133 67.387 54.6133 67.447C54.4933 67.8671 54.4333 68.3471 54.4933 68.7672C54.5533 69.6073 54.9134 70.3873 55.4535 71.0474C55.6936 71.3474 55.9336 71.6475 56.1137 71.7675C56.4738 72.0675 56.9539 72.2475 57.434 72.4276C57.8541 72.5476 58.3342 72.6676 58.8744 72.7876C60.0747 72.7876 61.0949 72.3675 61.8151 71.6475C61.8751 71.6475 61.9351 71.5275 61.9351 71.5275C62.7753 70.7474 63.1954 69.6073 63.1354 68.4671Z" fill="url(#paint40_linear)"/>
<path d="M61.3952 65.5868L58.8746 67.207L56.9541 64.9268L58.6945 68.8872L61.3952 65.5868Z" fill="#CB9911"/>
<path d="M22.4457 66.9067L14.2236 59.9459C13.7435 59.5259 13.0233 59.5859 12.6032 60.0659C12.1831 60.546 12.2431 61.2661 12.7232 61.6861L20.6452 68.2268C21.1253 67.4467 21.6055 67.1467 22.4457 66.9067Z" fill="url(#paint41_linear)"/>
<path d="M27.907 71.4674L25.9865 69.9072C25.2664 70.7473 24.9663 70.9873 24.2461 71.3474L26.4066 73.2076C26.6467 73.3876 26.8868 73.4476 27.1268 73.4476C27.4869 73.4476 27.787 73.3276 28.027 73.0276C28.5072 72.6075 28.3871 71.8874 27.907 71.4674Z" fill="url(#paint42_linear)"/>
<path d="M45.6709 70.0276C45.6709 70.0276 45.6709 69.9676 45.6709 70.0276C45.7309 69.9676 45.7309 70.0276 45.7309 70.0276H45.6709Z" fill="url(#paint43_linear)"/>
<path d="M46.0915 66.7271C44.291 68.4672 42.1905 69.4273 40.03 69.4273C37.8694 69.4273 35.7689 68.4672 33.9685 66.7271C31.0877 68.7073 28.7472 73.5078 31.0877 76.6881L31.2678 76.3881C31.2078 76.5081 32.6481 73.8078 33.9084 72.0076C34.3286 71.3475 34.8087 70.6875 35.2888 70.0274V70.0874C32.8882 73.8678 31.8679 81.1286 35.4688 82.9288C35.5289 82.7487 37.3893 74.1078 37.4493 73.8678C36.6091 78.7283 37.1493 85.209 40.33 87.3092L40.4501 87.3692L40.5701 87.3092C43.8109 85.209 44.291 78.7883 43.4508 73.8678C43.5108 74.0478 45.4313 82.6887 45.4313 82.8687C48.8522 81.1886 47.8919 73.8078 45.6714 70.0274C46.0915 70.6275 46.5716 71.2875 46.9917 71.9476C48.252 73.8078 49.7524 76.4481 49.6324 76.3281L49.8124 76.6281C52.153 73.5678 49.6924 68.1672 46.0915 66.7271Z" fill="url(#paint44_linear)"/>
<path d="M40.0297 34.3236H39.8497C39.7297 34.3236 39.5496 34.3236 39.4296 34.3236C39.3096 34.3236 39.1295 34.3836 39.0095 34.3836C37.029 34.6837 34.9885 35.9438 33.4881 38.044L33.248 38.3441H31.9877V40.7443L31.8677 40.8643C31.8677 40.9243 31.8077 40.9843 31.7477 41.0443L31.6876 41.1043L31.6276 41.1643C30.6074 42.0044 29.7072 43.0245 29.047 44.1047C28.927 44.2847 28.8669 44.4047 28.7469 44.5847L28.6269 44.8247C28.5669 45.0048 28.4468 45.1248 28.3868 45.3048C28.2068 45.6648 28.0267 46.0249 27.9067 46.4449C27.8467 46.5649 27.7867 46.7449 27.7867 46.8649C27.6666 47.165 27.6066 47.465 27.5466 47.765C27.5466 47.8251 27.4866 47.8851 27.4866 48.0051C27.4266 48.2451 27.3666 48.4851 27.3666 48.6651C27.3666 48.8452 27.3066 48.9652 27.3066 49.1452V49.2652C27.3066 49.4452 27.2465 49.6252 27.2465 49.8053V49.8653C27.1865 50.0453 27.1865 50.2253 27.1865 50.4053V51.0054C27.1865 54.2457 28.4468 57.3661 30.6674 59.7063C31.0275 60.0663 31.3876 60.4264 31.8077 60.7864L31.8677 60.8464L31.9277 60.9064V60.9664V61.0264C31.9277 61.0264 31.9277 61.0865 31.9877 61.0865L32.1078 61.2065V63.6067H33.4281L33.6681 63.9067C33.7282 64.0268 33.7882 64.0868 33.9082 64.2068L34.0282 64.3268L34.0882 64.3868L34.1483 64.4468C34.2083 64.5068 34.2683 64.5668 34.3283 64.6268L34.3883 64.6868C34.5084 64.8068 34.5684 64.9269 34.6884 64.9869C34.6884 64.9869 34.6884 64.9869 34.7484 65.0469C34.8684 65.1669 34.9285 65.2269 35.0485 65.3469L35.1085 65.4069C35.1685 65.4669 35.2885 65.5869 35.3486 65.6469C35.4686 65.7069 35.5886 65.827 35.6486 65.887C35.7086 65.947 35.8287 66.007 35.8887 66.067L35.9487 66.127L36.0687 66.187C36.1288 66.247 36.1888 66.307 36.2488 66.307L36.3088 66.367C36.4288 66.427 36.5489 66.487 36.6689 66.547C37.029 66.7871 37.4491 66.9671 37.8692 67.0871C37.9892 67.1471 38.0492 67.1471 38.1693 67.2071C38.3493 67.2671 38.5294 67.3271 38.7094 67.3271C38.8294 67.3871 38.9495 67.3871 39.1295 67.3871C39.4296 67.4471 39.6696 67.4471 39.9697 67.4471H40.2698C41.7102 67.3871 43.0905 66.9071 44.2308 66.007C44.951 65.5269 45.6111 64.9269 46.1513 64.2068C46.2713 64.0268 46.3913 63.8467 46.5714 63.6667L46.8114 63.3667H48.1318V60.9664L48.2518 60.8464C48.3118 60.7864 48.3718 60.7264 48.4318 60.6664L48.4918 60.6064C48.8519 60.3064 49.152 60.0063 49.5121 59.7063C51.7927 57.306 52.993 54.1257 52.993 50.8254V50.1053C52.993 49.9253 52.993 49.7453 52.933 49.5652C52.933 49.3852 52.8729 49.2052 52.8729 49.0252V48.9052C52.8729 48.7251 52.8129 48.6051 52.8129 48.4251V48.3651L52.7529 48.1251C52.6929 47.9451 52.6929 47.8251 52.6329 47.645C51.9727 45.0048 50.4723 42.6645 48.4318 40.9843L48.3718 40.9243C48.3118 40.8643 48.2518 40.8043 48.1918 40.7443L48.0717 40.6243V38.224H46.7514L46.5114 37.924L46.3913 37.744C45.6111 36.7239 44.6509 35.8238 43.5106 35.1637C42.7304 34.7437 41.9502 34.4436 41.05 34.2636C40.93 34.2636 40.7499 34.2036 40.6299 34.2036C40.3298 34.3236 40.2098 34.3236 40.0297 34.3236Z" fill="#1C8D38"/>
<path d="M42.6104 45.3047H37.3291V62.3465H42.6104V45.3047Z" fill="url(#paint45_linear)"/>
<path d="M42.5503 58.3262H37.329L35.2285 60.1864V62.3466H44.6509V60.1864L42.5503 58.3262Z" fill="url(#paint46_linear)"/>
<path d="M42.7308 48.4854H37.1494V50.7056H42.7308V48.4854Z" fill="#1C8D38"/>
<path d="M36.3691 47.7051V51.4855H43.4509V47.7051H36.3691ZM42.7307 50.7654H37.1493V48.5452H42.7307V50.7654Z" fill="url(#paint47_linear)"/>
<path d="M41.9504 44.7646C41.9504 44.7646 42.6706 43.6244 42.8506 43.1444C43.5108 41.4642 42.6706 40.7441 41.4703 40.7441L39.9099 42.3643L38.3495 40.7441C37.1492 40.7441 36.309 41.4042 36.9691 43.1444C37.1492 43.6244 37.8694 44.7646 37.8694 44.7646H41.9504Z" fill="url(#paint48_linear)"/>
<path d="M39.9094 39.1841L38.8892 40.4442L39.9094 41.7043L40.9897 40.4442L39.9094 39.1841Z" fill="url(#paint49_linear)"/>
<path d="M38.1095 38.4036C37.9294 38.6437 37.6294 38.7637 37.3293 38.7637C37.0292 38.7637 36.7291 38.6437 36.5491 38.4636C36.309 38.2236 36.249 37.9236 36.249 37.6236V36.5434C36.249 36.2434 36.309 36.0034 36.4891 35.7634C36.6691 35.5233 37.0292 35.4033 37.3293 35.4033C37.6294 35.4033 37.9294 35.5233 38.1095 35.7034C38.3496 35.9434 38.4096 36.2434 38.4096 36.5434V37.6236C38.3496 37.9236 38.2895 38.2236 38.1095 38.4036ZM36.9092 38.0436C37.0292 38.1636 37.1493 38.2236 37.2693 38.2236C37.3893 38.2236 37.5694 38.1636 37.6894 38.0436C37.8094 37.9236 37.8094 37.8036 37.8094 37.6236V36.5434C37.8094 36.2434 37.6294 36.0034 37.3293 36.0034C37.2093 36.0034 37.0292 36.0634 36.9692 36.1834C36.8492 36.3034 36.8492 36.4234 36.8492 36.6034V37.6236C36.7892 37.7436 36.7892 37.9236 36.9092 38.0436Z" fill="url(#paint50_linear)"/>
<path d="M43.3907 38.4036C43.2107 38.6437 42.9106 38.7637 42.6105 38.7637C42.3105 38.7637 42.0104 38.6437 41.8303 38.4636C41.5903 38.2236 41.5303 37.9236 41.5303 37.6236V36.5434C41.5303 36.2434 41.5903 36.0034 41.7703 35.7634C41.9504 35.5233 42.3105 35.4033 42.6105 35.4033C42.9106 35.4033 43.2107 35.5233 43.3907 35.7034C43.6308 35.9434 43.6908 36.2434 43.6908 36.5434V37.6236C43.6308 37.9236 43.5708 38.2236 43.3907 38.4036ZM42.1904 38.0436C42.3105 38.1636 42.4305 38.2236 42.5505 38.2236C42.6706 38.2236 42.8506 38.1636 42.9706 38.0436C43.0907 37.9236 43.0907 37.8036 43.0907 37.6236V36.5434C43.0907 36.2434 42.9106 36.0034 42.6105 36.0034C42.4905 36.0034 42.3105 36.0634 42.2505 36.1834C42.1304 36.3034 42.1304 36.4234 42.1304 36.6034V37.6236C42.0704 37.7436 42.0704 37.9236 42.1904 38.0436Z" fill="url(#paint51_linear)"/>
<path d="M48.1915 47.2249C48.0115 47.465 47.7114 47.585 47.4113 47.585C47.1113 47.585 46.8112 47.4649 46.6311 47.2849C46.3911 47.0449 46.3311 46.7449 46.3311 46.4448V45.3647C46.3311 45.0647 46.3911 44.8247 46.5711 44.5846C46.7512 44.3446 47.1113 44.2246 47.4113 44.2246C47.7114 44.2246 48.0115 44.3446 48.1915 44.5246C48.4316 44.7647 48.4916 45.0647 48.4916 45.3647V46.4448C48.4316 46.7449 48.3716 47.0449 48.1915 47.2249ZM46.9312 46.8649C47.0512 46.9849 47.1713 47.0449 47.2913 47.0449C47.4113 47.0449 47.5914 46.9849 47.7114 46.8649C47.8314 46.7449 47.8314 46.6249 47.8314 46.4448V45.3647C47.8314 45.0647 47.6514 44.8247 47.3513 44.8247C47.2313 44.8247 47.0512 44.8847 46.9912 45.0047C46.8712 45.1247 46.8712 45.2447 46.8712 45.4247V46.4448C46.8712 46.5649 46.8712 46.7449 46.9312 46.8649Z" fill="url(#paint52_linear)"/>
<path d="M46.3912 52.2655C46.2112 52.5055 45.9111 52.6255 45.611 52.6255C45.311 52.6255 45.0109 52.5055 44.8308 52.3255C44.5908 52.0854 44.5308 51.7854 44.5308 51.4854V50.4053C44.5308 50.1052 44.5908 49.8652 44.7708 49.6252C44.9509 49.3851 45.311 49.2651 45.611 49.2651C45.9111 49.2651 46.2112 49.3851 46.3912 49.5652C46.6313 49.8052 46.6913 50.1052 46.6913 50.4053V51.4854C46.6313 51.7854 46.5713 52.0254 46.3912 52.2655ZM45.1909 51.8454C45.311 51.9654 45.431 52.0254 45.551 52.0254C45.671 52.0254 45.8511 51.9654 45.9711 51.8454C46.0912 51.7254 46.0911 51.6054 46.0911 51.4254V50.3453C46.0911 50.0452 45.9111 49.8052 45.611 49.8052C45.491 49.8052 45.311 49.8652 45.2509 49.9852C45.1309 50.1052 45.1309 50.2252 45.1309 50.4053V51.4254C45.0709 51.6054 45.0709 51.7254 45.1909 51.8454Z" fill="url(#paint53_linear)"/>
<path d="M51.673 52.2655C51.4929 52.5055 51.1928 52.6255 50.8928 52.6255C50.5927 52.6255 50.2926 52.5055 50.1126 52.3255C49.8725 52.0854 49.8125 51.7854 49.8125 51.4854V50.4053C49.8125 50.1052 49.8725 49.8652 50.0526 49.6252C50.2326 49.3851 50.5927 49.2651 50.8928 49.2651C51.1928 49.2651 51.4929 49.3851 51.673 49.5652C51.913 49.8052 51.973 50.1052 51.973 50.4053V51.4854C51.913 51.7854 51.853 52.0254 51.673 52.2655ZM50.4727 51.8454C50.5927 51.9654 50.7127 52.0254 50.8328 52.0254C50.9528 52.0254 51.1328 51.9654 51.2529 51.8454C51.3729 51.7254 51.3729 51.6054 51.3729 51.4254V50.3453C51.3729 50.0452 51.1928 49.8052 50.8928 49.8052C50.7727 49.8052 50.5927 49.8652 50.5327 49.9852C50.4126 50.1052 50.4127 50.2252 50.4127 50.4053V51.4254C50.3526 51.6054 50.3526 51.7254 50.4727 51.8454Z" fill="url(#paint54_linear)"/>
<path d="M47.7115 57.2459C47.5315 57.486 47.2314 57.606 46.9313 57.606C46.6313 57.606 46.3312 57.486 46.1511 57.3059C45.9111 57.0659 45.8511 56.7659 45.8511 56.4658V55.3857C45.8511 55.0857 45.9111 54.8457 46.0911 54.6056C46.2712 54.3656 46.6313 54.2456 46.9313 54.2456C47.2314 54.2456 47.5315 54.3656 47.7115 54.5456C47.9516 54.7857 48.0116 55.0857 48.0116 55.3857V56.4658C47.9516 56.7659 47.9516 57.0059 47.7115 57.2459ZM46.5112 56.8859C46.6313 57.0059 46.7513 57.0659 46.8713 57.0659C46.9914 57.0659 47.1714 57.0059 47.2914 56.8859C47.4115 56.7659 47.4115 56.6459 47.4115 56.4658V55.3857C47.4115 55.0857 47.2314 54.8457 46.9313 54.8457C46.8113 54.8457 46.6313 54.9057 46.5713 55.0257C46.4512 55.1457 46.4512 55.2657 46.4512 55.4457V56.4658C46.3912 56.5859 46.3912 56.7659 46.5112 56.8859Z" fill="url(#paint55_linear)"/>
<path d="M43.3907 66.0672C43.2107 66.3072 42.9106 66.4273 42.6105 66.4273C42.3105 66.4273 42.0104 66.3072 41.8303 66.1272C41.5903 65.8872 41.5303 65.5872 41.5303 65.2871V64.207C41.5303 63.907 41.5903 63.667 41.7703 63.4269C41.9504 63.1869 42.3105 63.0669 42.6105 63.0669C42.9106 63.0669 43.2107 63.1869 43.3907 63.3669C43.6308 63.607 43.6908 63.907 43.6908 64.207V65.2871C43.6308 65.5872 43.5708 65.8272 43.3907 66.0672ZM42.1904 65.7072C42.3105 65.8272 42.4305 65.8872 42.5505 65.8872C42.6706 65.8872 42.8506 65.8272 42.9706 65.7072C43.0907 65.5872 43.0907 65.4671 43.0907 65.2871V64.207C43.0907 63.907 42.9106 63.667 42.6105 63.667C42.4905 63.667 42.3105 63.727 42.2505 63.847C42.1304 63.967 42.1304 64.087 42.1304 64.267V65.2871C42.0704 65.4071 42.0704 65.5872 42.1904 65.7072Z" fill="url(#paint56_linear)"/>
<path d="M38.1095 66.0672C37.9294 66.3072 37.6294 66.4273 37.3293 66.4273C37.0292 66.4273 36.7291 66.3072 36.5491 66.1272C36.309 65.8872 36.249 65.5872 36.249 65.2871V64.207C36.249 63.907 36.309 63.667 36.4891 63.4269C36.6691 63.1869 37.0292 63.0669 37.3293 63.0669C37.6294 63.0669 37.9294 63.1869 38.1095 63.3669C38.3496 63.607 38.4096 63.907 38.4096 64.207V65.2871C38.3496 65.5872 38.2895 65.8272 38.1095 66.0672ZM36.9092 65.7072C37.0292 65.8272 37.1493 65.8872 37.2693 65.8872C37.3893 65.8872 37.5694 65.8272 37.6894 65.7072C37.8094 65.5872 37.8094 65.4671 37.8094 65.2871V64.207C37.8094 63.907 37.6294 63.667 37.3293 63.667C37.2093 63.667 37.0292 63.727 36.9692 63.847C36.8492 63.967 36.8492 64.087 36.8492 64.267V65.2871C36.7892 65.4071 36.7892 65.5872 36.9092 65.7072Z" fill="url(#paint57_linear)"/>
<path d="M33.3683 47.2249C33.1882 47.465 32.8882 47.585 32.5881 47.585C32.288 47.585 31.9879 47.4649 31.8079 47.2849C31.5678 47.0449 31.5078 46.7449 31.5078 46.4448V45.3647C31.5078 45.0647 31.5678 44.8247 31.7479 44.5846C31.9279 44.3446 32.288 44.2246 32.5881 44.2246C32.8882 44.2246 33.1882 44.3446 33.3683 44.5246C33.6083 44.7647 33.6684 45.0647 33.6684 45.3647V46.4448C33.6083 46.7449 33.5483 47.0449 33.3683 47.2249ZM32.168 46.8649C32.288 46.9849 32.408 47.0449 32.5281 47.0449C32.6481 47.0449 32.8281 46.9849 32.9482 46.8649C33.0682 46.7449 33.0682 46.6249 33.0682 46.4448V45.3647C33.0682 45.0647 32.8882 44.8247 32.5881 44.8247C32.4681 44.8247 32.288 44.8847 32.228 45.0047C32.108 45.1247 32.108 45.2447 32.108 45.4247V46.4448C32.0479 46.5649 32.0479 46.7449 32.168 46.8649Z" fill="url(#paint58_linear)"/>
<path d="M29.8273 52.2655C29.6472 52.5055 29.3471 52.6255 29.0471 52.6255C28.747 52.6255 28.4469 52.5055 28.2669 52.3255C28.0268 52.0854 27.9668 51.7854 27.9668 51.4854V50.4053C27.9668 50.1052 28.0268 49.8652 28.2069 49.6252C28.3869 49.3851 28.747 49.2651 29.0471 49.2651C29.3471 49.2651 29.6472 49.3851 29.8273 49.5652C30.0673 49.8052 30.1273 50.1052 30.1273 50.4053V51.4854C30.1273 51.7854 30.0673 52.0254 29.8273 52.2655ZM28.627 51.8454C28.747 51.9654 28.867 52.0254 28.9871 52.0254C29.1071 52.0254 29.2871 51.9654 29.4072 51.8454C29.5272 51.7254 29.5272 51.6054 29.5272 51.4254V50.3453C29.5272 50.0452 29.3471 49.8052 29.0471 49.8052C28.927 49.8052 28.747 49.8652 28.687 49.9852C28.5669 50.1052 28.5669 50.2252 28.5669 50.4053V51.4254C28.5669 51.6054 28.5669 51.7254 28.627 51.8454Z" fill="url(#paint59_linear)"/>
<path d="M35.1085 52.2655C34.9285 52.5055 34.6284 52.6255 34.3283 52.6255C34.0282 52.6255 33.7282 52.5055 33.5481 52.3255C33.3081 52.0854 33.248 51.7854 33.248 51.4854V50.4053C33.248 50.1052 33.3081 49.8652 33.4881 49.6252C33.6682 49.3851 34.0282 49.2651 34.3283 49.2651C34.6284 49.2651 34.9285 49.3851 35.1085 49.5652C35.3486 49.8052 35.4086 50.1052 35.4086 50.4053V51.4854C35.4086 51.7854 35.3486 52.0254 35.1085 52.2655ZM33.9082 51.8454C34.0282 51.9654 34.1483 52.0254 34.2683 52.0254C34.3883 52.0254 34.5684 51.9654 34.6884 51.8454C34.8084 51.7254 34.8084 51.6054 34.8084 51.4254V50.3453C34.8084 50.0452 34.6284 49.8052 34.3283 49.8052C34.2083 49.8052 34.0282 49.8652 33.9682 49.9852C33.8482 50.1052 33.8482 50.2252 33.8482 50.4053V51.4254C33.7882 51.6054 33.8482 51.7254 33.9082 51.8454Z" fill="url(#paint60_linear)"/>
<path d="M33.7882 57.2459C33.6082 57.486 33.3081 57.606 33.008 57.606C32.7079 57.606 32.4079 57.486 32.2278 57.3059C31.9877 57.0659 31.9277 56.7659 31.9277 56.4658V55.3857C31.9277 55.0857 31.9878 54.8457 32.1678 54.6056C32.3478 54.3656 32.7079 54.2456 33.008 54.2456C33.3081 54.2456 33.6082 54.3656 33.7882 54.5456C34.0283 54.7857 34.0883 55.0857 34.0883 55.3857V56.4658C34.0283 56.7659 33.9682 57.0059 33.7882 57.2459ZM32.5879 56.8859C32.7079 57.0059 32.828 57.0659 32.948 57.0659C33.068 57.0659 33.2481 57.0059 33.3681 56.8859C33.4881 56.7659 33.4881 56.6459 33.4881 56.4658V55.3857C33.4881 55.0857 33.3081 54.8457 33.008 54.8457C32.888 54.8457 32.7079 54.9057 32.6479 55.0257C32.5279 55.1457 32.5279 55.2657 32.5279 55.4457V56.4658C32.4679 56.5859 32.4679 56.7659 32.5879 56.8859Z" fill="url(#paint61_linear)"/>
<path d="M39.4292 36.064V35.5239H40.3894V38.7043H39.7893V36.064H39.4292Z" fill="url(#paint62_linear)"/>
<path d="M49.4521 44.8848V44.3447H50.4124V47.5251H49.8122V44.8848H49.4521V44.8848Z" fill="url(#paint63_linear)"/>
<path d="M47.7119 49.8653V49.3252H48.6722V52.5055H48.072V49.8653H47.7119Z" fill="url(#paint64_linear)"/>
<path d="M31.208 49.8653V49.3252H32.1682V52.5055H31.5681V49.8653H31.208Z" fill="url(#paint65_linear)"/>
<path d="M35.1084 54.8457V54.3057H36.0686V57.486H35.4685V54.8457H35.1084V54.8457Z" fill="url(#paint66_linear)"/>
<path d="M43.811 54.8457V54.3057H44.7713V57.486H44.1711V54.8457H43.811V54.8457Z" fill="url(#paint67_linear)"/>
<path d="M49.0322 54.8457V54.3057H49.9925V57.486H49.3923V54.8457H49.0322V54.8457Z" fill="url(#paint68_linear)"/>
<path d="M45.8511 59.8867V59.3467H46.8113V62.527H46.2112V59.8867H45.8511Z" fill="url(#paint69_linear)"/>
<path d="M33.0679 59.8867V59.3467H34.0281V62.527H33.428V59.8867H33.0679Z" fill="url(#paint70_linear)"/>
<path d="M39.4292 63.6665V63.1265H40.3894V66.3068H39.7893V63.6665H39.4292Z" fill="url(#paint71_linear)"/>
<path d="M29.8271 54.8457V54.3057H30.7874V57.486H30.1872V54.8457H29.8271V54.8457Z" fill="url(#paint72_linear)"/>
<path d="M44.231 44.8848V44.3447H45.1912V47.5251H44.591V44.8848H44.231V44.8848Z" fill="url(#paint73_linear)"/>
<path d="M47.232 42.2445C47.052 42.4845 46.7519 42.6045 46.4518 42.6045C46.1518 42.6045 45.8517 42.4845 45.6717 42.3045C45.4316 42.0644 45.3716 41.7644 45.3716 41.4644V40.3843C45.3716 40.0842 45.4316 39.8442 45.6116 39.6042C45.7917 39.3642 46.1518 39.2441 46.4518 39.2441C46.7519 39.2441 47.052 39.3642 47.232 39.5442C47.4721 39.7842 47.5321 40.0842 47.5321 40.3843V41.4644C47.4721 41.7644 47.4121 42.0044 47.232 42.2445ZM46.0317 41.8844C46.1518 42.0044 46.2718 42.0644 46.3918 42.0644C46.5119 42.0644 46.6919 42.0044 46.8119 41.8844C46.932 41.7644 46.932 41.6444 46.932 41.4644V40.3843C46.932 40.0842 46.7519 39.8442 46.4518 39.8442C46.3318 39.8442 46.1518 39.9042 46.0918 40.0242C45.9717 40.1442 45.9717 40.2642 45.9717 40.4443V41.4644C45.9117 41.5844 45.9117 41.7644 46.0317 41.8844Z" fill="url(#paint74_linear)"/>
<path d="M43.4507 39.8443V39.3042H44.4109V42.4845H43.8108V39.8443H43.4507V39.8443Z" fill="url(#paint75_linear)"/>
<path d="M32.6477 42.2445C32.8278 42.4845 33.1279 42.6045 33.4279 42.6045C33.728 42.6045 34.0281 42.4845 34.2081 42.3045C34.4482 42.0644 34.5082 41.7644 34.5082 41.4644V40.3843C34.5082 40.0842 34.4482 39.8442 34.2681 39.6042C34.0881 39.3642 33.728 39.2441 33.4279 39.2441C33.1279 39.2441 32.8278 39.3642 32.6477 39.5442C32.4077 39.7842 32.3477 40.0842 32.3477 40.3843V41.4644C32.3477 41.7644 32.4077 42.0044 32.6477 42.2445ZM33.848 41.8844C33.728 42.0044 33.608 42.0644 33.4879 42.0644C33.3679 42.0644 33.1879 42.0044 33.0678 41.8844C32.9478 41.7644 32.9478 41.6444 32.9478 41.4644V40.3843C32.9478 40.0842 33.1279 39.8442 33.4279 39.8442C33.548 39.8442 33.728 39.9042 33.788 40.0242C33.908 40.1442 33.908 40.2642 33.908 40.4443V41.4644C33.9681 41.5844 33.908 41.7644 33.848 41.8844Z" fill="url(#paint76_linear)"/>
<path d="M35.4082 39.8443V39.3042H36.3684V42.4845H35.7683V39.8443H35.4082V39.8443Z" fill="url(#paint77_linear)"/>
<path d="M34.6279 44.8848V44.3447H35.5882V47.5251H34.988V44.8848H34.6279V44.8848Z" fill="url(#paint78_linear)"/>
<path d="M29.4072 44.8848V44.3447H30.3675V47.5251H29.7673V44.8848H29.4072V44.8848Z" fill="url(#paint79_linear)"/>
<defs>
<linearGradient id="paint0_linear" x1="47.9562" y1="37.5454" x2="47.9562" y2="19.0364" gradientUnits="userSpaceOnUse">
<stop stop-color="#CB9911"/>
<stop offset="0.034106" stop-color="#CF9E13"/>
<stop offset="0.2703" stop-color="#E4B91C"/>
<stop offset="0.5095" stop-color="#F3CC23"/>
<stop offset="0.7514" stop-color="#FCD828"/>
<stop offset="1" stop-color="#FFDC29"/>
</linearGradient>
<linearGradient id="paint1_linear" x1="32.1189" y1="37.5454" x2="32.1189" y2="19.0569" gradientUnits="userSpaceOnUse">
<stop stop-color="#CB9911"/>
<stop offset="0.034106" stop-color="#CF9E13"/>
<stop offset="0.2703" stop-color="#E4B91C"/>
<stop offset="0.5095" stop-color="#F3CC23"/>
<stop offset="0.7514" stop-color="#FCD828"/>
<stop offset="1" stop-color="#FFDC29"/>
</linearGradient>
<linearGradient id="paint2_linear" x1="39.997" y1="87.363" x2="39.997" y2="14.4776" gradientUnits="userSpaceOnUse">
<stop stop-color="#CB9911"/>
<stop offset="0.0443895" stop-color="#D09F13"/>
<stop offset="0.2737" stop-color="#E4BA1D"/>
<stop offset="0.5076" stop-color="#F3CD24"/>
<stop offset="0.747" stop-color="#FCD828"/>
<stop offset="1" stop-color="#FFDC29"/>
</linearGradient>
<linearGradient id="paint3_linear" x1="44.2536" y1="19.4052" x2="44.2536" y2="13.2734" gradientUnits="userSpaceOnUse">
<stop stop-color="#086432"/>
<stop offset="0.1729" stop-color="#077E37"/>
<stop offset="0.3754" stop-color="#06963B"/>
<stop offset="0.5" stop-color="#069F3D"/>
<stop offset="0.6246" stop-color="#06963B"/>
<stop offset="0.8271" stop-color="#077E37"/>
<stop offset="1" stop-color="#086432"/>
</linearGradient>
<linearGradient id="paint4_linear" x1="45.3626" y1="5.85152" x2="41.5601" y2="14.0073" gradientUnits="userSpaceOnUse">
<stop offset="0.4" stop-color="#FFDC29"/>
<stop offset="0.642" stop-color="#E5BA1D"/>
<stop offset="0.8639" stop-color="#D2A214"/>
<stop offset="1" stop-color="#CB9911"/>
</linearGradient>
<linearGradient id="paint5_linear" x1="38.8918" y1="5.142" x2="38.8918" y2="-0.0240625" gradientUnits="userSpaceOnUse">
<stop stop-color="#FFDC29"/>
<stop offset="0.2269" stop-color="#F8D326"/>
<stop offset="0.5967" stop-color="#E5BB1D"/>
<stop offset="1" stop-color="#CB9911"/>
</linearGradient>
<linearGradient id="paint6_linear" x1="63.1459" y1="18.0407" x2="67.1644" y2="17.251" gradientUnits="userSpaceOnUse">
<stop stop-color="#086432"/>
<stop offset="0.3459" stop-color="#077E37"/>
<stop offset="0.7508" stop-color="#06963B"/>
<stop offset="1" stop-color="#069F3D"/>
</linearGradient>
<linearGradient id="paint7_linear" x1="58.3377" y1="17.7497" x2="69.6449" y2="6.44088" gradientUnits="userSpaceOnUse">
<stop stop-color="#086432"/>
<stop offset="0.0972721" stop-color="#077E37"/>
<stop offset="0.2112" stop-color="#06963B"/>
<stop offset="0.2813" stop-color="#069F3D"/>
<stop offset="0.3438" stop-color="#06963B"/>
<stop offset="0.4454" stop-color="#077E37"/>
<stop offset="0.5321" stop-color="#086432"/>
</linearGradient>
<linearGradient id="paint8_linear" x1="58.9563" y1="15.5236" x2="68.2357" y2="6.2429" gradientUnits="userSpaceOnUse">
<stop stop-color="#086432"/>
<stop offset="0.0358998" stop-color="#0C6B33" stop-opacity="0.8621"/>
<stop offset="0.1749" stop-color="#188436" stop-opacity="0.3283"/>
<stop offset="0.2604" stop-color="#1C8D38" stop-opacity="0"/>
</linearGradient>
<linearGradient id="paint9_linear" x1="16.9091" y1="18.0407" x2="12.8906" y2="17.251" gradientUnits="userSpaceOnUse">
<stop stop-color="#086432"/>
<stop offset="0.3459" stop-color="#077E37"/>
<stop offset="0.7508" stop-color="#06963B"/>
<stop offset="1" stop-color="#069F3D"/>
</linearGradient>
<linearGradient id="paint10_linear" x1="21.7169" y1="17.7493" x2="10.4098" y2="6.44039" gradientUnits="userSpaceOnUse">
<stop stop-color="#086432"/>
<stop offset="0.0972721" stop-color="#077E37"/>
<stop offset="0.2112" stop-color="#06963B"/>
<stop offset="0.2813" stop-color="#069F3D"/>
<stop offset="0.3438" stop-color="#06963B"/>
<stop offset="0.4454" stop-color="#077E37"/>
<stop offset="0.5321" stop-color="#086432"/>
</linearGradient>
<linearGradient id="paint11_linear" x1="21.0987" y1="15.5231" x2="11.8194" y2="6.24242" gradientUnits="userSpaceOnUse">
<stop stop-color="#086432"/>
<stop offset="0.0358998" stop-color="#0C6B33" stop-opacity="0.8621"/>
<stop offset="0.1749" stop-color="#188436" stop-opacity="0.3283"/>
<stop offset="0.2604" stop-color="#1C8D38" stop-opacity="0"/>
</linearGradient>
<linearGradient id="paint12_linear" x1="52.5586" y1="25.6424" x2="57.8726" y2="20.3277" gradientUnits="userSpaceOnUse">
<stop stop-color="#CB9911"/>
<stop offset="0.497" stop-color="#F5CF24"/>
<stop offset="0.6089" stop-color="#FFDC29"/>
</linearGradient>
<linearGradient id="paint13_linear" x1="28.057" y1="22.5265" x2="21.613" y2="22.5265" gradientUnits="userSpaceOnUse">
<stop stop-color="#CB9911"/>
<stop offset="0.497" stop-color="#F5CF24"/>
<stop offset="0.6089" stop-color="#FFDC29"/>
</linearGradient>
<linearGradient id="paint14_linear" x1="34.7309" y1="5.85152" x2="38.5335" y2="14.0073" gradientUnits="userSpaceOnUse">
<stop offset="0.4" stop-color="#FFDC29"/>
<stop offset="0.642" stop-color="#E5BA1D"/>
<stop offset="0.8639" stop-color="#D2A214"/>
<stop offset="1" stop-color="#CB9911"/>
</linearGradient>
<linearGradient id="paint15_linear" x1="35.801" y1="19.7866" x2="35.801" y2="13.3014" gradientUnits="userSpaceOnUse">
<stop stop-color="#086432"/>
<stop offset="0.1729" stop-color="#077E37"/>
<stop offset="0.3754" stop-color="#06963B"/>
<stop offset="0.5" stop-color="#069F3D"/>
<stop offset="0.6246" stop-color="#06963B"/>
<stop offset="0.8271" stop-color="#077E37"/>
<stop offset="1" stop-color="#086432"/>
</linearGradient>
<linearGradient id="paint16_linear" x1="50.4694" y1="12.8456" x2="50.4694" y2="9.02072" gradientUnits="userSpaceOnUse">
<stop stop-color="#FFDC29"/>
<stop offset="0.2269" stop-color="#F8D326"/>
<stop offset="0.5967" stop-color="#E5BB1D"/>
<stop offset="1" stop-color="#CB9911"/>
</linearGradient>
<linearGradient id="paint17_linear" x1="53.867" y1="18.2063" x2="53.867" y2="12.9785" gradientUnits="userSpaceOnUse">
<stop stop-color="#CB9911"/>
<stop offset="0.0418994" stop-color="#CB9911"/>
<stop offset="0.1739" stop-color="#D3A315"/>
<stop offset="0.399" stop-color="#E8BE1E"/>
<stop offset="0.6" stop-color="#FFDC29"/>
</linearGradient>
<linearGradient id="paint18_linear" x1="48.9997" y1="18.7701" x2="48.9997" y2="12.9784" gradientUnits="userSpaceOnUse">
<stop stop-color="#CB9911"/>
<stop offset="0.1361" stop-color="#D2A214"/>
<stop offset="0.358" stop-color="#E5BA1D"/>
<stop offset="0.6" stop-color="#FFDC29"/>
</linearGradient>
<linearGradient id="paint19_linear" x1="29.5983" y1="12.8456" x2="29.5983" y2="9.02072" gradientUnits="userSpaceOnUse">
<stop stop-color="#FFDC29"/>
<stop offset="0.2269" stop-color="#F8D326"/>
<stop offset="0.5967" stop-color="#E5BB1D"/>
<stop offset="1" stop-color="#CB9911"/>
</linearGradient>
<linearGradient id="paint20_linear" x1="26.2006" y1="18.2063" x2="26.2006" y2="12.9785" gradientUnits="userSpaceOnUse">
<stop stop-color="#CB9911"/>
<stop offset="0.1361" stop-color="#D2A214"/>
<stop offset="0.358" stop-color="#E5BA1D"/>
<stop offset="0.6" stop-color="#FFDC29"/>
</linearGradient>
<linearGradient id="paint21_linear" x1="31.0676" y1="18.7701" x2="31.0676" y2="12.9784" gradientUnits="userSpaceOnUse">
<stop stop-color="#CB9911"/>
<stop offset="0.1361" stop-color="#D2A214"/>
<stop offset="0.358" stop-color="#E5BA1D"/>
<stop offset="0.6" stop-color="#FFDC29"/>
</linearGradient>
<linearGradient id="paint22_linear" x1="37.8282" y1="21.0169" x2="24.9853" y2="21.0169" gradientUnits="userSpaceOnUse">
<stop stop-color="#CB9911"/>
<stop offset="0.118" stop-color="#D0A315" stop-opacity="0.7929"/>
<stop offset="0.3162" stop-color="#DDBD20" stop-opacity="0.4451"/>
<stop offset="0.5689" stop-color="#F3E731" stop-opacity="0.01"/>
<stop offset="0.5698" stop-color="#F3E731" stop-opacity="0"/>
</linearGradient>
<linearGradient id="paint23_linear" x1="43.4597" y1="23.4227" x2="53.8626" y2="17.4157" gradientUnits="userSpaceOnUse">
<stop stop-color="#CB9911"/>
<stop offset="0.118" stop-color="#D0A315" stop-opacity="0.7929"/>
<stop offset="0.3162" stop-color="#DDBD20" stop-opacity="0.4451"/>
<stop offset="0.5689" stop-color="#F3E731" stop-opacity="0.01"/>
<stop offset="0.5698" stop-color="#F3E731" stop-opacity="0"/>
</linearGradient>
<linearGradient id="paint24_linear" x1="56.3418" y1="87.4369" x2="56.3418" y2="14.478" gradientUnits="userSpaceOnUse">
<stop stop-color="#CB9911"/>
<stop offset="0.1112" stop-color="#D4AA18"/>
<stop offset="0.3244" stop-color="#E1C523"/>
<stop offset="0.542" stop-color="#EBD82B"/>
<stop offset="0.7646" stop-color="#F1E32F"/>
<stop offset="1" stop-color="#F3E731"/>
</linearGradient>
<linearGradient id="paint25_linear" x1="68.4677" y1="87.437" x2="68.4677" y2="14.4779" gradientUnits="userSpaceOnUse">
<stop stop-color="#CB9911"/>
<stop offset="0.1112" stop-color="#D4AA18"/>
<stop offset="0.3244" stop-color="#E1C523"/>
<stop offset="0.542" stop-color="#EBD82B"/>
<stop offset="0.7646" stop-color="#F1E32F"/>
<stop offset="1" stop-color="#F3E731"/>
</linearGradient>
<linearGradient id="paint26_linear" x1="54.5255" y1="58.7395" x2="62.2182" y2="58.7395" gradientUnits="userSpaceOnUse">
<stop stop-color="#CB9911"/>
<stop offset="0.1159" stop-color="#CE9D12" stop-opacity="0.7406"/>
<stop offset="0.2215" stop-color="#D6A816" stop-opacity="0.5045"/>
<stop offset="0.323" stop-color="#E5BA1D" stop-opacity="0.2773"/>
<stop offset="0.4215" stop-color="#F9D426" stop-opacity="0.056958"/>
<stop offset="0.4469" stop-color="#FFDC29" stop-opacity="0"/>
</linearGradient>
<linearGradient id="paint27_linear" x1="58.381" y1="55.0494" x2="68.5464" y2="55.0494" gradientUnits="userSpaceOnUse">
<stop stop-color="#CB9911"/>
<stop offset="0.1159" stop-color="#CE9D12" stop-opacity="0.7406"/>
<stop offset="0.2215" stop-color="#D6A816" stop-opacity="0.5045"/>
<stop offset="0.323" stop-color="#E5BA1D" stop-opacity="0.2773"/>
<stop offset="0.4215" stop-color="#F9D426" stop-opacity="0.056958"/>
<stop offset="0.4469" stop-color="#FFDC29" stop-opacity="0"/>
</linearGradient>
<linearGradient id="paint28_linear" x1="61.6822" y1="49.8742" x2="74.2857" y2="49.8742" gradientUnits="userSpaceOnUse">
<stop stop-color="#CB9911"/>
<stop offset="0.1159" stop-color="#CE9D12" stop-opacity="0.7406"/>
<stop offset="0.2215" stop-color="#D6A816" stop-opacity="0.5045"/>
<stop offset="0.323" stop-color="#E5BA1D" stop-opacity="0.2773"/>
<stop offset="0.4215" stop-color="#F9D426" stop-opacity="0.056958"/>
<stop offset="0.4469" stop-color="#FFDC29" stop-opacity="0"/>
</linearGradient>
<linearGradient id="paint29_linear" x1="63.8372" y1="42.3214" x2="78.4779" y2="42.3214" gradientUnits="userSpaceOnUse">
<stop stop-color="#CB9911"/>
<stop offset="0.1159" stop-color="#CE9D12" stop-opacity="0.7406"/>
<stop offset="0.2215" stop-color="#D6A816" stop-opacity="0.5045"/>
<stop offset="0.323" stop-color="#E5BA1D" stop-opacity="0.2773"/>
<stop offset="0.4215" stop-color="#F9D426" stop-opacity="0.056958"/>
<stop offset="0.4469" stop-color="#FFDC29" stop-opacity="0"/>
</linearGradient>
<linearGradient id="paint30_linear" x1="64.1319" y1="33.7319" x2="79.9984" y2="33.7319" gradientUnits="userSpaceOnUse">
<stop stop-color="#CB9911"/>
<stop offset="0.1159" stop-color="#CE9D12" stop-opacity="0.7406"/>
<stop offset="0.2215" stop-color="#D6A816" stop-opacity="0.5045"/>
<stop offset="0.323" stop-color="#E5BA1D" stop-opacity="0.2773"/>
<stop offset="0.4215" stop-color="#F9D426" stop-opacity="0.056958"/>
<stop offset="0.4469" stop-color="#FFDC29" stop-opacity="0"/>
</linearGradient>
<linearGradient id="paint31_linear" x1="50.6123" y1="61.1517" x2="56.0684" y2="61.1517" gradientUnits="userSpaceOnUse">
<stop stop-color="#CB9911"/>
<stop offset="0.1159" stop-color="#CE9D12" stop-opacity="0.7406"/>
<stop offset="0.2215" stop-color="#D6A816" stop-opacity="0.5045"/>
<stop offset="0.323" stop-color="#E5BA1D" stop-opacity="0.2773"/>
<stop offset="0.4215" stop-color="#F9D426" stop-opacity="0.056958"/>
<stop offset="0.4469" stop-color="#FFDC29" stop-opacity="0"/>
</linearGradient>
<linearGradient id="paint32_linear" x1="25.4683" y1="58.7395" x2="17.7756" y2="58.7395" gradientUnits="userSpaceOnUse">
<stop stop-color="#CB9911"/>
<stop offset="0.1159" stop-color="#CE9D12" stop-opacity="0.7406"/>
<stop offset="0.2215" stop-color="#D6A816" stop-opacity="0.5045"/>
<stop offset="0.323" stop-color="#E5BA1D" stop-opacity="0.2773"/>
<stop offset="0.4215" stop-color="#F9D426" stop-opacity="0.056958"/>
<stop offset="0.4469" stop-color="#FFDC29" stop-opacity="0"/>
</linearGradient>
<linearGradient id="paint33_linear" x1="21.6127" y1="55.0494" x2="11.4473" y2="55.0494" gradientUnits="userSpaceOnUse">
<stop stop-color="#CB9911"/>
<stop offset="0.1159" stop-color="#CE9D12" stop-opacity="0.7406"/>
<stop offset="0.2215" stop-color="#D6A816" stop-opacity="0.5045"/>
<stop offset="0.323" stop-color="#E5BA1D" stop-opacity="0.2773"/>
<stop offset="0.4215" stop-color="#F9D426" stop-opacity="0.056958"/>
<stop offset="0.4469" stop-color="#FFDC29" stop-opacity="0"/>
</linearGradient>
<linearGradient id="paint34_linear" x1="18.3115" y1="49.8742" x2="5.70801" y2="49.8742" gradientUnits="userSpaceOnUse">
<stop stop-color="#CB9911"/>
<stop offset="0.1159" stop-color="#CE9D12" stop-opacity="0.7406"/>
<stop offset="0.2215" stop-color="#D6A816" stop-opacity="0.5045"/>
<stop offset="0.323" stop-color="#E5BA1D" stop-opacity="0.2773"/>
<stop offset="0.4215" stop-color="#F9D426" stop-opacity="0.056958"/>
<stop offset="0.4469" stop-color="#FFDC29" stop-opacity="0"/>
</linearGradient>
<linearGradient id="paint35_linear" x1="16.1563" y1="42.3214" x2="1.51567" y2="42.3214" gradientUnits="userSpaceOnUse">
<stop stop-color="#CB9911"/>
<stop offset="0.1159" stop-color="#CE9D12" stop-opacity="0.7406"/>
<stop offset="0.2215" stop-color="#D6A816" stop-opacity="0.5045"/>
<stop offset="0.323" stop-color="#E5BA1D" stop-opacity="0.2773"/>
<stop offset="0.4215" stop-color="#F9D426" stop-opacity="0.056958"/>
<stop offset="0.4469" stop-color="#FFDC29" stop-opacity="0"/>
</linearGradient>
<linearGradient id="paint36_linear" x1="15.8621" y1="33.7319" x2="-0.00438151" y2="33.7319" gradientUnits="userSpaceOnUse">
<stop stop-color="#CB9911"/>
<stop offset="0.1159" stop-color="#CE9D12" stop-opacity="0.7406"/>
<stop offset="0.2215" stop-color="#D6A816" stop-opacity="0.5045"/>
<stop offset="0.323" stop-color="#E5BA1D" stop-opacity="0.2773"/>
<stop offset="0.4215" stop-color="#F9D426" stop-opacity="0.056958"/>
<stop offset="0.4469" stop-color="#FFDC29" stop-opacity="0"/>
</linearGradient>
<linearGradient id="paint37_linear" x1="29.3816" y1="61.1517" x2="23.9255" y2="61.1517" gradientUnits="userSpaceOnUse">
<stop stop-color="#CB9911"/>
<stop offset="0.1159" stop-color="#CE9D12" stop-opacity="0.7406"/>
<stop offset="0.2215" stop-color="#D6A816" stop-opacity="0.5045"/>
<stop offset="0.323" stop-color="#E5BA1D" stop-opacity="0.2773"/>
<stop offset="0.4215" stop-color="#F9D426" stop-opacity="0.056958"/>
<stop offset="0.4469" stop-color="#FFDC29" stop-opacity="0"/>
</linearGradient>
<linearGradient id="paint38_linear" x1="58.7049" y1="65.686" x2="58.7049" y2="62.6465" gradientUnits="userSpaceOnUse">
<stop stop-color="#FFDC29"/>
<stop offset="0.2269" stop-color="#F8D326"/>
<stop offset="0.5967" stop-color="#E5BB1D"/>
<stop offset="1" stop-color="#CB9911"/>
</linearGradient>
<linearGradient id="paint39_linear" x1="10.5434" y1="59.9308" x2="10.5434" y2="57.5827" gradientUnits="userSpaceOnUse">
<stop stop-color="#FFDC29"/>
<stop offset="0.2269" stop-color="#F8D326"/>
<stop offset="0.5967" stop-color="#E5BB1D"/>
<stop offset="1" stop-color="#CB9911"/>
</linearGradient>
<linearGradient id="paint40_linear" x1="60.0746" y1="72.4448" x2="57.4622" y2="64.6686" gradientUnits="userSpaceOnUse">
<stop stop-color="#CB9911"/>
<stop offset="0.034966" stop-color="#D09F13"/>
<stop offset="0.2156" stop-color="#E4BA1D"/>
<stop offset="0.3998" stop-color="#F3CD24"/>
<stop offset="0.5884" stop-color="#FCD828"/>
<stop offset="0.7877" stop-color="#FFDC29"/>
</linearGradient>
<linearGradient id="paint41_linear" x1="20.4992" y1="66.6886" x2="14.3113" y2="61.6032" gradientUnits="userSpaceOnUse">
<stop stop-color="#CB9911"/>
<stop offset="0.0443895" stop-color="#D09F13"/>
<stop offset="0.2737" stop-color="#E4BA1D"/>
<stop offset="0.5076" stop-color="#F3CD24"/>
<stop offset="0.747" stop-color="#FCD828"/>
<stop offset="1" stop-color="#FFDC29"/>
</linearGradient>
<linearGradient id="paint42_linear" x1="27.65" y1="72.7195" x2="25.5652" y2="71.0062" gradientUnits="userSpaceOnUse">
<stop stop-color="#FFDC29"/>
<stop offset="0.253" stop-color="#FCD828"/>
<stop offset="0.4924" stop-color="#F3CD24"/>
<stop offset="0.7263" stop-color="#E4BA1D"/>
<stop offset="0.9556" stop-color="#D09F13"/>
<stop offset="1" stop-color="#CB9911"/>
</linearGradient>
<linearGradient id="paint43_linear" x1="45.6935" y1="70.0594" x2="45.6935" y2="69.9858" gradientUnits="userSpaceOnUse">
<stop stop-color="#CB9911"/>
<stop offset="0.1112" stop-color="#D4AA18"/>
<stop offset="0.3244" stop-color="#E1C523"/>
<stop offset="0.542" stop-color="#EBD82B"/>
<stop offset="0.7646" stop-color="#F1E32F"/>
<stop offset="1" stop-color="#F3E731"/>
</linearGradient>
<linearGradient id="paint44_linear" x1="40.4529" y1="87.3632" x2="40.4529" y2="66.72" gradientUnits="userSpaceOnUse">
<stop stop-color="#FFDC29"/>
<stop offset="0.253" stop-color="#FCD828"/>
<stop offset="0.4924" stop-color="#F3CD24"/>
<stop offset="0.7263" stop-color="#E4BA1D"/>
<stop offset="0.9556" stop-color="#D09F13"/>
<stop offset="1" stop-color="#CB9911"/>
</linearGradient>
<linearGradient id="paint45_linear" x1="39.9338" y1="62.3534" x2="39.9338" y2="45.2875" gradientUnits="userSpaceOnUse">
<stop stop-color="#CB9911"/>
<stop offset="0.0443895" stop-color="#D09F13"/>
<stop offset="0.2737" stop-color="#E4BA1D"/>
<stop offset="0.5076" stop-color="#F3CD24"/>
<stop offset="0.747" stop-color="#FCD828"/>
<stop offset="1" stop-color="#FFDC29"/>
</linearGradient>
<linearGradient id="paint46_linear" x1="39.9337" y1="62.3536" x2="39.9337" y2="58.3031" gradientUnits="userSpaceOnUse">
<stop stop-color="#CB9911"/>
<stop offset="0.0443895" stop-color="#D09F13"/>
<stop offset="0.2737" stop-color="#E4BA1D"/>
<stop offset="0.5076" stop-color="#F3CD24"/>
<stop offset="0.747" stop-color="#FCD828"/>
<stop offset="1" stop-color="#FFDC29"/>
</linearGradient>
<linearGradient id="paint47_linear" x1="39.934" y1="51.4983" x2="39.934" y2="47.7179" gradientUnits="userSpaceOnUse">
<stop stop-color="#CB9911"/>
<stop offset="0.0443895" stop-color="#D09F13"/>
<stop offset="0.2737" stop-color="#E4BA1D"/>
<stop offset="0.5076" stop-color="#F3CD24"/>
<stop offset="0.747" stop-color="#FCD828"/>
<stop offset="1" stop-color="#FFDC29"/>
</linearGradient>
<linearGradient id="paint48_linear" x1="39.9266" y1="44.7473" x2="39.9266" y2="40.7509" gradientUnits="userSpaceOnUse">
<stop stop-color="#CB9911"/>
<stop offset="0.0443895" stop-color="#D09F13"/>
<stop offset="0.2737" stop-color="#E4BA1D"/>
<stop offset="0.5076" stop-color="#F3CD24"/>
<stop offset="0.747" stop-color="#FCD828"/>
<stop offset="1" stop-color="#FFDC29"/>
</linearGradient>
<linearGradient id="paint49_linear" x1="39.9334" y1="41.6815" x2="39.9334" y2="39.1957" gradientUnits="userSpaceOnUse">
<stop stop-color="#CB9911"/>
<stop offset="0.0443895" stop-color="#D09F13"/>
<stop offset="0.2737" stop-color="#E4BA1D"/>
<stop offset="0.5076" stop-color="#F3CD24"/>
<stop offset="0.747" stop-color="#FCD828"/>
<stop offset="1" stop-color="#FFDC29"/>
</linearGradient>
<linearGradient id="paint50_linear" x1="37.2965" y1="38.7832" x2="37.2965" y2="35.4391" gradientUnits="userSpaceOnUse">
<stop stop-color="#CB9911"/>
<stop offset="0.0443895" stop-color="#D09F13"/>
<stop offset="0.2737" stop-color="#E4BA1D"/>
<stop offset="0.5076" stop-color="#F3CD24"/>
<stop offset="0.747" stop-color="#FCD828"/>
<stop offset="1" stop-color="#FFDC29"/>
</linearGradient>
<linearGradient id="paint51_linear" x1="42.5713" y1="38.7832" x2="42.5713" y2="35.4391" gradientUnits="userSpaceOnUse">
<stop stop-color="#CB9911"/>
<stop offset="0.0443895" stop-color="#D09F13"/>
<stop offset="0.2737" stop-color="#E4BA1D"/>
<stop offset="0.5076" stop-color="#F3CD24"/>
<stop offset="0.747" stop-color="#FCD828"/>
<stop offset="1" stop-color="#FFDC29"/>
</linearGradient>
<linearGradient id="paint52_linear" x1="47.3415" y1="47.6017" x2="47.3415" y2="44.2576" gradientUnits="userSpaceOnUse">
<stop stop-color="#CB9911"/>
<stop offset="0.0443895" stop-color="#D09F13"/>
<stop offset="0.2737" stop-color="#E4BA1D"/>
<stop offset="0.5076" stop-color="#F3CD24"/>
<stop offset="0.747" stop-color="#FCD828"/>
<stop offset="1" stop-color="#FFDC29"/>
</linearGradient>
<linearGradient id="paint53_linear" x1="45.5576" y1="52.6023" x2="45.5576" y2="49.2582" gradientUnits="userSpaceOnUse">
<stop stop-color="#CB9911"/>
<stop offset="0.0443895" stop-color="#D09F13"/>
<stop offset="0.2737" stop-color="#E4BA1D"/>
<stop offset="0.5076" stop-color="#F3CD24"/>
<stop offset="0.747" stop-color="#FCD828"/>
<stop offset="1" stop-color="#FFDC29"/>
</linearGradient>
<linearGradient id="paint54_linear" x1="50.8329" y1="52.6023" x2="50.8329" y2="49.2582" gradientUnits="userSpaceOnUse">
<stop stop-color="#CB9911"/>
<stop offset="0.0443895" stop-color="#D09F13"/>
<stop offset="0.2737" stop-color="#E4BA1D"/>
<stop offset="0.5076" stop-color="#F3CD24"/>
<stop offset="0.747" stop-color="#FCD828"/>
<stop offset="1" stop-color="#FFDC29"/>
</linearGradient>
<linearGradient id="paint55_linear" x1="46.9046" y1="57.6028" x2="46.9046" y2="54.2587" gradientUnits="userSpaceOnUse">
<stop stop-color="#CB9911"/>
<stop offset="0.0443895" stop-color="#D09F13"/>
<stop offset="0.2737" stop-color="#E4BA1D"/>
<stop offset="0.5076" stop-color="#F3CD24"/>
<stop offset="0.747" stop-color="#FCD828"/>
<stop offset="1" stop-color="#FFDC29"/>
</linearGradient>
<linearGradient id="paint56_linear" x1="42.5713" y1="66.4213" x2="42.5713" y2="63.0772" gradientUnits="userSpaceOnUse">
<stop stop-color="#CB9911"/>
<stop offset="0.0443895" stop-color="#D09F13"/>
<stop offset="0.2737" stop-color="#E4BA1D"/>
<stop offset="0.5076" stop-color="#F3CD24"/>
<stop offset="0.747" stop-color="#FCD828"/>
<stop offset="1" stop-color="#FFDC29"/>
</linearGradient>
<linearGradient id="paint57_linear" x1="37.2965" y1="66.4213" x2="37.2965" y2="63.0772" gradientUnits="userSpaceOnUse">
<stop stop-color="#CB9911"/>
<stop offset="0.0443895" stop-color="#D09F13"/>
<stop offset="0.2737" stop-color="#E4BA1D"/>
<stop offset="0.5076" stop-color="#F3CD24"/>
<stop offset="0.747" stop-color="#FCD828"/>
<stop offset="1" stop-color="#FFDC29"/>
</linearGradient>
<linearGradient id="paint58_linear" x1="32.5258" y1="47.6017" x2="32.5258" y2="44.2576" gradientUnits="userSpaceOnUse">
<stop stop-color="#CB9911"/>
<stop offset="0.0443895" stop-color="#D09F13"/>
<stop offset="0.2737" stop-color="#E4BA1D"/>
<stop offset="0.5076" stop-color="#F3CD24"/>
<stop offset="0.747" stop-color="#FCD828"/>
<stop offset="1" stop-color="#FFDC29"/>
</linearGradient>
<linearGradient id="paint59_linear" x1="29.0349" y1="52.6023" x2="29.0349" y2="49.2582" gradientUnits="userSpaceOnUse">
<stop stop-color="#CB9911"/>
<stop offset="0.0443895" stop-color="#D09F13"/>
<stop offset="0.2737" stop-color="#E4BA1D"/>
<stop offset="0.5076" stop-color="#F3CD24"/>
<stop offset="0.747" stop-color="#FCD828"/>
<stop offset="1" stop-color="#FFDC29"/>
</linearGradient>
<linearGradient id="paint60_linear" x1="34.3097" y1="52.6023" x2="34.3097" y2="49.2582" gradientUnits="userSpaceOnUse">
<stop stop-color="#CB9911"/>
<stop offset="0.0443895" stop-color="#D09F13"/>
<stop offset="0.2737" stop-color="#E4BA1D"/>
<stop offset="0.5076" stop-color="#F3CD24"/>
<stop offset="0.747" stop-color="#FCD828"/>
<stop offset="1" stop-color="#FFDC29"/>
</linearGradient>
<linearGradient id="paint61_linear" x1="32.9626" y1="57.6028" x2="32.9626" y2="54.2587" gradientUnits="userSpaceOnUse">
<stop stop-color="#CB9911"/>
<stop offset="0.0443895" stop-color="#D09F13"/>
<stop offset="0.2737" stop-color="#E4BA1D"/>
<stop offset="0.5076" stop-color="#F3CD24"/>
<stop offset="0.747" stop-color="#FCD828"/>
<stop offset="1" stop-color="#FFDC29"/>
</linearGradient>
<linearGradient id="paint62_linear" x1="39.9202" y1="38.7144" x2="39.9202" y2="35.5091" gradientUnits="userSpaceOnUse">
<stop stop-color="#CB9911"/>
<stop offset="0.0443895" stop-color="#D09F13"/>
<stop offset="0.2737" stop-color="#E4BA1D"/>
<stop offset="0.5076" stop-color="#F3CD24"/>
<stop offset="0.747" stop-color="#FCD828"/>
<stop offset="1" stop-color="#FFDC29"/>
</linearGradient>
<linearGradient id="paint63_linear" x1="49.9586" y1="47.5287" x2="49.9586" y2="44.3234" gradientUnits="userSpaceOnUse">
<stop stop-color="#CB9911"/>
<stop offset="0.0443895" stop-color="#D09F13"/>
<stop offset="0.2737" stop-color="#E4BA1D"/>
<stop offset="0.5076" stop-color="#F3CD24"/>
<stop offset="0.747" stop-color="#FCD828"/>
<stop offset="1" stop-color="#FFDC29"/>
</linearGradient>
<linearGradient id="paint64_linear" x1="48.1954" y1="52.5292" x2="48.1954" y2="49.3239" gradientUnits="userSpaceOnUse">
<stop stop-color="#CB9911"/>
<stop offset="0.0443895" stop-color="#D09F13"/>
<stop offset="0.2737" stop-color="#E4BA1D"/>
<stop offset="0.5076" stop-color="#F3CD24"/>
<stop offset="0.747" stop-color="#FCD828"/>
<stop offset="1" stop-color="#FFDC29"/>
</linearGradient>
<linearGradient id="paint65_linear" x1="31.6727" y1="52.5292" x2="31.6727" y2="49.3239" gradientUnits="userSpaceOnUse">
<stop stop-color="#CB9911"/>
<stop offset="0.0443895" stop-color="#D09F13"/>
<stop offset="0.2737" stop-color="#E4BA1D"/>
<stop offset="0.5076" stop-color="#F3CD24"/>
<stop offset="0.747" stop-color="#FCD828"/>
<stop offset="1" stop-color="#FFDC29"/>
</linearGradient>
<linearGradient id="paint66_linear" x1="35.5793" y1="57.5297" x2="35.5793" y2="54.3244" gradientUnits="userSpaceOnUse">
<stop stop-color="#CB9911"/>
<stop offset="0.0443895" stop-color="#D09F13"/>
<stop offset="0.2737" stop-color="#E4BA1D"/>
<stop offset="0.5076" stop-color="#F3CD24"/>
<stop offset="0.747" stop-color="#FCD828"/>
<stop offset="1" stop-color="#FFDC29"/>
</linearGradient>
<linearGradient id="paint67_linear" x1="44.2883" y1="57.5297" x2="44.2883" y2="54.3244" gradientUnits="userSpaceOnUse">
<stop stop-color="#CB9911"/>
<stop offset="0.0443895" stop-color="#D09F13"/>
<stop offset="0.2737" stop-color="#E4BA1D"/>
<stop offset="0.5076" stop-color="#F3CD24"/>
<stop offset="0.747" stop-color="#FCD828"/>
<stop offset="1" stop-color="#FFDC29"/>
</linearGradient>
<linearGradient id="paint68_linear" x1="49.5218" y1="57.5297" x2="49.5218" y2="54.3244" gradientUnits="userSpaceOnUse">
<stop stop-color="#CB9911"/>
<stop offset="0.0443895" stop-color="#D09F13"/>
<stop offset="0.2737" stop-color="#E4BA1D"/>
<stop offset="0.5076" stop-color="#F3CD24"/>
<stop offset="0.747" stop-color="#FCD828"/>
<stop offset="1" stop-color="#FFDC29"/>
</linearGradient>
<linearGradient id="paint69_linear" x1="46.3229" y1="62.5307" x2="46.3229" y2="59.3254" gradientUnits="userSpaceOnUse">
<stop stop-color="#CB9911"/>
<stop offset="0.0443895" stop-color="#D09F13"/>
<stop offset="0.2737" stop-color="#E4BA1D"/>
<stop offset="0.5076" stop-color="#F3CD24"/>
<stop offset="0.747" stop-color="#FCD828"/>
<stop offset="1" stop-color="#FFDC29"/>
</linearGradient>
<linearGradient id="paint70_linear" x1="33.5442" y1="62.5307" x2="33.5442" y2="59.3254" gradientUnits="userSpaceOnUse">
<stop stop-color="#CB9911"/>
<stop offset="0.0443895" stop-color="#D09F13"/>
<stop offset="0.2737" stop-color="#E4BA1D"/>
<stop offset="0.5076" stop-color="#F3CD24"/>
<stop offset="0.747" stop-color="#FCD828"/>
<stop offset="1" stop-color="#FFDC29"/>
</linearGradient>
<linearGradient id="paint71_linear" x1="39.9333" y1="66.3477" x2="39.9333" y2="63.1424" gradientUnits="userSpaceOnUse">
<stop stop-color="#CB9911"/>
<stop offset="0.0443895" stop-color="#D09F13"/>
<stop offset="0.2737" stop-color="#E4BA1D"/>
<stop offset="0.5076" stop-color="#F3CD24"/>
<stop offset="0.747" stop-color="#FCD828"/>
<stop offset="1" stop-color="#FFDC29"/>
</linearGradient>
<linearGradient id="paint72_linear" x1="30.3458" y1="57.5297" x2="30.3458" y2="54.3244" gradientUnits="userSpaceOnUse">
<stop stop-color="#CB9911"/>
<stop offset="0.0443895" stop-color="#D09F13"/>
<stop offset="0.2737" stop-color="#E4BA1D"/>
<stop offset="0.5076" stop-color="#F3CD24"/>
<stop offset="0.747" stop-color="#FCD828"/>
<stop offset="1" stop-color="#FFDC29"/>
</linearGradient>
<linearGradient id="paint73_linear" x1="44.7251" y1="47.5287" x2="44.7251" y2="44.3234" gradientUnits="userSpaceOnUse">
<stop stop-color="#CB9911"/>
<stop offset="0.0443895" stop-color="#D09F13"/>
<stop offset="0.2737" stop-color="#E4BA1D"/>
<stop offset="0.5076" stop-color="#F3CD24"/>
<stop offset="0.747" stop-color="#FCD828"/>
<stop offset="1" stop-color="#FFDC29"/>
</linearGradient>
<linearGradient id="paint74_linear" x1="46.4203" y1="42.5975" x2="46.4203" y2="39.2533" gradientUnits="userSpaceOnUse">
<stop stop-color="#CB9911"/>
<stop offset="0.0443895" stop-color="#D09F13"/>
<stop offset="0.2737" stop-color="#E4BA1D"/>
<stop offset="0.5076" stop-color="#F3CD24"/>
<stop offset="0.747" stop-color="#FCD828"/>
<stop offset="1" stop-color="#FFDC29"/>
</linearGradient>
<linearGradient id="paint75_linear" x1="43.9694" y1="42.5243" x2="43.9694" y2="39.319" gradientUnits="userSpaceOnUse">
<stop stop-color="#CB9911"/>
<stop offset="0.0443895" stop-color="#D09F13"/>
<stop offset="0.2737" stop-color="#E4BA1D"/>
<stop offset="0.5076" stop-color="#F3CD24"/>
<stop offset="0.747" stop-color="#FCD828"/>
<stop offset="1" stop-color="#FFDC29"/>
</linearGradient>
<linearGradient id="paint76_linear" x1="33.4472" y1="42.5975" x2="33.4472" y2="39.2533" gradientUnits="userSpaceOnUse">
<stop stop-color="#CB9911"/>
<stop offset="0.0443895" stop-color="#D09F13"/>
<stop offset="0.2737" stop-color="#E4BA1D"/>
<stop offset="0.5076" stop-color="#F3CD24"/>
<stop offset="0.747" stop-color="#FCD828"/>
<stop offset="1" stop-color="#FFDC29"/>
</linearGradient>
<linearGradient id="paint77_linear" x1="35.8975" y1="42.5243" x2="35.8975" y2="39.319" gradientUnits="userSpaceOnUse">
<stop stop-color="#CB9911"/>
<stop offset="0.0443895" stop-color="#D09F13"/>
<stop offset="0.2737" stop-color="#E4BA1D"/>
<stop offset="0.5076" stop-color="#F3CD24"/>
<stop offset="0.747" stop-color="#FCD828"/>
<stop offset="1" stop-color="#FFDC29"/>
</linearGradient>
<linearGradient id="paint78_linear" x1="35.142" y1="47.5287" x2="35.142" y2="44.3234" gradientUnits="userSpaceOnUse">
<stop stop-color="#CB9911"/>
<stop offset="0.0443895" stop-color="#D09F13"/>
<stop offset="0.2737" stop-color="#E4BA1D"/>
<stop offset="0.5076" stop-color="#F3CD24"/>
<stop offset="0.747" stop-color="#FCD828"/>
<stop offset="1" stop-color="#FFDC29"/>
</linearGradient>
<linearGradient id="paint79_linear" x1="29.909" y1="47.5287" x2="29.909" y2="44.3234" gradientUnits="userSpaceOnUse">
<stop stop-color="#CB9911"/>
<stop offset="0.0443895" stop-color="#D09F13"/>
<stop offset="0.2737" stop-color="#E4BA1D"/>
<stop offset="0.5076" stop-color="#F3CD24"/>
<stop offset="0.747" stop-color="#FCD828"/>
<stop offset="1" stop-color="#FFDC29"/>
</linearGradient>
</defs>
</svg>
