<svg width="56" height="56" viewBox="0 0 56 56" fill="none" xmlns="http://www.w3.org/2000/svg">
<g clip-path="url(#clip0)">
<path d="M1.06084 28.1584L5.52387 29.9191C6.11362 30.1516 6.75664 30.0288 7.21656 29.6434L10.7509 31.8723L11.357 32.2984C10.5881 33.5153 10.7851 35.1783 11.9542 36.1695C12.5966 36.7142 13.4129 36.9466 14.2118 36.8596C14.2588 37.6995 14.6407 38.4475 15.2623 38.9743C15.8731 39.4923 16.6706 39.7576 17.5198 39.6649C17.567 40.5045 17.9487 41.2523 18.5703 41.7793C19.1869 42.3021 19.9858 42.5617 20.8292 42.4697C20.8733 43.2606 21.228 44.0327 21.8784 44.5842C23.1346 45.6496 25.0245 45.495 26.0897 44.2389L26.7989 43.4064L27.994 44.2884C30.0604 45.8137 32.9809 44.5642 33.2503 42.029C35.3807 42.8031 37.6428 41.31 37.6756 39.0171C39.6837 39.3947 41.4656 37.9362 41.5775 36.0015C44.1823 36.6973 46.5383 34.0651 45.3881 31.4912L48.5819 29.4399C49.0392 29.9817 49.7991 30.1863 50.4767 29.919L54.9397 28.1584C55.7988 27.8195 56.2221 26.8449 55.8832 25.9856L53.8434 20.8151C53.6771 20.3935 53.2006 20.1868 52.7792 20.3531C52.3577 20.5193 52.1509 20.9957 52.3171 21.4172L54.3569 26.5876C54.3639 26.6053 54.3552 26.6253 54.3376 26.6323L49.8746 28.3929C49.8569 28.3998 49.8371 28.3912 49.8301 28.3736C49.6738 27.9775 44.6643 15.2791 44.2213 14.1562C44.2197 14.1523 44.2161 14.1431 44.2218 14.1301C44.2275 14.1171 44.2367 14.1134 44.2406 14.1118L48.7037 12.3511C48.7076 12.3495 48.7166 12.3458 48.73 12.3515C48.7429 12.3572 48.7465 12.3664 48.7481 12.3703L50.9106 17.8515C51.0769 18.2731 51.5534 18.4798 51.9747 18.3135C52.3962 18.1473 52.603 17.6709 52.4368 17.2494L50.2743 11.7683C49.9356 10.9093 48.9609 10.486 48.1018 10.825L43.6386 12.5857C42.8411 12.9003 42.4201 13.756 42.6341 14.5672L40.2415 15.4503C39.497 15.7252 38.6887 15.8049 37.9043 15.6806L35.4858 15.2972C35.0384 15.2264 34.618 15.5317 34.5472 15.9789C34.4764 16.4264 34.7815 16.8467 35.229 16.9176L37.6475 17.301C38.7087 17.4691 39.802 17.3613 40.8097 16.9893L43.2239 16.0982C43.486 16.7625 47.6214 27.2448 47.8927 27.9326L44.3726 30.1935L44.3129 30.1494C44.3127 30.1492 44.3123 30.149 44.3121 30.1489C43.935 29.8705 37.8143 25.3536 37.527 25.1415C37.3512 25.0117 37.1326 24.9534 36.8813 24.996C33.483 25.5738 30.4384 24.3655 28.1985 22.0267C27.5015 21.299 26.3645 21.26 25.6095 21.9379C23.4365 23.8895 20.3999 25.7925 18.2753 23.7733C18.0642 23.5728 18.0627 23.2025 18.3833 22.9956C21.0897 21.2546 23.8933 18.8102 26.1494 16.5278C26.711 15.9596 27.5186 15.6954 28.3112 15.8211L31.425 16.3147C31.8734 16.3857 32.2927 16.0803 32.3636 15.633C32.4344 15.1855 32.1293 14.7652 31.6818 14.6943L28.568 14.2007C27.2551 13.9927 25.9149 14.4315 24.9827 15.3745C24.7218 15.6385 24.4131 15.9449 24.0651 16.281C23.0146 15.9086 21.9198 15.6861 20.8062 15.6236C17.5463 15.4405 17.2636 15.4059 16.5234 15.4535C15.9424 15.4906 15.3513 15.3918 14.8137 15.1669L13.368 14.562C13.5767 13.7555 13.1564 12.8987 12.3621 12.5855L7.89906 10.825C7.0397 10.4859 6.06517 10.9092 5.72633 11.7683L0.117478 25.9856C-0.222131 26.8466 0.199509 27.8187 1.06084 28.1584V28.1584ZM14.9156 34.7617C14.4349 35.3287 13.5825 35.399 13.0153 34.9182C12.4443 34.4341 12.3796 33.5831 12.8577 33.0193L14.8867 30.6378C15.356 30.084 16.2107 29.9928 16.787 30.4813C17.3553 30.9631 17.4255 31.8131 16.9434 32.3816C16.9431 32.3818 16.943 32.382 16.9428 32.3822L14.9156 34.7617ZM18.2235 37.5667C17.7417 38.1349 16.892 38.2051 16.3233 37.7231C15.7524 37.239 15.6876 36.3881 16.1657 35.8242L18.1947 33.4427C18.6986 32.8481 19.6326 32.7962 20.1949 33.38C20.1986 33.3839 20.2017 33.3881 20.2055 33.3921C20.6686 33.8846 20.6987 34.659 20.2514 35.1866L18.2235 37.5667ZM21.5315 40.3715C21.048 40.9419 20.1974 41.0078 19.6314 40.5279C19.0604 40.0439 18.9956 39.193 19.4736 38.6292L21.5028 36.2475C21.9848 35.6792 22.8403 35.6136 23.403 36.0911C23.97 36.572 24.0401 37.4244 23.5594 37.9914C23.5592 37.9916 23.5591 37.9918 23.5589 37.992L21.5315 40.3715ZM26.8785 40.7819C26.8751 40.786 26.8722 40.7906 26.8687 40.7947C26.5414 41.1788 25.6396 42.2372 24.8396 43.1763C24.3589 43.7434 23.5065 43.8135 22.9394 43.3328C22.3723 42.852 22.3022 41.9996 22.7817 41.4341L24.8108 39.0524C25.2942 38.4822 26.1456 38.4164 26.711 38.896C27.2672 39.3674 27.3525 40.2087 26.8785 40.7819ZM12.7785 16.0941L14.1803 16.6807C14.9497 17.0026 15.7962 17.1444 16.6283 17.091C17.2556 17.0506 17.4651 17.0793 20.7138 17.2618C21.3809 17.2993 22.0404 17.4026 22.6846 17.5701C21.0795 19.0196 19.277 20.4724 17.4715 21.6318C16.314 22.3749 16.1425 24.0102 17.1452 24.9631C18.5155 26.2652 21.5801 27.7621 26.7056 23.1589C26.7975 23.0764 26.9327 23.0775 27.0133 23.1618C29.4961 25.7533 33.0153 27.2009 36.8158 26.6668C37.2464 26.9695 36.4126 26.3585 43.3376 31.4693H43.3377C44.0788 32.0161 44.2861 33.0917 43.7058 33.8341C43.1547 34.5392 42.1588 34.6758 41.4393 34.1446C40.4671 33.4271 41.1849 33.9732 37.7674 31.34C37.4083 31.0634 36.8934 31.1302 36.6168 31.4891C36.3404 31.8479 36.4072 32.363 36.7659 32.6396L39.6012 34.8242C40.0897 35.4678 40.0315 36.3978 39.4532 36.9746C38.8847 37.542 37.9489 37.5956 37.2764 37.0994C36.6261 36.6196 37.1663 37.0307 34.1841 34.7348C33.8251 34.4583 33.31 34.5254 33.0337 34.8844C32.7573 35.2433 32.8243 35.7584 33.1832 36.0348L35.6973 37.9704C36.1721 38.5845 36.1488 39.4678 35.6304 40.0556C35.0726 40.688 34.0843 40.7761 33.3801 40.2563C32.2486 39.4214 32.8165 39.8525 30.6375 38.1661C30.2792 37.8888 29.7641 37.9544 29.4867 38.3127C29.2094 38.671 29.275 39.1862 29.6334 39.4635L31.3762 40.8124C31.7727 41.4434 31.6951 42.2698 31.1737 42.8151C30.6046 43.4105 29.6564 43.4764 28.968 42.9684L27.8653 42.1546L28.1186 41.8572C28.6237 41.2618 28.8845 40.4906 28.8177 39.6792C28.7499 38.8572 28.3594 38.143 27.7719 37.6447C27.1608 37.1266 26.3627 36.8611 25.5138 36.9532C25.4691 36.1607 25.1057 35.3842 24.4639 34.8398C23.8551 34.3236 23.0822 34.0756 22.2857 34.1406C22.2591 34.1428 22.2325 34.1453 22.2062 34.1483C22.2046 34.122 22.2037 34.0958 22.2016 34.0694C22.1494 33.4352 21.9022 32.8477 21.4959 32.3738C21.4934 32.3708 21.4911 32.3679 21.4885 32.3649C20.8421 31.6171 19.8799 31.2394 18.8991 31.3448C18.8529 30.5211 18.4795 29.7657 17.8478 29.23C16.5905 28.1642 14.7009 28.3197 13.6363 29.5753L12.4 31.0264L11.6774 30.5185C11.6663 30.5106 11.6549 30.5029 11.6433 30.4957L8.00263 28.1996C10.755 21.2229 9.72408 23.8362 12.7785 16.0941V16.0941ZM1.64358 26.5879L7.25232 12.3706C7.25768 12.357 7.27059 12.3488 7.28426 12.3488C7.28842 12.3488 7.29268 12.3496 7.29684 12.3512L11.7599 14.1119C11.7775 14.1188 11.7861 14.1388 11.7792 14.1563C11.5094 14.8404 6.34692 27.9263 6.17039 28.3737C6.16317 28.3916 6.14392 28.4 6.12598 28.393L1.66294 26.6323C1.64522 26.6253 1.63647 26.6055 1.64358 26.5879Z" fill="#DDE1E6"/>
</g>
<defs>
<clipPath id="clip0">
<rect width="56" height="56" fill="white"/>
</clipPath>
</defs>
</svg>
