<svg width="56" height="56" viewBox="0 0 56 56" fill="none" xmlns="http://www.w3.org/2000/svg">
<path d="M55.9993 17.161C55.9993 15.6671 54.7836 14.4514 53.2896 14.4514C52.9789 14.4514 52.6845 14.5146 52.4063 14.6112L48.359 9.55236C48.6173 9.13779 48.7736 8.65276 48.7736 8.1289C48.7736 6.63499 47.5578 5.41927 46.0639 5.41927C45.3043 5.41927 44.6197 5.73539 44.1274 6.23938L37.0074 2.9535C37.0146 2.87221 37.0318 2.79363 37.0318 2.70963C37.0318 1.21572 35.8161 0 34.3221 0C33.1462 0 32.1526 0.757794 31.7787 1.80642H21.511C21.137 0.757794 20.1435 0 18.9675 0C17.4736 0 16.2579 1.21572 16.2579 2.70963C16.2579 2.82163 16.2777 2.92911 16.2913 3.0384L11.8113 5.27837C11.3236 4.8087 10.6643 4.51606 9.93536 4.51606C8.44144 4.51606 7.22571 5.73178 7.22571 7.22569C7.22571 7.74955 7.38197 8.23458 7.64029 8.64915L3.59299 13.708C3.3148 13.6114 3.02035 13.5482 2.70964 13.5482C1.21573 13.5482 0 14.7639 0 16.2578C0 17.4338 0.757797 18.4273 1.80643 18.8012V24.5538C0.757797 24.9268 0 25.9204 0 27.0963C0 28.5902 1.21573 29.806 2.70964 29.806C3.71311 29.806 4.5802 29.2514 5.04897 28.4394L9.97962 29.3354C10.1883 30.6234 11.2992 31.6124 12.645 31.6124C12.6811 31.6124 12.7155 31.6034 12.7516 31.6016L14.4749 35.9108C13.9113 36.4075 13.5482 37.1265 13.5482 37.9349C13.5482 39.4288 14.7639 40.6445 16.2579 40.6445C17.1665 40.6445 17.9676 40.1911 18.459 39.5037L26.2104 41.7184C26.2799 42.8185 27.0025 43.7353 27.9996 44.0912V50.7469C26.951 51.1209 26.1932 52.1144 26.1932 53.2904C26.1932 54.7843 27.4089 56 28.9029 56C30.3968 56 31.6125 54.7843 31.6125 53.2904C31.6125 52.1144 30.8547 51.1209 29.8061 50.7469V44.0912C30.8547 43.7172 31.6125 42.7237 31.6125 41.5477C31.6125 40.6824 31.197 39.9192 30.5639 39.4225L31.6423 36.1863L39.7468 38.8878C39.7685 40.0412 40.5146 41.0121 41.5479 41.3806V50.746C40.4992 51.1199 39.7414 52.1135 39.7414 53.2895C39.7414 54.7834 40.9572 55.9991 42.4511 55.9991C43.945 55.9991 45.1607 54.7834 45.1607 53.2895C45.1607 52.1135 44.4029 51.1199 43.3543 50.746V41.3815C44.4029 41.0076 45.1607 40.0141 45.1607 38.8381C45.1607 38.5084 45.093 38.1959 44.9846 37.9033L51.915 32.1281C52.3187 32.3684 52.7856 32.5156 53.2896 32.5156C54.7836 32.5156 55.9993 31.2999 55.9993 29.806C55.9993 28.63 55.2415 27.6365 54.1929 27.2625V19.7036C55.2415 19.3305 55.9993 18.337 55.9993 17.161ZM46.0639 7.22569C46.5616 7.22569 46.9671 7.63033 46.9671 8.1289C46.9671 8.62747 46.5616 9.03211 46.0639 9.03211C45.5663 9.03211 45.1607 8.62747 45.1607 8.1289C45.1607 7.63033 45.5663 7.22569 46.0639 7.22569ZM44.7796 10.4998C45.1634 10.7094 45.597 10.8385 46.0639 10.8385C46.3746 10.8385 46.6682 10.7753 46.9464 10.6787L50.9937 15.7385C50.7363 16.153 50.58 16.6372 50.58 17.161C50.58 17.3064 50.6008 17.4464 50.6234 17.5864L44.225 21.0764L39.5653 17.1935C39.6737 16.9 39.7414 16.5875 39.7414 16.2578C39.7414 15.8911 39.6665 15.5407 39.5337 15.2218L44.7796 10.4998ZM33.4189 25.2899C33.0016 25.2899 32.6115 25.392 32.2583 25.5618L28.4314 21.7349L35.1874 18.2313C35.6724 18.6847 36.3173 18.9674 37.0318 18.9674C37.5358 18.9674 38.0018 18.8202 38.4065 18.58L42.5188 22.0067L35.2181 25.989C34.7385 25.5591 34.1126 25.2899 33.4189 25.2899ZM34.3221 27.9995C34.3221 28.4981 33.9166 28.9028 33.4189 28.9028C32.9213 28.9028 32.5157 28.4981 32.5157 27.9995C32.5157 27.501 32.9213 27.0963 33.4189 27.0963C33.9166 27.0963 34.3221 27.501 34.3221 27.9995ZM20.6664 18.0525L22.1829 22.9389L14.4894 26.9283C14.1669 26.6276 13.7722 26.409 13.3332 26.2925L12.0814 16.6932L18.2702 16.3833C18.6631 17.3353 19.5844 18.0091 20.6664 18.0525ZM19.8707 15.3546C19.8707 14.856 20.2763 14.4514 20.7739 14.4514C21.2716 14.4514 21.6771 14.856 21.6771 15.3546C21.6771 15.8532 21.2716 16.2578 20.7739 16.2578C20.2763 16.2578 19.8707 15.8532 19.8707 15.3546ZM22.7258 24.6929L25.0163 32.0748L15.3492 28.8522C15.3474 28.7438 15.3312 28.639 15.3167 28.5342L22.7258 24.6929ZM22.7195 18.5782L25.4092 21.267L23.8114 22.0953L22.7195 18.5782ZM23.2126 16.5152C23.3815 16.1621 23.4836 15.7719 23.4836 15.3546C23.4836 14.9698 23.4005 14.6049 23.256 14.2734L27.5444 10.2704L34.4576 15.4548C34.3772 15.7114 34.3221 15.9769 34.3221 16.2578C34.3221 16.3843 34.3429 16.5044 34.3592 16.6263L27.091 20.3945L23.2126 16.5152ZM36.1286 16.2578C36.1286 15.7592 36.5341 15.3546 37.0318 15.3546C37.5295 15.3546 37.935 15.7592 37.935 16.2578C37.935 16.7564 37.5295 17.161 37.0318 17.161C36.5341 17.161 36.1286 16.7564 36.1286 16.2578ZM44.0118 23.2505L50.4834 28.6435L36.461 27.3691L44.0118 23.2505ZM34.3221 1.80642C34.8198 1.80642 35.2254 2.21106 35.2254 2.70963C35.2254 3.20821 34.8198 3.61284 34.3221 3.61284C33.8245 3.61284 33.4189 3.20821 33.4189 2.70963C33.4189 2.21106 33.8245 1.80642 34.3221 1.80642ZM33.0811 5.10405C33.4542 5.29824 33.8723 5.41927 34.3221 5.41927C35.0817 5.41927 35.7664 5.10314 36.2595 4.59825L43.3787 7.88413C43.3714 7.96632 43.3543 8.0449 43.3543 8.1289C43.3543 8.49651 43.4293 8.84605 43.562 9.16579L38.3162 13.8869C37.9323 13.6773 37.4987 13.5482 37.0318 13.5482C36.4772 13.5482 35.9615 13.7171 35.5315 14.0043L28.8857 9.01947L33.0811 5.10405ZM31.7787 3.61284C31.8004 3.67155 31.8157 3.73297 31.8401 3.78987L27.4171 7.91755L21.6771 3.61284H31.7787ZM18.9675 1.80642C19.4652 1.80642 19.8707 2.21106 19.8707 2.70963C19.8707 3.20821 19.4652 3.61284 18.9675 3.61284C18.4698 3.61284 18.0643 3.20821 18.0643 2.70963C18.0643 2.21106 18.4698 1.80642 18.9675 1.80642ZM12.645 7.22569C12.645 7.11369 12.6251 7.00621 12.6116 6.89782L17.0915 4.65786C17.5793 5.12663 18.2386 5.41927 18.9675 5.41927C19.5221 5.41927 20.0378 5.25037 20.4677 4.96315L26.0758 9.1694L22.0149 12.9593C21.6419 12.7651 21.2237 12.645 20.7739 12.645C19.551 12.645 18.5267 13.4642 18.1907 14.5787L11.8466 14.8958L11.1601 9.62914C12.0371 9.18024 12.645 8.27703 12.645 7.22569ZM9.93536 6.32248C10.433 6.32248 10.8386 6.72712 10.8386 7.22569C10.8386 7.72426 10.433 8.1289 9.93536 8.1289C9.43769 8.1289 9.03214 7.72426 9.03214 7.22569C9.03214 6.72712 9.43769 6.32248 9.93536 6.32248ZM9.05201 9.77546C9.15679 9.81158 9.25975 9.85042 9.36904 9.87391L10.0356 14.987L5.21335 15.2281C5.15645 15.09 5.08329 14.9608 5.00471 14.8343L9.05201 9.77546ZM2.70964 15.3546C3.20731 15.3546 3.61286 15.7592 3.61286 16.2578C3.61286 16.7564 3.20731 17.161 2.70964 17.161C2.21197 17.161 1.80643 16.7564 1.80643 16.2578C1.80643 15.7592 2.21197 15.3546 2.70964 15.3546ZM2.70964 27.9995C2.21197 27.9995 1.80643 27.5949 1.80643 27.0963C1.80643 26.5978 2.21197 26.1931 2.70964 26.1931C3.20731 26.1931 3.61286 26.5978 3.61286 27.0963C3.61286 27.5949 3.20731 27.9995 2.70964 27.9995ZM10.3057 27.5597L5.37593 26.6637C5.21606 25.6801 4.52962 24.8799 3.61286 24.5529V18.8003C4.41943 18.5122 5.04445 17.8574 5.29284 17.0328L10.2714 16.7835L11.5304 26.4388C11.012 26.6745 10.5884 27.0692 10.3057 27.5597ZM12.645 29.806C12.1473 29.806 11.7418 29.4013 11.7418 28.9028C11.7418 28.4042 12.1473 27.9995 12.645 27.9995C13.1427 27.9995 13.5482 28.4042 13.5482 28.9028C13.5482 29.4013 13.1427 29.806 12.645 29.806ZM16.2579 38.8381C15.7602 38.8381 15.3546 38.4334 15.3546 37.9349C15.3546 37.4363 15.7602 37.0317 16.2579 37.0317C16.7555 37.0317 17.1611 37.4363 17.1611 37.9349C17.1611 38.4334 16.7555 38.8381 16.2579 38.8381ZM26.7026 39.9788L18.9512 37.7642C18.86 36.3506 17.694 35.2252 16.2579 35.2252C16.2217 35.2252 16.1874 35.2343 16.1513 35.2361L14.4279 30.9269C14.5535 30.8158 14.6673 30.6947 14.7712 30.5629L25.6766 34.1983L27.287 39.3863C27.0639 39.5543 26.8652 39.7521 26.7026 39.9788ZM28.9029 54.1927C28.4052 54.1927 27.9996 53.788 27.9996 53.2895C27.9996 52.7909 28.4052 52.3863 28.9029 52.3863C29.4005 52.3863 29.8061 52.7909 29.8061 53.2895C29.8061 53.788 29.4005 54.1927 28.9029 54.1927ZM28.9029 42.4509C28.4052 42.4509 27.9996 42.0463 27.9996 41.5477C27.9996 41.0491 28.4052 40.6445 28.9029 40.6445C29.4005 40.6445 29.8061 41.0491 29.8061 41.5477C29.8061 42.0463 29.4005 42.4509 28.9029 42.4509ZM28.9336 38.5996L27.7856 34.9019L29.928 35.6163L28.9336 38.5996ZM30.4997 33.902L27.1271 32.7775L24.3561 23.8484L26.7496 22.6074L30.9812 26.8389C30.8113 27.1921 30.7093 27.5823 30.7093 27.9995C30.7093 28.8648 31.1248 29.6289 31.7588 30.1248L30.4997 33.902ZM42.4511 54.1927C41.9534 54.1927 41.5479 53.788 41.5479 53.2895C41.5479 52.7909 41.9534 52.3863 42.4511 52.3863C42.9487 52.3863 43.3543 52.7909 43.3543 53.2895C43.3543 53.788 42.9487 54.1927 42.4511 54.1927ZM42.4511 39.7413C41.9534 39.7413 41.5479 39.3367 41.5479 38.8381C41.5479 38.3395 41.9534 37.9349 42.4511 37.9349C42.9487 37.9349 43.3543 38.3395 43.3543 38.8381C43.3543 39.3367 42.9487 39.7413 42.4511 39.7413ZM43.8258 36.515C43.4211 36.2757 42.9551 36.1284 42.4511 36.1284C41.5858 36.1284 40.8217 36.5439 40.3258 37.178L32.2131 34.4738L33.4695 30.7038C34.5371 30.6839 35.4503 30.0444 35.873 29.1295L50.673 30.4743C50.6965 30.5647 50.7236 30.6532 50.7561 30.7399L43.8258 36.515ZM45.718 22.3193L51.4904 19.1707C51.7497 19.4037 52.0522 19.5843 52.3873 19.7036V27.2625C52.2211 27.3221 52.064 27.3953 51.915 27.4838L45.718 22.3193ZM53.2896 30.7092C52.792 30.7092 52.3864 30.3045 52.3864 29.806C52.3864 29.3074 52.792 28.9028 53.2896 28.9028C53.7873 28.9028 54.1929 29.3074 54.1929 29.806C54.1929 30.3045 53.7873 30.7092 53.2896 30.7092ZM53.2896 18.0642C52.792 18.0642 52.3864 17.6596 52.3864 17.161C52.3864 16.6624 52.792 16.2578 53.2896 16.2578C53.7873 16.2578 54.1929 16.6624 54.1929 17.161C54.1929 17.6596 53.7873 18.0642 53.2896 18.0642Z" fill="#DDE1E6"/>
<path fill-rule="evenodd" clip-rule="evenodd" d="M1.80662 0H3.61289V1.80629H5.41898V3.61271H3.61289V5.41903H1.80662V3.61258H3.61258V1.80642H1.80662V0ZM0 1.80629H1.80642V3.61271H0V1.80629ZM48.7733 41.5477H46.9669V43.3541H48.7733V41.5477ZM46.9673 45.1606H48.7733V46.967H46.9669V45.1607H45.1609V43.3543H46.9673V45.1606ZM50.5799 43.3543H48.7735V45.1607H50.5799V43.3543ZM54.1931 3.61258H52.3867V5.41903H54.1931V3.61258ZM52.3867 7.22615H54.1931V9.03227H52.3867V7.22615ZM55.9991 5.4192H54.1927V7.22563H55.9991V5.4192ZM50.5801 5.4192H52.3865V7.22563H50.5801V5.4192ZM12.6448 43.3543H10.8384V45.1606H9.03244V46.967H10.8389V45.1607H12.6448V43.3543ZM10.8384 46.9672H12.6448V48.7736H10.8384V46.9672ZM14.4509 45.1606H12.645V46.967H14.4509V45.1606ZM7.22533 33.4189H5.4192V35.2253H7.22533V33.4189ZM5.4192 37.0318H7.22517V35.2255H9.03159V37.0319H7.22533V38.8384H5.4192V37.0318ZM3.61258 35.2255H5.41898V37.0319H3.61258V35.2255Z" fill="#DDE1E6"/>
</svg>
