<svg width="56" height="56" viewBox="0 0 56 56" fill="none" xmlns="http://www.w3.org/2000/svg">
<path d="M52.5494 8.32922H3.45056C1.54788 8.32922 0 9.87721 0 11.7799V44.2202C0 46.1229 1.54788 47.6708 3.45056 47.6708H35.8909C36.3439 47.6708 36.7112 47.3035 36.7112 46.8504C36.7112 46.3974 36.3439 46.0301 35.8909 46.0301H3.45056C2.45252 46.0301 1.64062 45.2182 1.64062 44.2202V11.7799C1.64062 10.7818 2.45252 9.96996 3.45056 9.96996H52.5493C53.5474 9.96996 54.3593 10.7818 54.3593 11.7799V44.2202C54.3593 45.2182 53.5474 46.0301 52.5493 46.0301H46.412C45.9589 46.0301 45.5917 46.3974 45.5917 46.8504C45.5917 47.3035 45.9589 47.6708 46.412 47.6708H52.5493C54.452 47.6708 55.9999 46.1229 55.9999 44.2202V11.7799C56 9.87721 54.4521 8.32922 52.5494 8.32922V8.32922Z" fill="#03A06C"/>
<path d="M41.972 41.781V32.0258L46.6435 29.9947C47.2729 29.721 47.664 29.1247 47.664 28.4384C47.664 27.7521 47.2729 27.1558 46.6436 26.8821L29.7257 19.5265C28.6292 19.0498 27.3714 19.0498 26.2748 19.5265L9.35689 26.882C8.72744 27.1556 8.33643 27.752 8.33643 28.4383C8.33643 29.1246 8.72744 29.721 9.35689 29.9946L14.5217 32.2402C14.9369 32.4208 15.4203 32.2304 15.601 31.8149C15.7817 31.3994 15.5913 30.9162 15.1758 30.7356L10.011 28.49C9.99433 28.4828 9.97705 28.4753 9.97705 28.4382C9.97705 28.4012 9.99433 28.3937 10.011 28.3864L26.9289 21.0309C27.6097 20.7349 28.3906 20.7348 29.0715 21.0309L45.9894 28.3864C46.006 28.3937 46.0233 28.4012 46.0233 28.4382C46.0233 28.4753 46.006 28.4827 45.9894 28.49L38.465 31.7615V29.315C38.465 28.3261 37.4188 27.7138 34.9666 27.268C33.0982 26.9283 30.6241 26.7411 28.0003 26.7411C25.3765 26.7411 22.9024 26.9281 21.034 27.268C18.5819 27.7138 17.5356 28.326 17.5356 29.315V36.3291C17.5356 37.265 18.2969 38.0262 19.2327 38.0262H36.7679C37.7037 38.0262 38.465 37.265 38.465 36.3291V33.5505L40.3313 32.739V41.7809C39.3133 42.1243 38.5778 43.0875 38.5778 44.22V46.8503C38.5778 47.3033 38.9451 47.6706 39.3982 47.6706H42.9053C43.3583 47.6706 43.7256 47.3033 43.7256 46.8503V44.22C43.7255 43.0876 42.99 42.1244 41.972 41.781V41.781ZM28.0002 28.3818C33.1897 28.3818 36.1818 29.0828 36.8242 29.5116V32.8786H19.1761V29.5116C19.8186 29.0828 22.8107 28.3818 28.0002 28.3818ZM36.7678 36.3856H19.2326C19.2014 36.3856 19.1761 36.3603 19.1761 36.3291V34.5192H36.8242V36.3291C36.8242 36.3603 36.799 36.3856 36.7678 36.3856ZM42.0848 46.03H40.2184V44.2201C40.2184 43.7055 40.6371 43.2869 41.1517 43.2869C41.6663 43.2869 42.0848 43.7056 42.0848 44.2201V46.03Z" fill="#FCD828"/>
<path d="M11.2849 16.1636C11.2849 14.2609 9.73704 12.713 7.83435 12.713C5.93166 12.713 4.38379 14.2609 4.38379 16.1636C4.38379 18.0663 5.93166 19.6141 7.83435 19.6141C9.73704 19.6141 11.2849 18.0663 11.2849 16.1636ZM7.83435 17.9736C6.8363 17.9736 6.02441 17.1617 6.02441 16.1637C6.02441 15.1656 6.8363 14.3537 7.83435 14.3537C8.8324 14.3537 9.64429 15.1656 9.64429 16.1637C9.64429 17.1617 8.8324 17.9736 7.83435 17.9736Z" fill="#03A06C"/>
<path d="M13.9717 15.2305H24.4929C24.9459 15.2305 25.3132 14.8632 25.3132 14.4102C25.3132 13.9571 24.9459 13.5898 24.4929 13.5898H13.9717C13.5186 13.5898 13.1514 13.9571 13.1514 14.4102C13.1514 14.8632 13.5186 15.2305 13.9717 15.2305Z" fill="#03A06C"/>
<path d="M13.9717 18.7374H19.2323C19.6853 18.7374 20.0526 18.3701 20.0526 17.9171C20.0526 17.4641 19.6853 17.0968 19.2323 17.0968H13.9717C13.5186 17.0968 13.1514 17.4641 13.1514 17.9171C13.1514 18.3701 13.5186 18.7374 13.9717 18.7374V18.7374Z" fill="#03A06C"/>
</svg>
