<svg width="56" height="56" viewBox="0 0 56 56" fill="none" xmlns="http://www.w3.org/2000/svg">
<g opacity="0.9">
<path d="M56 14.2295C56 12.2014 54.3559 10.5573 52.3278 10.5573C51.4453 10.5607 50.5941 10.8847 49.9327 11.4689C47.2493 10.0919 43.6589 9.47865 39.4589 9.69531C36.7011 3.82081 32.7177 0.458979 28.459 0.458979C27.0886 0.471917 25.7412 0.813166 24.5298 1.45413C23.1158 0.121623 20.9065 0.127695 19.4998 1.46795C18.0931 2.80821 17.9803 5.01457 19.2429 6.49137C18.5685 7.5096 17.9731 8.57794 17.4619 9.68704C14.3897 9.45103 11.3016 9.84079 8.38437 10.8327C5.83229 11.6582 3.72878 13.4914 2.5622 15.9067C1.00155 19.4457 1.99578 23.7559 4.93348 28.0394C2.23263 31.9805 1.26594 35.8335 2.17938 39.0237C1.14104 39.8654 0.644874 41.2067 0.885497 42.5215C1.12612 43.8364 2.06516 44.915 3.33431 45.3344C4.60345 45.7539 6.00032 45.4472 6.97702 44.5346C9.74047 45.8305 12.7707 46.4561 15.8213 46.3606C16.352 46.3606 16.9055 46.3303 17.4564 46.3019C20.2151 52.1773 24.1984 55.5409 28.459 55.5409C32.7196 55.5409 36.7002 52.18 39.457 46.3092C40.0023 46.3377 40.5476 46.3652 41.0755 46.3652C43.6127 46.4131 46.1381 46.009 48.5336 45.1718C51.0859 44.3461 53.1894 42.5125 54.3558 40.0969C55.9164 36.5579 54.9213 32.2486 51.9845 27.9651C54.6854 24.024 55.6566 20.1719 54.7386 16.9808C55.5373 16.2894 55.9974 15.2859 56 14.2295ZM52.3278 12.3934C53.3419 12.3934 54.1639 13.2154 54.1639 14.2295C54.1639 15.2435 53.3419 16.0655 52.3278 16.0655C51.3138 16.0655 50.4918 15.2435 50.4918 14.2295C50.4918 13.2154 51.3138 12.3934 52.3278 12.3934ZM31.3545 43.1163C32.4175 42.6986 33.4852 42.2442 34.5483 41.7493C36.462 40.8561 38.3217 39.8516 40.118 38.7409C39.6682 40.6796 39.0539 42.5764 38.2819 44.4107C35.9394 44.1822 33.6214 43.749 31.3545 43.1163V43.1163ZM41.3115 28C41.3166 30.7589 41.0831 33.5132 40.6137 36.232C38.4344 37.6893 36.1471 38.9783 33.7716 40.0877C32.0372 40.898 30.2597 41.6127 28.4471 42.2285C26.6433 41.6102 24.8741 40.8953 23.1473 40.0868C20.7752 38.9793 18.4888 37.697 16.307 36.2503C15.3755 30.7966 15.3755 25.2244 16.307 19.7707C18.4863 18.3134 20.7737 17.0244 23.1491 15.915C24.879 15.1074 26.6516 14.3946 28.459 13.7796C32.7512 15.2388 36.8369 17.2463 40.6147 19.7524C41.0844 22.4763 41.3176 25.2358 41.3115 28ZM42.7041 21.2258C45.3349 23.144 47.6934 25.4102 49.7151 27.9623C47.7042 30.5368 45.346 32.82 42.7078 34.7466C43.0038 32.5099 43.1507 30.2561 43.1475 28C43.151 25.7345 43.0028 23.4714 42.7041 21.2258ZM18.6204 44.3758C17.8579 42.5556 17.2514 40.6739 16.8073 38.751C18.6026 39.8543 20.4591 40.8547 22.3678 41.7475C23.4346 42.246 24.5041 42.6903 25.5727 43.1099C23.2977 43.7387 20.971 44.1624 18.6204 44.3758ZM25.5507 12.8873C24.4913 13.3041 23.4282 13.7567 22.3697 14.2497C20.4575 15.1434 18.5993 16.1482 16.8046 17.259C17.251 15.325 17.8613 13.4325 18.6287 11.6021C20.9692 11.8277 23.2854 12.258 25.5507 12.8882V12.8873ZM14.2139 34.7741C11.5833 32.8557 9.2248 30.5895 7.20286 28.0376C9.21374 25.4631 11.572 23.1799 14.2102 21.2533C13.6214 25.741 13.6214 30.2864 14.2102 34.7741H14.2139ZM34.5501 14.2524C33.4871 13.7558 32.4212 13.305 31.3554 12.8864C33.6271 12.2592 35.9504 11.8367 38.2975 11.6241C39.0599 13.4441 39.6665 15.3254 40.1107 17.248C38.3151 16.1454 36.4587 15.1453 34.5501 14.2524V14.2524ZM22.0328 2.29504C23.0468 2.29504 23.8688 3.11708 23.8688 4.13111C23.8688 5.14514 23.0468 5.96717 22.0328 5.96717C21.0187 5.96717 20.1967 5.14514 20.1967 4.13111C20.1967 3.11708 21.0187 2.29504 22.0328 2.29504ZM20.7393 7.55629C21.1518 7.7168 21.5901 7.8005 22.0328 7.80324C24.0608 7.80324 25.7049 6.15917 25.7049 4.13111C25.6998 3.74833 25.6341 3.36877 25.5103 3.00652C26.4261 2.54775 27.4347 2.3044 28.459 2.29504C31.8364 2.29504 35.089 5.03629 37.5035 9.86239C34.4289 10.2027 31.3988 10.8664 28.4636 11.8426C25.5248 10.8644 22.4926 10.1937 19.4154 9.84127C19.8094 9.05318 20.2515 8.29008 20.7393 7.55629V7.55629ZM4.2422 16.6448C5.20509 14.678 6.93747 13.1961 9.02974 12.5495C11.2259 11.782 13.5413 11.412 15.8673 11.457C16.1372 11.457 16.4181 11.479 16.6935 11.4864C15.7756 13.8151 15.0857 16.2274 14.6334 18.6893C11.4175 20.8474 8.53804 23.4689 6.08837 26.4687C3.78686 22.9168 3.00561 19.4421 4.2422 16.6457V16.6448ZM4.59014 43.6065C3.57611 43.6065 2.75407 42.7845 2.75407 41.7705C2.75407 40.7564 3.57611 39.9344 4.59014 39.9344C5.60417 39.9344 6.4262 40.7564 6.4262 41.7705C6.4262 42.7845 5.60417 43.6065 4.59014 43.6065ZM8.03276 43.007C8.18085 42.6114 8.25853 42.1929 8.26227 41.7705C8.26531 40.6703 7.77358 39.6271 6.92306 38.9293C6.07254 38.2314 4.95335 37.953 3.87499 38.1708C3.30948 35.7169 4.08338 32.7453 6.10214 29.6102C8.55483 32.5924 11.4313 35.1992 14.6398 37.3474C15.0915 39.7923 15.7774 42.1881 16.688 44.5016C13.7251 44.6989 10.7579 44.1866 8.03276 43.007V43.007ZM28.459 53.7049C25.0815 53.7049 21.829 50.9636 19.4145 46.1375C22.4936 45.7951 25.5279 45.1289 28.4673 44.15C31.4006 45.1265 34.4273 45.7963 37.4989 46.1485C35.0844 50.9664 31.8337 53.7049 28.459 53.7049ZM52.6758 39.3533C51.7131 41.3205 49.9807 42.8027 47.8882 43.4495C45.4242 44.2957 42.8207 44.6606 40.219 44.5245C41.1384 42.1932 41.8295 39.7782 42.2827 37.3134C45.4989 35.1552 48.3784 32.5334 50.8278 29.5331C53.1311 33.0831 53.9124 36.5569 52.6758 39.3533V39.3533ZM50.8158 26.3897C48.363 23.4074 45.4865 20.8004 42.2781 18.6516C41.8266 16.207 41.1407 13.8115 40.23 11.4983C43.1938 11.3003 46.1621 11.8126 48.888 12.9929C48.7389 13.3884 48.6603 13.8069 48.6557 14.2295C48.6527 15.3296 49.1444 16.3728 49.9949 17.0707C50.8454 17.7685 51.9646 18.047 53.043 17.8291C53.6131 20.283 52.8346 23.2546 50.8158 26.3897V26.3897Z" fill="#DDE1E6"/>
<path d="M18.3608 22.4918V26.1639C18.3632 26.8436 18.6185 27.4981 19.0769 28C18.6185 28.5018 18.3632 29.1563 18.3608 29.836V33.5082C18.3608 35.0292 19.5939 36.2623 21.1149 36.2623H35.8035C37.3245 36.2623 38.5576 35.0292 38.5576 33.5082V29.836C38.5552 29.1563 38.2999 28.5018 37.8415 28C38.2999 27.4981 38.5552 26.8436 38.5576 26.1639V22.4918C38.5576 20.9707 37.3245 19.7377 35.8035 19.7377H21.1149C19.5939 19.7377 18.3608 20.9707 18.3608 22.4918ZM36.7215 33.5082C36.7215 34.0152 36.3105 34.4262 35.8035 34.4262H21.1149C20.6079 34.4262 20.1969 34.0152 20.1969 33.5082V29.836C20.1969 29.329 20.6079 28.918 21.1149 28.918H35.8035C36.3105 28.918 36.7215 29.329 36.7215 29.836V33.5082ZM36.7215 22.4918V26.1639C36.7215 26.6709 36.3105 27.0819 35.8035 27.0819H21.1149C20.6079 27.0819 20.1969 26.6709 20.1969 26.1639V22.4918C20.1969 21.9848 20.6079 21.5737 21.1149 21.5737H35.8035C36.3105 21.5737 36.7215 21.9848 36.7215 22.4918Z" fill="#DDE1E6"/>
<path d="M22.9507 25.2459H23.8688C24.3758 25.2459 24.7868 24.8348 24.7868 24.3278C24.7868 23.8208 24.3758 23.4098 23.8688 23.4098H22.9507C22.4437 23.4098 22.0327 23.8208 22.0327 24.3278C22.0327 24.8348 22.4437 25.2459 22.9507 25.2459Z" fill="#DDE1E6"/>
<path d="M30.295 25.2459H33.9671C34.4741 25.2459 34.8851 24.8348 34.8851 24.3278C34.8851 23.8208 34.4741 23.4098 33.9671 23.4098H30.295C29.788 23.4098 29.377 23.8208 29.377 24.3278C29.377 24.8348 29.788 25.2459 30.295 25.2459Z" fill="#DDE1E6"/>
<path d="M23.8688 30.754H22.9507C22.4437 30.754 22.0327 31.165 22.0327 31.6721C22.0327 32.1791 22.4437 32.5901 22.9507 32.5901H23.8688C24.3758 32.5901 24.7868 32.1791 24.7868 31.6721C24.7868 31.165 24.3758 30.754 23.8688 30.754Z" fill="#DDE1E6"/>
<path d="M33.9671 30.754H30.295C29.788 30.754 29.377 31.165 29.377 31.6721C29.377 32.1791 29.788 32.5901 30.295 32.5901H33.9671C34.4741 32.5901 34.8851 32.1791 34.8851 31.6721C34.8851 31.165 34.4741 30.754 33.9671 30.754Z" fill="#DDE1E6"/>
</g>
</svg>
