<svg width="87" height="32" viewBox="0 0 87 32" fill="none" xmlns="http://www.w3.org/2000/svg">
<path d="M25.1313 22.869L21.0697 18.8074C21.9089 17.5425 22.4001 16.0281 22.4001 14.4001C22.4001 9.98886 18.8112 6.40002 14.4 6.40002C9.98874 6.40002 6.3999 9.98886 6.3999 14.4001C6.3999 18.8114 9.98874 22.4002 14.4 22.4002C16.028 22.4002 17.5424 21.909 18.8072 21.0698L22.8689 25.1314C23.4929 25.7562 24.5073 25.7562 25.1313 25.1314C25.7561 24.5066 25.7561 23.4938 25.1313 22.869V22.869ZM8.79993 14.4001C8.79993 11.3121 11.312 8.80005 14.4 8.80005C17.488 8.80005 20 11.3121 20 14.4001C20 17.4881 17.488 20.0002 14.4 20.0002C11.312 20.0002 8.79993 17.4881 8.79993 14.4001V14.4001Z" fill="white"/>
<path d="M39.44 10.8H41.36V15.408H46.8V10.8H48.72V22H46.8V17.072H41.36V22H39.44V10.8ZM53.7563 22.176C53.2976 22.176 52.8869 22.112 52.5243 21.984C52.1723 21.8453 51.8736 21.6587 51.6283 21.424C51.3829 21.1787 51.1963 20.896 51.0683 20.576C50.9403 20.256 50.8763 19.904 50.8763 19.52C50.8763 18.6773 51.1269 18.0533 51.6283 17.648C52.1296 17.232 52.8656 17.024 53.8363 17.024H56.4763V16.56C56.4763 15.92 56.3323 15.4827 56.0443 15.248C55.7669 15.0027 55.3243 14.88 54.7163 14.88C54.1723 14.88 53.7723 14.9653 53.5163 15.136C53.2603 15.3067 53.1109 15.5413 53.0683 15.84H51.3563C51.3776 15.4773 51.4683 15.1467 51.6283 14.848C51.7989 14.5387 52.0283 14.272 52.3163 14.048C52.6149 13.824 52.9723 13.6533 53.3883 13.536C53.8043 13.408 54.2736 13.344 54.7963 13.344C55.3189 13.344 55.7883 13.4027 56.2043 13.52C56.6309 13.6373 56.9936 13.824 57.2923 14.08C57.5909 14.3253 57.8203 14.6453 57.9803 15.04C58.1509 15.4347 58.2362 15.9093 58.2362 16.464V19.84C58.2362 20.288 58.2416 20.6827 58.2523 21.024C58.2629 21.3547 58.2896 21.68 58.3323 22H56.7323C56.7003 21.7547 56.6736 21.5467 56.6523 21.376C56.6416 21.2053 56.6363 20.992 56.6363 20.736C56.4336 21.1307 56.0816 21.472 55.5803 21.76C55.0896 22.0373 54.4816 22.176 53.7563 22.176ZM54.2363 20.64C54.5349 20.64 54.8176 20.6027 55.0843 20.528C55.3616 20.4427 55.6016 20.3253 55.8043 20.176C56.0069 20.016 56.1669 19.824 56.2843 19.6C56.4123 19.3653 56.4763 19.0987 56.4763 18.8V18.336H54.1562C53.7083 18.336 53.3456 18.432 53.0683 18.624C52.8016 18.816 52.6683 19.0987 52.6683 19.472C52.6683 19.824 52.7909 20.1067 53.0363 20.32C53.2923 20.5333 53.6923 20.64 54.2363 20.64ZM60.4013 13.52H62.1613V19.52L66.2413 13.52H67.9213V22H66.1613V16L62.0813 22H60.4013V13.52ZM64.1613 12.56C63.2759 12.56 62.6253 12.368 62.2093 11.984C61.8039 11.5893 61.6013 11.0347 61.6013 10.32H63.2333C63.2333 10.704 63.3079 10.9813 63.4573 11.152C63.6173 11.3227 63.8519 11.408 64.1613 11.408C64.4706 11.408 64.6999 11.3227 64.8493 11.152C65.0093 10.9813 65.0893 10.704 65.0893 10.32H66.7213C66.7213 11.0347 66.5133 11.5893 66.0973 11.984C65.6813 12.368 65.0359 12.56 64.1613 12.56ZM72.1669 15.024H69.3669V13.52H76.7269V15.024H73.9269V22H72.1669V15.024ZM78.1669 13.52H79.9269V19.52L84.0069 13.52H85.6869V22H83.9269V16L79.8469 22H78.1669V13.52Z" fill="white"/>
</svg>
