<svg width="56" height="56" viewBox="0 0 56 56" fill="none" xmlns="http://www.w3.org/2000/svg">
<path d="M35 18.3749C35 16.9904 34.5895 15.637 33.8203 14.4859C33.0511 13.3347 31.9579 12.4375 30.6788 11.9077C29.3997 11.3779 27.9922 11.2393 26.6344 11.5094C25.2765 11.7795 24.0292 12.4462 23.0503 13.4251C22.0713 14.4041 21.4046 15.6514 21.1345 17.0092C20.8644 18.3671 21.003 19.7746 21.5328 21.0537C22.0627 22.3327 22.9599 23.426 24.111 24.1952C25.2622 24.9643 26.6155 25.3749 28 25.3749C29.8559 25.3728 31.6351 24.6346 32.9474 23.3223C34.2598 22.01 34.9979 20.2308 35 18.3749V18.3749ZM22.75 18.3749C22.75 17.3365 23.0579 16.3215 23.6348 15.4581C24.2117 14.5948 25.0316 13.9219 25.9909 13.5245C26.9502 13.1272 28.0058 13.0232 29.0242 13.2258C30.0426 13.4283 30.9781 13.9283 31.7123 14.6626C32.4465 15.3968 32.9466 16.3323 33.1491 17.3507C33.3517 18.3691 33.2477 19.4247 32.8504 20.384C32.453 21.3433 31.7801 22.1632 30.9167 22.7401C30.0534 23.317 29.0384 23.6249 28 23.6249C26.608 23.6235 25.2735 23.0699 24.2892 22.0857C23.305 21.1014 22.7514 19.7668 22.75 18.3749V18.3749Z" fill="#DDE1E6"/>
<path d="M53.375 44.625H49V40.25C49 40.0179 48.9078 39.7954 48.7437 39.6313C48.5796 39.4672 48.3571 39.375 48.125 39.375H28.875V35H31.5C31.7321 35 31.9546 34.9078 32.1187 34.7437C32.2828 34.5796 32.375 34.3571 32.375 34.125V29.8191C32.5806 29.7404 32.788 29.6555 32.9971 29.5619L36.0439 32.6086C36.2111 32.7667 36.4324 32.8548 36.6625 32.8548C36.8926 32.8548 37.1139 32.7667 37.2811 32.6086L42.2336 27.6561C42.3977 27.492 42.4898 27.2695 42.4898 27.0375C42.4898 26.8055 42.3977 26.583 42.2336 26.4189L39.1869 23.3712C39.2805 23.1621 39.3619 22.9556 39.4441 22.75H43.75C43.9821 22.75 44.2046 22.6578 44.3687 22.4937C44.5328 22.3296 44.625 22.1071 44.625 21.875V14.875C44.625 14.6429 44.5328 14.4204 44.3687 14.2563C44.2046 14.0922 43.9821 14 43.75 14H39.4441C39.3654 13.7944 39.2805 13.5879 39.1869 13.3787L42.2336 10.3311C42.3977 10.167 42.4898 9.94452 42.4898 9.7125C42.4898 9.48048 42.3977 9.25796 42.2336 9.09387L37.2811 4.14137C37.117 3.97734 36.8945 3.88519 36.6625 3.88519C36.4305 3.88519 36.208 3.97734 36.0439 4.14137L32.9971 7.18813C32.788 7.0945 32.5806 7.01313 32.375 6.93088V2.625C32.375 2.39294 32.2828 2.17038 32.1187 2.00628C31.9546 1.84219 31.7321 1.75 31.5 1.75H24.5C24.2679 1.75 24.0454 1.84219 23.8813 2.00628C23.7172 2.17038 23.625 2.39294 23.625 2.625V6.93088C23.4194 7.00963 23.212 7.0945 23.0029 7.18813L19.9561 4.14137C19.7889 3.98329 19.5676 3.8952 19.3375 3.8952C19.1074 3.8952 18.8861 3.98329 18.7189 4.14137L13.7664 9.09387C13.6023 9.25796 13.5102 9.48048 13.5102 9.7125C13.5102 9.94452 13.6023 10.167 13.7664 10.3311L16.8131 13.3787C16.7195 13.5879 16.6381 13.7944 16.5559 14H12.25C12.0179 14 11.7954 14.0922 11.6313 14.2563C11.4672 14.4204 11.375 14.6429 11.375 14.875V21.875C11.375 22.1071 11.4672 22.3296 11.6313 22.4937C11.7954 22.6578 12.0179 22.75 12.25 22.75H16.5559C16.6346 22.9556 16.7195 23.1621 16.8131 23.3712L13.7664 26.4189C13.6023 26.583 13.5102 26.8055 13.5102 27.0375C13.5102 27.2695 13.6023 27.492 13.7664 27.6561L18.7189 32.6086C18.883 32.7727 19.1055 32.8648 19.3375 32.8648C19.5695 32.8648 19.792 32.7727 19.9561 32.6086L23.0029 29.5619C23.212 29.6555 23.4194 29.7369 23.625 29.8191V34.125C23.625 34.3571 23.7172 34.5796 23.8813 34.7437C24.0454 34.9078 24.2679 35 24.5 35H27.125V39.375H7.875C7.64294 39.375 7.42038 39.4672 7.25628 39.6313C7.09219 39.7954 7 40.0179 7 40.25V44.625H2.625C2.39294 44.625 2.17038 44.7172 2.00628 44.8813C1.84219 45.0454 1.75 45.2679 1.75 45.5V53.375C1.75 53.6071 1.84219 53.8296 2.00628 53.9937C2.17038 54.1578 2.39294 54.25 2.625 54.25H13.125C13.3571 54.25 13.5796 54.1578 13.7437 53.9937C13.9078 53.8296 14 53.6071 14 53.375V45.5C14 45.2679 13.9078 45.0454 13.7437 44.8813C13.5796 44.7172 13.3571 44.625 13.125 44.625H8.75V41.125H27.125V44.625H22.75C22.5179 44.625 22.2954 44.7172 22.1313 44.8813C21.9672 45.0454 21.875 45.2679 21.875 45.5V53.375C21.875 53.6071 21.9672 53.8296 22.1313 53.9937C22.2954 54.1578 22.5179 54.25 22.75 54.25H33.25C33.4821 54.25 33.7046 54.1578 33.8687 53.9937C34.0328 53.8296 34.125 53.6071 34.125 53.375V45.5C34.125 45.2679 34.0328 45.0454 33.8687 44.8813C33.7046 44.7172 33.4821 44.625 33.25 44.625H28.875V41.125H47.25V44.625H42.875C42.6429 44.625 42.4204 44.7172 42.2563 44.8813C42.0922 45.0454 42 45.2679 42 45.5V53.375C42 53.6071 42.0922 53.8296 42.2563 53.9937C42.4204 54.1578 42.6429 54.25 42.875 54.25H53.375C53.6071 54.25 53.8296 54.1578 53.9937 53.9937C54.1578 53.8296 54.25 53.6071 54.25 53.375V45.5C54.25 45.2679 54.1578 45.0454 53.9937 44.8813C53.8296 44.7172 53.6071 44.625 53.375 44.625ZM24.7625 28.3649C24.2286 28.1924 23.7091 27.9786 23.2085 27.7253C23.0443 27.6432 22.8584 27.6148 22.6772 27.6441C22.496 27.6735 22.3286 27.7591 22.1988 27.8889L19.3375 30.7527L15.6223 27.0375L18.4861 24.1736C18.6159 24.0438 18.7015 23.8764 18.7309 23.6952C18.7602 23.5139 18.7318 23.3281 18.6498 23.1639C18.3965 22.6633 18.1826 22.1437 18.0101 21.6099C17.9543 21.4324 17.8434 21.2773 17.6934 21.1672C17.5435 21.057 17.3623 20.9975 17.1763 20.9974H13.125V15.75H17.1763C17.3623 15.7498 17.5435 15.6903 17.6934 15.5802C17.8434 15.4701 17.9543 15.315 18.0101 15.1375C18.1826 14.6037 18.3965 14.0841 18.6498 13.5835C18.7318 13.4193 18.7602 13.2334 18.7309 13.0522C18.7015 12.871 18.6159 12.7036 18.4861 12.5737L15.6223 9.7125L19.3375 5.99725L22.2014 8.86112C22.3312 8.99088 22.4986 9.07649 22.6799 9.10586C22.8611 9.13522 23.0469 9.10685 23.2111 9.02475C23.7109 8.77157 24.2295 8.55771 24.7625 8.38513C24.94 8.32931 25.0951 8.21837 25.2052 8.06842C25.3153 7.91846 25.3748 7.73731 25.375 7.55125V3.5H30.625V7.55125C30.6252 7.73731 30.6847 7.91846 30.7948 8.06842C30.9049 8.21837 31.06 8.32931 31.2375 8.38513C31.7714 8.55758 32.2909 8.77144 32.7915 9.02475C32.9557 9.10685 33.1416 9.13522 33.3228 9.10586C33.504 9.07649 33.6714 8.99088 33.8013 8.86112L36.6625 5.99725L40.3778 9.7125L37.5139 12.5764C37.3841 12.7062 37.2985 12.8736 37.2691 13.0548C37.2398 13.2361 37.2682 13.4219 37.3503 13.5861C37.6035 14.0867 37.8174 14.6063 37.9899 15.1401C38.0457 15.3176 38.1566 15.4727 38.3066 15.5828C38.4565 15.693 38.6377 15.7525 38.8238 15.7526H42.875V21.0026H38.8238C38.6377 21.0028 38.4565 21.0623 38.3066 21.1724C38.1566 21.2826 38.0457 21.4376 37.9899 21.6151C37.8174 22.149 37.6035 22.6685 37.3503 23.1691C37.2682 23.3333 37.2398 23.5192 37.2691 23.7004C37.2985 23.8816 37.3841 24.049 37.5139 24.1789L40.3778 27.0375L36.6625 30.7527L33.7986 27.8889C33.6688 27.7591 33.5014 27.6735 33.3202 27.6441C33.1389 27.6148 32.9531 27.6432 32.7889 27.7253C32.2883 27.9786 31.7687 28.1924 31.2349 28.3649C31.0574 28.4207 30.9023 28.5316 30.7922 28.6816C30.682 28.8315 30.6226 29.0127 30.6224 29.1987V33.25H25.375V29.1987C25.3748 29.0127 25.3153 28.8315 25.2052 28.6816C25.0951 28.5316 24.94 28.4207 24.7625 28.3649V28.3649ZM12.25 52.5H3.5V46.375H12.25V52.5ZM32.375 52.5H23.625V46.375H32.375V52.5ZM52.5 52.5H43.75V46.375H52.5V52.5Z" fill="#DDE1E6"/>
<path d="M49.8751 3.50001H47.9641C47.7577 2.91619 47.3516 2.42415 46.8175 2.11083C46.2834 1.79751 45.6557 1.6831 45.0454 1.78781C44.4351 1.89252 43.8814 2.20962 43.4823 2.68305C43.0832 3.15649 42.8643 3.75578 42.8643 4.37501C42.8643 4.99423 43.0832 5.59352 43.4823 6.06696C43.8814 6.54039 44.4351 6.85749 45.0454 6.9622C45.6557 7.06691 46.2834 6.9525 46.8175 6.63918C47.3516 6.32587 47.7577 5.83382 47.9641 5.25001H49.8751C50.5713 5.25001 51.239 5.52657 51.7313 6.01885C52.2236 6.51113 52.5001 7.17881 52.5001 7.87501V31.5C52.5001 32.1962 52.2236 32.8639 51.7313 33.3562C51.239 33.8484 50.5713 34.125 49.8751 34.125H47.0891C46.8827 33.5412 46.4766 33.0491 45.9425 32.7358C45.4084 32.4225 44.7807 32.3081 44.1704 32.4128C43.5601 32.5175 43.0064 32.8346 42.6073 33.3081C42.2082 33.7815 41.9893 34.3808 41.9893 35C41.9893 35.6192 42.2082 36.2185 42.6073 36.692C43.0064 37.1654 43.5601 37.4825 44.1704 37.5872C44.7807 37.6919 45.4084 37.5775 45.9425 37.2642C46.4766 36.9509 46.8827 36.4588 47.0891 35.875H49.8751C51.035 35.8736 52.147 35.4122 52.9672 34.5921C53.7874 33.7719 54.2487 32.6599 54.2501 31.5V7.87501C54.2487 6.71511 53.7874 5.60312 52.9672 4.78295C52.147 3.96278 51.035 3.50139 49.8751 3.50001V3.50001ZM45.5001 5.25001C45.3271 5.25001 45.1579 5.19869 45.014 5.10254C44.8701 5.0064 44.758 4.86974 44.6917 4.70985C44.6255 4.54997 44.6082 4.37403 44.6419 4.2043C44.6757 4.03457 44.759 3.87866 44.8814 3.75629C45.0038 3.63392 45.1597 3.55058 45.3294 3.51682C45.4992 3.48306 45.6751 3.50038 45.835 3.56661C45.9949 3.63284 46.1315 3.74499 46.2277 3.88888C46.3238 4.03277 46.3751 4.20195 46.3751 4.37501C46.3751 4.60707 46.2829 4.82963 46.1188 4.99372C45.9548 5.15782 45.7322 5.25001 45.5001 5.25001ZM44.6251 35.875C44.4521 35.875 44.2829 35.8237 44.139 35.7275C43.9951 35.6314 43.883 35.4947 43.8167 35.3349C43.7505 35.175 43.7332 34.999 43.7669 34.8293C43.8007 34.6596 43.884 34.5037 44.0064 34.3813C44.1288 34.2589 44.2847 34.1756 44.4544 34.1418C44.6242 34.1081 44.8001 34.1254 44.96 34.1916C45.1199 34.2578 45.2565 34.37 45.3527 34.5139C45.4488 34.6578 45.5001 34.827 45.5001 35C45.5001 35.2321 45.4079 35.4546 45.2438 35.6187C45.0798 35.7828 44.8572 35.875 44.6251 35.875Z" fill="#DDE1E6"/>
<path d="M6.125 35.875H8.911C9.11741 36.4588 9.52356 36.9509 10.0577 37.2642C10.5918 37.5775 11.2195 37.6919 11.8298 37.5872C12.4401 37.4825 12.9937 37.1654 13.3928 36.692C13.792 36.2185 14.0109 35.6192 14.0109 35C14.0109 34.3808 13.792 33.7815 13.3928 33.3081C12.9937 32.8346 12.4401 32.5175 11.8298 32.4128C11.2195 32.3081 10.5918 32.4225 10.0577 32.7358C9.52356 33.0491 9.11741 33.5412 8.911 34.125H6.125C5.42881 34.125 4.76113 33.8484 4.26884 33.3562C3.77656 32.8639 3.5 32.1962 3.5 31.5V7.87501C3.5 7.17881 3.77656 6.51113 4.26884 6.01885C4.76113 5.52657 5.42881 5.25001 6.125 5.25001H8.036C8.24241 5.83382 8.64856 6.32587 9.18267 6.63918C9.71678 6.9525 10.3445 7.06691 10.9548 6.9622C11.5651 6.85749 12.1187 6.54039 12.5178 6.06696C12.917 5.59352 13.1359 4.99423 13.1359 4.37501C13.1359 3.75578 12.917 3.15649 12.5178 2.68305C12.1187 2.20962 11.5651 1.89252 10.9548 1.78781C10.3445 1.6831 9.71678 1.79751 9.18267 2.11083C8.64856 2.42415 8.24241 2.91619 8.036 3.50001H6.125C4.9651 3.50139 3.85311 3.96278 3.03294 4.78295C2.21277 5.60312 1.75139 6.71511 1.75 7.87501V31.5C1.75139 32.6599 2.21277 33.7719 3.03294 34.5921C3.85311 35.4122 4.9651 35.8736 6.125 35.875ZM11.375 34.125C11.5481 34.125 11.7172 34.1763 11.8611 34.2725C12.005 34.3686 12.1172 34.5053 12.1834 34.6652C12.2496 34.825 12.2669 35.001 12.2332 35.1707C12.1994 35.3404 12.1161 35.4964 11.9937 35.6187C11.8713 35.7411 11.7154 35.8244 11.5457 35.8582C11.376 35.892 11.2 35.8746 11.0402 35.8084C10.8803 35.7422 10.7436 35.63 10.6475 35.4861C10.5513 35.3422 10.5 35.1731 10.5 35C10.5 34.7679 10.5922 34.5454 10.7563 34.3813C10.9204 34.2172 11.1429 34.125 11.375 34.125ZM10.5 3.50001C10.6731 3.50001 10.8422 3.55132 10.9861 3.64747C11.13 3.74362 11.2422 3.88027 11.3084 4.04016C11.3746 4.20004 11.3919 4.37598 11.3582 4.54571C11.3244 4.71544 11.2411 4.87135 11.1187 4.99372C10.9963 5.11609 10.8404 5.19943 10.6707 5.23319C10.501 5.26695 10.325 5.24963 10.1652 5.1834C10.0053 5.11717 9.86861 5.00502 9.77246 4.86113C9.67632 4.71724 9.625 4.54806 9.625 4.37501C9.625 4.14294 9.71719 3.92038 9.88128 3.75629C10.0454 3.59219 10.2679 3.50001 10.5 3.50001Z" fill="#DDE1E6"/>
</svg>
