<svg width="1538" height="1888" viewBox="0 0 1538 1888" fill="none" xmlns="http://www.w3.org/2000/svg">
<path d="M380.757 1214.67C380.757 1183.32 359 1164.62 320.613 1164.62C304.938 1164.62 294.322 1166.16 288.77 1167.64V1268.24C295.344 1269.72 303.427 1270.22 314.567 1270.22C355.484 1270.22 380.757 1249.54 380.757 1214.67Z" fill="#03A06C"/>
<path d="M618.402 1165.68C601.211 1165.68 590.102 1167.17 583.531 1168.71V1391.5C590.106 1393.05 600.722 1393.05 610.32 1393.05C680.058 1393.54 725.54 1355.15 725.54 1273.81C726.034 1203.08 684.588 1165.68 618.402 1165.68Z" fill="#03A06C"/>
<path d="M1059.84 0H301.542C190.762 0 100.599 90.2257 100.599 200.943V943.996H80.9725C36.261 943.996 0 980.222 0 1024.97V1516.04C0 1560.79 36.2571 1597.01 80.9725 1597.01H100.599V1687.05C100.599 1797.89 190.762 1888 301.542 1888H1336.21C1446.92 1888 1537.09 1797.89 1537.09 1687.05V475.579L1059.84 0ZM1336.21 1764.94H301.542C258.647 1764.94 223.718 1730.01 223.718 1687.05V1597.01H1188.24C1232.96 1597.01 1269.21 1560.79 1269.21 1516.04V1024.97C1269.21 980.222 1232.96 943.996 1188.24 943.996H223.718V200.943C223.718 158.111 258.651 123.182 301.542 123.182L1013.8 122.438V385.714C1013.8 462.614 1076.2 525.068 1153.15 525.068L1411.06 524.328L1413.96 1687.05C1413.96 1730.01 1379.1 1764.94 1336.21 1764.94Z" fill="#03A06C"/>
<path d="M434.105 1248.92C434.105 1272.1 431.046 1291.96 424.926 1308.49C418.936 1324.9 410.277 1338.31 398.949 1348.73C387.621 1359.14 373.819 1366.83 357.543 1371.77C341.397 1376.59 322.126 1379 299.73 1379H239.379C235.082 1379 231.436 1377.76 228.441 1375.29C225.577 1372.68 224.145 1368.52 224.145 1362.79V1142.48C224.145 1136.75 225.577 1132.65 228.441 1130.17C231.436 1127.57 235.082 1126.27 239.379 1126.27H304.223C326.749 1126.27 345.824 1128.93 361.449 1134.27C377.204 1139.48 390.421 1147.29 401.098 1157.71C411.905 1168 420.108 1180.76 425.707 1195.99C431.306 1211.23 434.105 1228.87 434.105 1248.92ZM380.98 1250.68C380.98 1238.7 379.548 1227.57 376.684 1217.28C373.949 1206.99 369.457 1198.08 363.207 1190.52C357.087 1182.97 349.145 1177.11 339.379 1172.95C329.743 1168.65 317.048 1166.5 301.293 1166.5H275.316V1338.38H302.074C316.137 1338.38 327.986 1336.55 337.621 1332.91C347.257 1329.26 355.264 1323.79 361.645 1316.5C368.155 1309.08 372.973 1299.9 376.098 1288.96C379.353 1278.02 380.98 1265.26 380.98 1250.68ZM703.832 1249.7C703.832 1270.67 701.228 1289.42 696.02 1305.95C690.811 1322.49 683.064 1336.55 672.777 1348.14C662.491 1359.6 649.73 1368.39 634.496 1374.51C619.392 1380.5 601.879 1383.49 581.957 1383.49C562.296 1383.49 545.108 1380.95 530.395 1375.88C515.811 1370.67 503.637 1362.79 493.871 1352.24C484.105 1341.7 476.749 1328.28 471.801 1312.01C466.983 1295.73 464.574 1276.46 464.574 1254.2C464.574 1233.75 467.178 1215.39 472.387 1199.12C477.595 1182.71 485.342 1168.78 495.629 1157.32C505.915 1145.86 518.611 1137.07 533.715 1130.95C548.949 1124.83 566.592 1121.77 586.645 1121.77C605.785 1121.77 622.647 1124.31 637.23 1129.39C651.944 1134.47 664.184 1142.28 673.949 1152.83C683.845 1163.38 691.267 1176.72 696.215 1192.87C701.293 1208.88 703.832 1227.83 703.832 1249.7ZM649.926 1252.44C649.926 1239.16 648.884 1227.11 646.801 1216.3C644.717 1205.37 641.137 1196.06 636.059 1188.38C631.111 1180.56 624.47 1174.57 616.137 1170.41C607.803 1166.11 597.387 1163.96 584.887 1163.96C572.257 1163.96 561.71 1166.37 553.246 1171.19C544.783 1175.88 537.947 1182.19 532.738 1190.13C527.53 1198.08 523.819 1207.39 521.605 1218.06C519.522 1228.61 518.48 1239.81 518.48 1251.66C518.48 1265.46 519.522 1277.89 521.605 1288.96C523.689 1299.9 527.204 1309.27 532.152 1317.09C537.1 1324.9 543.741 1330.89 552.074 1335.05C560.408 1339.09 570.889 1341.11 583.52 1341.11C596.15 1341.11 606.697 1338.77 615.16 1334.08C623.624 1329.39 630.46 1323.01 635.668 1314.94C640.876 1306.86 644.522 1297.49 646.605 1286.81C648.819 1276.01 649.926 1264.55 649.926 1252.44ZM921.996 1340.72C921.996 1343.97 921.866 1346.77 921.605 1349.12C921.475 1351.33 921.215 1353.28 920.824 1354.98C920.434 1356.54 919.913 1357.91 919.262 1359.08C918.611 1360.25 917.569 1361.62 916.137 1363.18C914.704 1364.61 911.905 1366.5 907.738 1368.84C903.702 1371.19 898.689 1373.47 892.699 1375.68C886.84 1377.76 880.069 1379.52 872.387 1380.95C864.835 1382.39 856.632 1383.1 847.777 1383.1C830.46 1383.1 814.835 1380.43 800.902 1375.09C786.97 1369.76 775.121 1361.81 765.355 1351.27C755.59 1340.59 748.103 1327.31 742.895 1311.42C737.686 1295.54 735.082 1277.05 735.082 1255.95C735.082 1234.47 737.947 1215.39 743.676 1198.73C749.405 1182.06 757.413 1168.06 767.699 1156.73C777.986 1145.41 790.29 1136.81 804.613 1130.95C819.066 1125.09 834.952 1122.16 852.27 1122.16C859.301 1122.16 866.072 1122.75 872.582 1123.92C879.092 1125.09 885.082 1126.66 890.551 1128.61C896.15 1130.43 901.163 1132.58 905.59 1135.05C910.017 1137.53 913.077 1139.68 914.77 1141.5C916.592 1143.19 917.829 1144.62 918.48 1145.8C919.132 1146.97 919.652 1148.47 920.043 1150.29C920.434 1152.11 920.694 1154.26 920.824 1156.73C921.085 1159.21 921.215 1162.27 921.215 1165.91C921.215 1169.82 921.085 1173.14 920.824 1175.88C920.564 1178.61 920.108 1180.82 919.457 1182.52C918.806 1184.21 918.025 1185.45 917.113 1186.23C916.202 1187.01 915.16 1187.4 913.988 1187.4C912.035 1187.4 909.561 1186.29 906.566 1184.08C903.572 1181.73 899.665 1179.2 894.848 1176.46C890.16 1173.6 884.496 1171.06 877.855 1168.84C871.345 1166.5 863.533 1165.33 854.418 1165.33C844.392 1165.33 835.408 1167.41 827.465 1171.58C819.652 1175.61 812.947 1181.47 807.348 1189.16C801.879 1196.71 797.712 1205.89 794.848 1216.7C791.983 1227.5 790.551 1239.68 790.551 1253.22C790.551 1268.06 792.048 1280.95 795.043 1291.89C798.168 1302.7 802.53 1311.62 808.129 1318.65C813.858 1325.68 820.694 1330.95 828.637 1334.47C836.71 1337.85 845.759 1339.55 855.785 1339.55C864.9 1339.55 872.777 1338.51 879.418 1336.42C886.059 1334.21 891.723 1331.8 896.41 1329.2C901.228 1326.59 905.134 1324.25 908.129 1322.16C911.254 1320.08 913.663 1319.04 915.355 1319.04C916.658 1319.04 917.699 1319.3 918.48 1319.82C919.262 1320.34 919.913 1321.38 920.434 1322.95C920.954 1324.51 921.345 1326.72 921.605 1329.59C921.866 1332.32 921.996 1336.03 921.996 1340.72Z" fill="white"/>
</svg>
