<svg width="6148" height="6586" viewBox="0 0 6148 6586" fill="none" xmlns="http://www.w3.org/2000/svg">
<path d="M4606.8 4763.82L4427.38 4828.6L4490.91 5002.94L4670.33 4938.16L4606.8 4763.82Z" fill="#313131"/>
<path d="M6148 2035.69L5134.69 2614.65C5134.69 2560.37 5130.15 2506.1 5125.6 2456.34C5566.37 2388.49 6238.88 1755.25 6011.68 1045.11C5530.02 2194 4103.21 2062.83 4075.95 2958.41C4398.57 2949.37 4444.01 3437.87 4135.02 3496.67C4071.4 3297.65 3948.72 3125.77 3789.68 2990.07V2763.92H3671.53C3539.76 2447.29 3567.02 1985.93 3912.36 1854.76C4039.59 1777.87 4071.4 1524.57 4230.44 1447.68C3889.64 1307.46 3580.65 1601.46 3244.4 1578.85C3267.12 1633.13 3312.56 1673.83 3371.63 1691.93C3208.05 1877.38 3144.43 2184.95 3135.34 2447.29C3112.62 2442.77 3089.9 2442.77 3067.18 2442.77C3044.46 2442.77 3026.29 2442.77 3008.11 2447.29C3003.57 2180.43 2935.41 1868.33 2771.83 1678.36C2826.35 1660.26 2876.34 1619.56 2899.06 1565.28C2562.8 1587.89 2253.81 1289.36 1913.01 1434.11C2072.05 1515.52 2103.86 1768.82 2231.09 1845.71C2576.43 1976.89 2603.7 2442.77 2471.92 2763.92H2344.69V2990.07C2185.65 3121.25 2062.97 3297.65 1999.35 3492.15C1690.36 3433.34 1735.8 2944.84 2058.42 2953.89C2031.16 2058.3 604.349 2189.47 118.143 1040.59C-109.055 1750.73 563.453 2379.45 1004.22 2451.82C999.675 2501.57 999.675 2555.85 995.131 2610.13L0 2035.69C36.3518 2768.44 695.228 3057.92 1026.94 2985.55C1031.48 3030.78 1040.57 3080.54 1049.66 3125.77L118.143 2836.29C354.43 3478.58 904.251 3591.66 1135.99 3455.96C1149.63 3492.15 1163.26 3532.85 1181.43 3569.04L440.766 3528.33C786.108 4025.88 1195.07 4025.88 1349.56 3876.61C1367.74 3903.75 1385.91 3926.37 1404.09 3948.99L886.075 4080.16C1263.23 4428.44 1554.04 4360.59 1640.38 4206.81C1658.55 4220.38 1672.18 4238.47 1690.36 4252.04L1372.28 4478.2C1731.26 4690.78 1922.1 4586.75 1958.45 4442.01L1999.35 4464.63L1844.85 4722.45C2135.67 4817.43 2253.81 4713.4 2262.9 4591.27L2290.16 4618.41C2321.97 4736.02 2103.86 4907.9 2085.68 4912.42C2172.02 4916.94 2258.36 4898.85 2340.15 4862.66V4903.37C2317.43 5048.11 2058.42 5079.78 1931.19 5097.87C1890.29 5057.16 1840.31 5034.54 1781.24 5034.54C1758.52 5034.54 1740.34 5039.07 1717.62 5043.59C1617.66 4957.65 1095.1 4523.43 1090.55 4523.43C1004.22 4455.58 895.163 4591.27 986.043 4659.12L1590.39 5156.67C1581.3 5183.81 1572.22 5206.42 1576.76 5233.56C1576.76 5346.64 1667.64 5437.11 1781.24 5437.11C1822.13 5437.11 1858.49 5423.54 1894.84 5405.44C1940.28 5441.63 2044.79 5532.09 2049.33 5536.62C2135.67 5604.46 2244.72 5468.77 2153.84 5400.92L2008.44 5278.8C2199.28 5174.76 2408.31 5093.35 2621.87 5034.54C2399.22 5183.81 2222 5550.19 2399.22 5794.44L2412.85 5771.82C2408.31 5780.87 2521.91 5577.32 2617.33 5437.11C2653.68 5387.35 2690.03 5337.6 2726.39 5287.84C2544.63 5577.32 2462.84 6133.67 2740.02 6269.37C2744.56 6255.8 2889.97 5595.42 2894.51 5577.32C2835.44 5934.65 2867.25 6405.06 3089.9 6585.99C3312.56 6405.06 3344.37 5939.18 3285.29 5577.32C3289.84 5595.42 3435.25 6251.28 3439.79 6269.37C3712.43 6133.67 3635.18 5572.8 3453.42 5287.84C3489.77 5337.6 3526.12 5387.35 3562.48 5437.11C3657.9 5577.32 3771.5 5780.87 3766.96 5771.82L3780.59 5794.44C3957.8 5550.19 3785.13 5183.81 3557.93 5034.54C3635.18 5057.16 3726.06 5084.3 3830.57 5120.48C3957.8 5170.24 4075.95 5251.66 4166.83 5355.69C4234.99 5446.15 4348.58 5491.38 4462.18 5482.34C4607.59 5477.81 4725.73 5369.26 4743.91 5229.04C4753 5156.67 4730.28 5079.78 4689.38 5020.97L4539.43 5075.25L4471.27 5102.39L4444.01 5034.54L4389.48 4885.28C4275.88 4894.33 4175.91 4966.7 4130.47 5070.73C4012.33 5043.59 3857.84 4998.36 3839.66 4903.37V4862.66C3916.91 4898.85 4007.79 4916.94 4094.12 4912.42C4075.95 4907.9 3853.29 4731.49 3889.64 4618.41L3916.91 4591.27C3926 4713.4 4044.14 4817.43 4334.95 4722.45L4180.46 4464.63L4221.35 4442.01C4257.71 4586.75 4448.55 4690.78 4807.53 4482.72L4489.45 4256.56C4507.62 4242.99 4525.8 4229.42 4539.43 4211.33C4625.77 4365.12 4916.58 4432.96 5293.73 4084.68L4775.72 3953.51C4793.89 3930.89 4812.07 3903.75 4830.25 3881.14C4980.2 4030.4 5389.16 4030.4 5734.5 3532.85L4993.83 3573.56C5007.46 3537.38 5025.64 3496.67 5039.27 3460.48C5271.01 3596.18 5820.83 3483.1 6057.12 2840.81L5098.34 3125.77C5107.43 3076.01 5111.97 3030.78 5116.52 2985.55C5452.77 3057.92 6111.65 2768.44 6148 2035.69ZM3876.01 4442.01C3816.94 4518.9 3753.32 4586.75 3676.08 4641.03V4812.91H3571.57C3439.79 5007.41 3262.57 5120.48 3076.27 5120.48C2889.97 5120.48 2712.75 5002.88 2580.98 4812.91H2476.47V4641.03C2035.7 4310.84 1944.82 3686.64 2276.53 3247.89C2335.6 3171 2399.22 3103.15 2476.47 3048.88V2890.57H2571.89C2708.21 2691.55 2880.88 2569.42 3076.27 2569.42C3271.66 2569.42 3444.33 2691.55 3580.65 2890.57H3676.08V3048.88C4116.84 3379.07 4203.18 3998.74 3876.01 4442.01Z" fill="#313131"/>
<path d="M1663.07 1583.37C1803.93 1542.66 1999.32 1682.88 1976.6 1723.59C1953.88 1764.3 1876.63 1728.11 1699.42 1669.31C1767.58 1795.96 1994.78 1854.76 2158.36 1854.76C2062.94 1768.82 2031.13 1619.56 1944.79 1529.09C1903.9 1483.86 1844.83 1461.25 1785.76 1461.25C1713.05 1465.77 1663.07 1520.05 1663.07 1583.37Z" fill="#313131"/>
<path d="M4539.4 1230.57C4571.2 1262.23 4607.56 1284.85 4643.91 1302.94H4648.45C4625.73 1325.56 4603.01 1348.17 4575.75 1366.26C4553.03 1384.36 4525.76 1397.93 4503.04 1411.5C4521.22 1420.54 4539.4 1434.11 4553.03 1452.2C4580.29 1483.87 4593.92 1524.57 4593.92 1565.28C4621.19 1551.71 4653 1533.62 4675.72 1511.01C4734.79 1470.3 4784.77 1416.02 4825.67 1352.69C4843.84 1352.69 4862.02 1352.69 4880.19 1352.69C4921.09 1348.17 4957.44 1339.12 4998.34 1321.03C5030.15 1307.46 5061.95 1298.42 5093.76 1289.37C5152.83 1280.32 5216.45 1293.89 5266.43 1325.56L5320.96 1167.24C5280.06 1162.72 5234.62 1158.2 5193.73 1162.72C5148.29 1167.24 5107.39 1176.29 5066.5 1189.86C5030.15 1203.43 4998.34 1221.52 4966.53 1244.14C4939.27 1262.23 4907.46 1275.8 4871.11 1280.32H4862.02C4902.91 1185.34 4907.46 1081.3 4875.65 986.318C4857.48 927.517 4816.58 877.762 4766.59 841.577C4739.33 823.484 4702.98 809.915 4671.17 805.392C4634.82 800.868 4598.47 800.868 4566.66 814.438C4498.5 837.054 4448.52 900.378 4439.43 968.225C4430.34 1017.98 4439.43 1072.26 4457.6 1117.49C4475.78 1158.2 4503.04 1198.91 4539.4 1230.57ZM4548.48 999.888C4553.03 972.749 4575.75 950.133 4603.01 941.086C4630.28 936.563 4657.54 941.086 4680.26 959.179C4702.98 977.272 4716.61 1004.41 4725.7 1031.55C4743.88 1094.87 4734.79 1162.72 4702.98 1221.52C4698.44 1230.57 4693.89 1244.14 4684.8 1253.18L4671.17 1248.66C4643.91 1230.57 4616.64 1212.48 4593.92 1185.34C4571.2 1158.2 4557.57 1131.06 4548.48 1099.4C4543.94 1067.74 4539.4 1031.55 4548.48 999.888Z" fill="#313131"/>
<path d="M1058.76 1289.37C1090.57 1298.41 1122.38 1307.46 1154.18 1321.03C1190.54 1339.12 1231.43 1348.17 1272.33 1352.69C1290.5 1352.69 1308.68 1352.69 1326.86 1352.69C1363.21 1416.01 1417.73 1470.29 1476.81 1511C1504.07 1529.09 1531.33 1547.19 1558.6 1565.28C1558.6 1524.57 1572.23 1483.86 1599.49 1452.2C1613.13 1434.11 1631.3 1420.54 1654.02 1411.49C1626.76 1397.92 1604.04 1384.35 1576.77 1366.26C1549.51 1348.17 1526.79 1325.55 1504.07 1302.93H1508.61C1544.97 1284.84 1581.32 1257.7 1613.13 1230.56C1644.93 1198.9 1672.2 1162.72 1690.37 1122.01C1713.09 1076.78 1717.64 1022.5 1708.55 972.744C1699.46 900.373 1649.48 841.572 1581.32 818.956C1549.51 805.387 1513.16 805.387 1476.81 809.91C1440.45 814.433 1408.65 828.002 1381.38 846.095C1331.4 882.28 1295.05 932.035 1272.33 990.836C1240.52 1085.82 1245.06 1189.86 1285.96 1284.84H1281.42C1249.61 1275.8 1217.8 1266.75 1185.99 1248.66C1154.18 1230.56 1117.83 1212.47 1086.02 1194.38C1045.13 1176.29 1004.23 1167.24 963.337 1167.24C922.442 1167.24 877.002 1167.24 836.106 1171.76L890.634 1330.07C940.618 1293.89 999.689 1280.32 1058.76 1289.37ZM1422.28 1036.07C1431.37 1008.93 1445 981.79 1467.72 963.697C1490.44 945.605 1517.7 941.082 1544.97 945.605C1572.23 954.651 1594.95 972.744 1599.49 1004.41C1608.58 1036.07 1608.58 1072.25 1599.49 1103.92C1590.41 1135.58 1576.77 1167.24 1554.05 1189.86C1531.33 1216.99 1504.07 1239.61 1472.26 1253.18H1463.17C1458.63 1244.13 1449.54 1235.09 1445 1221.52C1413.19 1162.72 1408.65 1099.39 1422.28 1036.07Z" fill="#313131"/>
<path d="M3253.48 199.287L3076.26 0.267578L2899.05 199.287L3076.26 398.306L3253.48 199.287Z" fill="#313131"/>
<path d="M2744.54 950.125H2826.33C2821.78 972.741 2817.24 995.357 2812.7 1013.45C2789.98 1076.77 2762.71 1135.57 2721.82 1185.33C2662.74 1266.75 2580.95 1330.07 2490.07 1379.83L2521.88 1388.87C2580.95 1406.96 2635.48 1429.58 2690.01 1443.15C2749.08 1402.44 2803.61 1352.69 2849.05 1293.89C2903.58 1230.56 2944.47 1158.19 2976.28 1081.3C2994.46 1036.07 3008.09 990.834 3017.18 945.602H3144.41C3171.67 1072.25 3226.2 1194.38 3307.99 1293.89C3353.43 1352.69 3407.96 1402.44 3467.03 1443.15C3530.64 1425.06 3603.35 1402.44 3666.96 1375.3C3576.08 1330.07 3498.84 1262.22 3439.76 1185.33C3398.87 1131.05 3371.6 1072.25 3348.89 1013.45C3339.8 990.834 3335.25 968.218 3335.25 950.125H3417.05C3467.03 868.708 3512.47 787.291 3553.36 705.874C3653.33 452.577 3526.1 348.544 3339.8 348.544L3080.79 628.981L2821.78 348.544C2635.48 348.544 2508.25 452.577 2608.22 705.874C2649.11 791.815 2694.55 873.232 2744.54 950.125Z" fill="#313131"/>
<path d="M3594.26 1189.85C3626.07 1253.18 3657.88 1311.98 3694.23 1370.78C3803.28 1330.07 3916.88 1307.46 4035.03 1302.93C4094.1 1302.93 4153.17 1311.98 4212.24 1330.07C4239.51 1284.84 4262.23 1239.61 4289.49 1194.38C4362.19 1004.4 4271.31 932.034 4130.45 932.034L3939.6 1140.1L3748.76 932.034C3616.98 927.511 3521.56 1004.4 3594.26 1189.85Z" fill="#313131"/>
<path d="M4071.42 832.532L3944.19 692.314L3812.42 832.532L3944.19 986.32L4071.42 832.532Z" fill="#313131"/>
<path d="M1940.26 1325.56C1999.33 1307.47 2058.4 1298.42 2117.48 1298.42C2235.62 1302.94 2349.22 1325.56 2458.27 1366.27C2494.63 1307.47 2530.98 1248.66 2558.24 1185.34C2630.95 999.89 2540.07 922.996 2399.2 922.996L2212.9 1131.06L2022.05 922.996C1885.73 922.996 1790.31 995.367 1863.01 1185.34C1885.73 1235.09 1908.45 1280.33 1940.26 1325.56Z" fill="#313131"/>
<path d="M2340.15 832.532L2208.37 692.314L2081.14 832.532L2208.37 986.32L2340.15 832.532Z" fill="#313131"/>
<path d="M3998.7 1868.34C4162.29 1868.34 4389.49 1809.54 4457.65 1687.42C4280.43 1746.22 4198.64 1782.4 4180.46 1741.69C4157.74 1700.98 4353.13 1560.77 4494 1601.48C4494 1538.15 4439.47 1483.87 4375.85 1479.35C4316.78 1474.83 4253.17 1497.44 4212.27 1542.67C4125.94 1633.14 4094.13 1777.88 3998.7 1868.34Z" fill="#313131"/>
<path d="M3267.1 3903.75H3347.43V3602.53H3267.1V3446.91H2880.86V3602.53H2804.6V3903.75H2880.86V4401.3L2726.37 4541.52V4699.83H3421.6V4541.52L3267.1 4401.3V3903.75ZM2849.84 3647.56H3302.19V3827.68H2849.84V3647.56Z" fill="#313131"/>
<path d="M3148.97 3085.07L3071.72 2999.13L2999.02 3085.07L3071.72 3171.01L3148.97 3085.07Z" fill="#313131"/>
<path d="M3071.77 3270.51L2962.71 3152.91C2880.92 3152.91 2826.39 3198.14 2871.83 3306.7C2890.01 3342.88 2908.18 3379.07 2930.9 3410.73H3217.17C3239.89 3374.54 3258.07 3342.88 3276.25 3306.7C3321.69 3198.14 3262.61 3152.91 3185.37 3152.91L3071.77 3270.51Z" fill="#313131"/>
<path d="M2549.14 4487.25H2576.4V4681.74H2621.84V4446.54H2549.14V4487.25Z" fill="#313131"/>
<path d="M2735.48 4337.97H2780.92V4102.77H2708.21V4143.48H2735.48V4337.97Z" fill="#313131"/>
<path d="M2571.92 4098.25C2549.2 4098.25 2526.48 4107.3 2512.84 4125.39C2499.21 4143.48 2494.67 4161.58 2494.67 4184.19V4261.09C2494.67 4283.7 2499.21 4306.32 2517.39 4324.41C2535.56 4337.98 2553.74 4347.03 2576.46 4347.03C2599.18 4347.03 2621.9 4337.98 2635.53 4319.89C2649.16 4301.79 2653.71 4283.7 2653.71 4261.09V4179.67C2653.71 4157.05 2649.16 4134.44 2630.99 4120.87C2612.81 4107.3 2590.09 4098.25 2571.92 4098.25ZM2608.27 4256.56C2608.27 4265.61 2608.27 4279.18 2599.18 4288.22C2590.09 4297.27 2581 4301.79 2571.92 4301.79C2562.83 4301.79 2553.74 4297.27 2544.65 4288.22C2540.11 4279.18 2535.56 4265.61 2535.56 4256.56V4179.67C2535.56 4170.62 2535.56 4157.05 2544.65 4152.53C2553.74 4143.48 2562.83 4138.96 2571.92 4138.96C2590.09 4138.96 2608.27 4152.53 2608.27 4175.15V4256.56Z" fill="#313131"/>
<path d="M2340.14 4143.48H2371.95V4337.97H2412.85V4102.77H2340.14V4143.48Z" fill="#313131"/>
<path d="M2626.4 3442.4H2658.21V3636.89H2699.1V3401.69H2626.4V3442.4Z" fill="#313131"/>
<path d="M2553.72 3618.79C2567.35 3600.7 2571.89 3582.61 2571.89 3559.99V3478.57C2571.89 3455.96 2562.81 3433.34 2549.17 3419.77C2535.54 3406.2 2512.82 3397.16 2490.1 3397.16C2467.38 3397.16 2444.66 3406.2 2431.03 3424.3C2417.4 3442.39 2412.86 3460.48 2412.86 3483.1V3559.99C2412.86 3582.61 2417.4 3605.22 2435.58 3623.32C2449.21 3636.89 2471.93 3645.93 2494.65 3645.93C2517.37 3641.41 2540.09 3632.36 2553.72 3618.79ZM2462.84 3587.13C2458.29 3578.08 2453.75 3564.51 2453.75 3555.47V3478.57C2453.75 3469.53 2453.75 3455.96 2462.84 3451.44C2471.93 3442.39 2481.01 3437.87 2490.1 3437.87C2508.28 3437.87 2526.45 3451.44 2526.45 3474.05V3555.47C2526.45 3564.51 2526.45 3578.08 2517.37 3587.13C2508.28 3596.18 2499.19 3600.7 2490.1 3600.7C2481.01 3600.7 2471.93 3596.18 2462.84 3587.13Z" fill="#313131"/>
<path d="M2262.88 3442.4H2294.69V3636.89H2335.58V3401.69H2262.88V3442.4Z" fill="#313131"/>
<path d="M2740.02 3288.6H2780.92V3053.4H2708.21V3089.58H2740.02V3288.6Z" fill="#313131"/>
<path d="M2576.46 3293.14C2599.18 3293.14 2621.9 3284.09 2635.53 3266C2649.16 3247.91 2653.71 3229.81 2653.71 3207.2V3125.78C2653.71 3103.16 2649.16 3080.55 2630.99 3066.98C2617.36 3053.41 2594.64 3044.36 2571.92 3044.36C2549.2 3044.36 2526.48 3053.41 2512.84 3071.5C2499.21 3089.59 2494.67 3107.69 2494.67 3130.3V3207.2C2494.67 3229.81 2499.21 3252.43 2517.39 3270.52C2531.02 3284.09 2553.74 3293.14 2576.46 3293.14ZM2540.11 3130.3C2540.11 3121.26 2540.11 3107.69 2549.2 3103.16C2558.28 3094.12 2567.37 3089.59 2576.46 3089.59C2594.64 3089.59 2612.81 3103.16 2612.81 3125.78V3207.2C2612.81 3216.24 2612.81 3229.81 2603.72 3238.86C2594.64 3247.91 2585.55 3252.43 2576.46 3252.43C2567.37 3252.43 2553.74 3247.91 2549.2 3238.86C2544.65 3229.81 2540.11 3216.24 2540.11 3207.2V3130.3Z" fill="#313131"/>
<path d="M2222 3745.45C2199.28 3745.45 2176.56 3754.49 2162.93 3772.58C2149.3 3790.68 2144.76 3808.77 2144.76 3831.39V3908.28C2144.76 3930.9 2149.3 3953.51 2167.48 3971.6C2181.11 3985.17 2203.83 3994.22 2226.55 3994.22C2249.27 3994.22 2271.99 3985.17 2285.62 3967.08C2299.25 3948.99 2303.79 3930.9 2303.79 3908.28V3826.86C2303.79 3804.25 2299.25 3781.63 2281.07 3768.06C2262.9 3754.49 2240.18 3745.45 2222 3745.45ZM2258.35 3826.86V3903.76C2258.35 3912.8 2258.35 3926.37 2249.27 3935.42C2240.18 3944.47 2231.09 3948.99 2222 3948.99C2212.91 3948.99 2199.28 3944.47 2194.74 3935.42C2190.2 3926.37 2185.65 3912.8 2185.65 3903.76V3826.86C2185.65 3817.82 2185.65 3804.25 2194.74 3799.72C2203.83 3790.68 2212.91 3786.15 2222 3786.15C2240.18 3786.15 2258.35 3804.25 2258.35 3826.86Z" fill="#313131"/>
<path d="M2358.34 3790.68H2385.61V3985.18H2426.5V3749.97H2358.34V3790.68Z" fill="#313131"/>
<path d="M2585.52 3745.45C2544.63 3745.45 2508.27 3777.11 2508.27 3817.82C2508.27 3822.34 2508.27 3822.34 2508.27 3826.86V3903.76C2508.27 3926.37 2512.82 3948.99 2530.99 3967.08C2549.17 3980.65 2567.35 3989.7 2590.07 3989.7C2612.79 3989.7 2635.51 3980.65 2649.14 3962.56C2662.77 3944.47 2667.31 3926.37 2667.31 3903.76V3822.34C2667.31 3799.72 2662.77 3777.11 2644.59 3763.54C2630.96 3754.49 2608.24 3745.45 2585.52 3745.45ZM2621.87 3908.28C2621.87 3917.33 2621.87 3930.9 2612.79 3939.94C2603.7 3948.99 2594.61 3953.51 2585.52 3953.51C2576.43 3953.51 2562.8 3948.99 2558.26 3939.94C2553.71 3930.9 2549.17 3917.33 2549.17 3908.28V3831.39C2549.17 3822.34 2549.17 3808.77 2558.26 3804.25C2571.89 3790.68 2594.61 3786.15 2608.24 3799.72C2617.33 3808.77 2621.87 3817.82 2621.87 3831.39V3908.28Z" fill="#313131"/>
<path d="M3526.12 4487.25H3557.92V4681.74H3598.82V4446.54H3526.12V4487.25Z" fill="#313131"/>
<path d="M3735.16 4143.48H3762.42V4337.97H3807.86V4102.77H3735.16V4143.48Z" fill="#313131"/>
<path d="M3607.9 4098.25C3603.36 4098.25 3603.36 4098.25 3598.81 4098.25C3576.09 4098.25 3553.38 4107.3 3539.74 4125.39C3526.11 4143.48 3521.57 4161.58 3521.57 4184.19V4261.09C3521.57 4283.7 3526.11 4306.32 3544.29 4324.41C3557.92 4337.98 3580.64 4347.03 3603.36 4347.03C3626.08 4347.03 3648.8 4337.98 3662.43 4319.89C3676.06 4301.79 3680.61 4283.7 3680.61 4261.09V4179.67C3680.61 4138.96 3648.8 4102.77 3607.9 4098.25ZM3635.17 4256.56C3635.17 4265.61 3635.17 4279.18 3626.08 4288.22C3616.99 4297.27 3607.9 4301.79 3598.81 4301.79C3589.73 4301.79 3576.09 4297.27 3571.55 4288.22C3567.01 4279.18 3562.46 4265.61 3562.46 4256.56V4179.67C3562.46 4170.62 3562.46 4157.05 3571.55 4152.53C3580.64 4143.48 3589.73 4138.96 3598.81 4138.96C3616.99 4138.96 3635.17 4152.53 3635.17 4175.15V4256.56Z" fill="#313131"/>
<path d="M3367.09 4143.48H3398.89V4337.97H3439.79V4102.77H3367.09V4143.48Z" fill="#313131"/>
<path d="M3844.23 3636.89H3885.12V3401.69H3812.42V3442.4H3844.23V3636.89Z" fill="#313131"/>
<path d="M3676.07 3397.16C3653.35 3397.16 3630.63 3406.2 3612.46 3424.3C3598.82 3442.39 3594.28 3460.48 3594.28 3483.1V3559.99C3594.28 3582.61 3598.82 3605.22 3617 3623.32C3635.18 3636.89 3653.35 3645.93 3676.07 3645.93C3698.79 3645.93 3721.51 3636.89 3735.14 3618.79C3748.77 3600.7 3753.32 3582.61 3753.32 3559.99V3478.57C3757.86 3433.34 3721.51 3397.16 3676.07 3397.16ZM3712.42 3478.57V3555.47C3712.42 3564.51 3712.42 3578.08 3703.34 3587.13C3689.7 3600.7 3666.98 3605.22 3648.81 3591.65C3648.81 3591.65 3648.81 3591.65 3644.26 3587.13C3639.72 3578.08 3635.18 3564.51 3635.18 3555.47V3478.57C3635.18 3469.53 3635.18 3455.96 3644.26 3451.44C3653.35 3442.39 3662.44 3437.87 3671.53 3437.87C3689.7 3437.87 3707.88 3451.44 3707.88 3474.05C3712.42 3474.05 3712.42 3478.57 3712.42 3478.57Z" fill="#313131"/>
<path d="M3521.6 3636.89V3401.69H3448.9V3442.4H3476.16V3636.89H3521.6Z" fill="#313131"/>
<path d="M3589.74 3288.6H3635.18V3053.4H3562.47V3089.58H3589.74V3288.6Z" fill="#313131"/>
<path d="M3426.19 3293.14C3448.91 3293.14 3471.63 3284.09 3485.26 3266C3498.89 3247.91 3503.43 3229.81 3503.43 3207.2V3125.78C3507.98 3085.07 3476.17 3048.89 3435.28 3044.36C3430.73 3044.36 3430.73 3044.36 3426.19 3044.36C3403.47 3044.36 3380.75 3053.41 3367.12 3071.5C3353.48 3089.59 3348.94 3107.69 3348.94 3130.3V3207.2C3344.4 3229.81 3353.48 3252.43 3371.66 3270.52C3385.29 3284.09 3403.47 3293.14 3426.19 3293.14ZM3389.84 3130.3C3389.84 3121.26 3389.84 3107.69 3398.92 3103.16C3408.01 3094.12 3417.1 3089.59 3426.19 3089.59C3444.36 3089.59 3462.54 3103.16 3462.54 3125.78V3211.72C3462.54 3220.77 3462.54 3234.34 3453.45 3243.38C3444.36 3252.43 3435.27 3256.95 3426.19 3256.95C3417.1 3256.95 3403.47 3252.43 3398.92 3243.38C3389.84 3234.34 3389.84 3220.77 3389.84 3211.72V3130.3Z" fill="#313131"/>
<path d="M3621.52 3967.08C3635.16 3948.99 3639.7 3930.9 3639.7 3908.28V3826.86C3639.7 3804.25 3635.16 3781.63 3616.98 3768.06C3603.35 3754.49 3580.63 3745.45 3557.91 3745.45C3517.01 3745.45 3480.66 3777.11 3480.66 3817.82C3480.66 3822.34 3480.66 3826.86 3480.66 3831.39V3908.28C3480.66 3930.9 3485.21 3953.51 3503.38 3971.6C3521.56 3985.17 3539.73 3994.22 3562.45 3994.22C3585.17 3994.22 3607.89 3985.17 3621.52 3967.08ZM3535.19 3939.94C3526.1 3930.9 3521.56 3917.33 3526.1 3908.28V3831.39C3526.1 3822.34 3526.1 3808.77 3535.19 3804.25C3548.82 3790.68 3571.54 3786.15 3585.17 3799.72C3594.26 3808.77 3598.8 3817.82 3598.8 3831.39V3908.28C3598.8 3917.33 3598.8 3930.9 3589.72 3939.94C3580.63 3948.99 3571.54 3953.51 3562.45 3953.51C3548.82 3948.99 3539.73 3944.47 3535.19 3939.94Z" fill="#313131"/>
<path d="M3698.8 3790.68H3726.06V3985.18H3771.5V3749.97H3698.8V3790.68Z" fill="#313131"/>
<path d="M3848.74 3831.39V3908.28C3844.2 3930.9 3853.28 3953.51 3871.46 3971.6C3885.09 3985.17 3907.81 3994.22 3930.53 3994.22C3953.25 3994.22 3975.97 3985.17 3989.6 3967.08C4003.23 3948.99 4007.78 3930.9 4007.78 3908.28V3826.86C4007.78 3804.25 4003.23 3781.63 3985.06 3768.06C3971.43 3754.49 3948.71 3745.45 3925.99 3745.45C3903.27 3745.45 3880.55 3754.49 3866.91 3772.58C3853.28 3790.68 3848.74 3808.77 3848.74 3831.39ZM3889.64 3831.39C3889.64 3822.34 3889.63 3808.77 3898.72 3804.25C3907.81 3795.2 3916.9 3790.68 3925.99 3790.68C3944.16 3790.68 3962.34 3804.25 3962.34 3826.86V3908.28C3962.34 3917.33 3962.34 3930.9 3953.25 3939.94C3944.16 3948.99 3935.07 3953.51 3925.99 3953.51C3916.9 3953.51 3903.27 3948.99 3898.72 3939.94C3889.63 3930.9 3889.64 3917.33 3889.64 3908.28V3831.39Z" fill="#313131"/>
<path d="M2894.53 2940.32C2917.25 2940.32 2939.97 2931.27 2953.6 2913.18C2967.24 2895.09 2971.78 2876.99 2971.78 2854.38V2772.96C2971.78 2750.35 2967.23 2727.73 2949.06 2714.16C2935.43 2700.59 2912.71 2691.55 2889.99 2691.55C2867.27 2691.55 2844.55 2700.59 2830.92 2718.68C2817.28 2736.78 2812.74 2754.87 2812.74 2777.49V2854.38C2808.2 2876.99 2817.28 2899.61 2835.46 2917.7C2849.09 2935.8 2871.81 2940.32 2894.53 2940.32ZM2853.64 2782.01C2853.64 2772.96 2853.64 2759.39 2862.72 2754.87C2871.81 2745.82 2880.9 2741.3 2889.99 2741.3C2908.16 2741.3 2926.34 2754.87 2926.34 2777.49V2858.9C2926.34 2867.95 2926.34 2881.52 2917.25 2890.56C2908.16 2899.61 2899.08 2904.13 2889.99 2904.13C2880.9 2904.13 2867.27 2899.61 2862.72 2890.56C2853.64 2881.52 2853.64 2867.95 2853.64 2858.9V2782.01Z" fill="#313131"/>
<path d="M3058.08 2935.8H3098.98V2700.59H3026.27V2741.3H3058.08V2935.8Z" fill="#313131"/>
<path d="M3258.04 2940.32C3280.76 2940.32 3303.48 2931.27 3317.11 2913.18C3330.74 2895.09 3335.29 2876.99 3335.29 2854.38V2772.96C3335.29 2727.73 3303.48 2691.55 3258.04 2691.55C3235.32 2691.55 3212.6 2700.59 3194.42 2718.68C3180.79 2736.78 3176.25 2754.87 3176.25 2777.49V2854.38C3176.25 2876.99 3180.79 2899.61 3198.97 2917.7C3217.14 2935.8 3235.32 2940.32 3258.04 2940.32ZM3221.69 2782.01C3221.69 2772.96 3221.69 2759.39 3230.78 2754.87C3239.86 2745.82 3248.95 2741.3 3258.04 2741.3C3276.22 2741.3 3294.39 2754.87 3294.39 2777.49V2858.9C3294.39 2867.95 3294.39 2881.52 3285.3 2890.56C3276.22 2899.61 3267.13 2904.13 3258.04 2904.13C3248.95 2904.13 3235.32 2899.61 3230.78 2890.56C3226.23 2881.52 3221.69 2867.95 3221.69 2858.9V2782.01Z" fill="#313131"/>
<path d="M2889.99 4758.64C2867.27 4758.64 2844.55 4767.68 2830.92 4785.78C2817.28 4803.87 2812.74 4821.96 2812.74 4844.58V4921.47C2808.2 4944.09 2817.28 4966.7 2835.46 4984.8C2849.09 4998.37 2871.81 5007.41 2894.53 5007.41C2917.25 5007.41 2939.97 4998.37 2953.6 4980.27C2967.24 4962.18 2971.78 4944.09 2971.78 4921.47V4840.05C2971.78 4817.44 2967.23 4794.82 2949.06 4781.25C2935.43 4767.68 2912.71 4758.64 2889.99 4758.64ZM2926.34 4840.05V4921.47C2926.34 4930.52 2926.34 4944.09 2917.25 4953.13C2903.62 4966.7 2880.9 4971.23 2862.72 4957.66C2862.72 4957.66 2862.72 4957.66 2858.18 4953.13C2853.64 4944.09 2849.09 4930.52 2849.09 4921.47V4844.58C2849.09 4835.53 2849.09 4821.96 2858.18 4817.44C2867.27 4808.39 2876.36 4803.87 2885.44 4803.87C2903.62 4803.87 2921.8 4817.44 2921.8 4840.05C2926.34 4835.53 2926.34 4840.05 2926.34 4840.05Z" fill="#313131"/>
<path d="M3026.27 4803.86H3058.08V4998.36H3098.98V4763.16H3026.27V4803.86Z" fill="#313131"/>
<path d="M3267.13 4758.64C3262.59 4758.64 3262.59 4758.64 3258.05 4758.64C3217.15 4758.64 3180.8 4790.3 3180.8 4831.01C3180.8 4835.53 3180.8 4840.05 3180.8 4844.58V4921.47C3180.8 4944.09 3185.34 4966.7 3203.52 4984.8C3221.69 4998.37 3239.87 5007.41 3262.59 5007.41C3285.31 5007.41 3308.03 4998.37 3321.66 4980.27C3335.29 4962.18 3339.84 4944.09 3339.84 4921.47V4840.05C3339.84 4799.35 3308.03 4763.16 3267.13 4758.64ZM3294.4 4840.05V4921.47C3294.4 4930.52 3294.4 4944.09 3285.31 4953.13C3271.68 4966.7 3248.96 4971.23 3230.78 4957.66C3230.78 4957.66 3230.78 4957.66 3226.24 4953.13C3221.69 4944.09 3217.15 4930.52 3217.15 4921.47V4844.58C3217.15 4835.53 3217.15 4821.96 3226.24 4817.44C3235.33 4808.39 3244.41 4803.87 3253.5 4803.87C3271.68 4803.87 3289.85 4817.44 3289.85 4840.05C3294.4 4835.53 3294.4 4840.05 3294.4 4840.05Z" fill="#313131"/>
<path d="M2900.08 3688.76C2904.51 3688.76 2908.72 3689.26 2912.7 3690.25C2916.77 3691.15 2920.35 3692.64 2923.42 3694.71C2926.5 3696.78 2928.94 3699.48 2930.75 3702.81C2932.65 3706.14 2933.6 3710.24 2933.6 3715.1C2933.6 3719.61 2932.42 3723.52 2930.07 3726.86C2927.81 3730.19 2924.87 3732.8 2921.25 3734.69C2925.41 3736.4 2928.62 3739.01 2930.89 3742.53C2933.24 3745.95 2934.41 3749.87 2934.41 3754.28C2934.41 3759.59 2933.42 3764.09 2931.43 3767.79C2929.53 3771.48 2926.95 3774.5 2923.69 3776.84C2920.44 3779.18 2916.68 3780.89 2912.43 3781.97C2908.18 3783.05 2903.75 3783.59 2899.13 3783.59C2895.87 3783.59 2892.62 3783.37 2889.36 3782.92C2886.1 3782.56 2882.98 3782.02 2880 3781.3C2877.01 3780.49 2874.21 3779.49 2871.58 3778.32C2869.05 3777.06 2866.83 3775.62 2864.93 3774L2876.06 3758.06C2877.42 3759.14 2879 3760.09 2880.81 3760.9C2882.62 3761.71 2884.47 3762.38 2886.37 3762.92C2888.37 3763.46 2890.26 3763.87 2892.07 3764.14C2893.97 3764.41 2895.65 3764.55 2897.1 3764.55C2902.43 3764.55 2906.37 3763.55 2908.9 3761.57C2911.53 3759.5 2912.84 3756.89 2912.84 3753.74C2912.84 3750.14 2911.57 3747.52 2909.04 3745.9C2906.5 3744.19 2903.02 3743.34 2898.59 3743.34H2885.29V3726.59H2898.05C2902.12 3726.59 2905.37 3725.69 2907.82 3723.88C2910.26 3722.08 2911.48 3719.61 2911.48 3716.46C2911.48 3714.65 2911.03 3713.17 2910.12 3712C2909.31 3710.83 2908.22 3709.88 2906.87 3709.16C2905.6 3708.44 2904.11 3707.94 2902.39 3707.67C2900.76 3707.31 2899.13 3707.13 2897.5 3707.13C2894.61 3707.13 2891.4 3707.63 2887.87 3708.62C2884.43 3709.61 2881.35 3711.28 2878.64 3713.62L2868.33 3698.35C2872.4 3695.2 2877.24 3692.82 2882.85 3691.19C2888.46 3689.57 2894.2 3688.76 2900.08 3688.76Z" fill="#313131"/>
<path d="M2999.88 3764.28H2969.75L2964.19 3782.65H2940.98L2973.96 3689.57H2996.22L3028.65 3782.65H3005.58L2999.88 3764.28ZM2975.18 3746.71H2994.45L2992.55 3740.36L2985.09 3714.7H2984.55L2977.08 3740.36L2975.18 3746.71Z" fill="#313131"/>
<path d="M3038.04 3782.65V3689.57H3059.62V3725.78H3066.54C3070.52 3725.78 3073.64 3725.06 3075.9 3723.61C3078.25 3722.08 3080.15 3719.11 3081.6 3714.7L3089.61 3689.57H3112L3103.58 3716.73C3102.14 3721.32 3100.28 3725.15 3098.02 3728.21C3095.76 3731.27 3093.18 3733.3 3090.29 3734.29C3094.18 3735.55 3097.21 3737.8 3099.38 3741.04C3101.55 3744.19 3103.31 3748.06 3104.67 3752.66L3113.63 3782.65H3089.88L3082.41 3755.9C3081.15 3751.31 3079.29 3748.34 3076.85 3746.98C3074.41 3745.54 3071.2 3744.82 3067.22 3744.82H3059.62V3782.65H3038.04Z" fill="#313131"/>
<path d="M3197.71 3753.2C3197.71 3758.33 3196.72 3762.79 3194.73 3766.57C3192.74 3770.35 3190.07 3773.51 3186.72 3776.03C3183.37 3778.55 3179.48 3780.44 3175.05 3781.7C3170.61 3782.96 3165.96 3783.59 3161.07 3783.59C3156.18 3783.59 3151.53 3782.96 3147.09 3781.7C3142.75 3780.44 3138.86 3778.55 3135.42 3776.03C3132.07 3773.51 3129.41 3770.35 3127.42 3766.57C3125.42 3762.79 3124.43 3758.33 3124.43 3753.2V3718.21C3124.43 3713.08 3125.52 3708.67 3127.69 3704.97C3129.86 3701.28 3132.66 3698.22 3136.1 3695.79C3139.63 3693.36 3143.56 3691.55 3147.91 3690.38C3152.25 3689.21 3156.64 3688.63 3161.07 3688.63C3165.5 3688.63 3169.89 3689.26 3174.23 3690.52C3178.67 3691.78 3182.6 3693.67 3186.04 3696.19C3189.57 3698.62 3192.37 3701.73 3194.45 3705.51C3196.63 3709.3 3197.71 3713.75 3197.71 3718.89V3753.2ZM3176 3722.94C3176 3720.24 3175.55 3717.99 3174.64 3716.19C3173.74 3714.29 3172.56 3712.81 3171.11 3711.73C3169.76 3710.56 3168.17 3709.7 3166.36 3709.16C3164.55 3708.62 3162.79 3708.35 3161.07 3708.35C3159.26 3708.35 3157.45 3708.62 3155.64 3709.16C3153.92 3709.7 3152.34 3710.56 3150.89 3711.73C3149.44 3712.81 3148.27 3714.29 3147.36 3716.19C3146.46 3717.99 3146.01 3720.24 3146.01 3722.94V3749.28C3146.01 3751.98 3146.46 3754.28 3147.36 3756.17C3148.27 3757.97 3149.44 3759.46 3150.89 3760.63C3152.34 3761.71 3153.92 3762.52 3155.64 3763.06C3157.45 3763.6 3159.26 3763.87 3161.07 3763.87C3162.79 3763.87 3164.55 3763.6 3166.36 3763.06C3168.17 3762.52 3169.76 3761.71 3171.11 3760.63C3172.56 3759.46 3173.74 3757.97 3174.64 3756.17C3175.55 3754.28 3176 3751.98 3176 3749.28V3722.94Z" fill="#313131"/>
<path d="M3264.8 3782.65V3744.96H3234.95V3782.65H3213.37V3689.57H3234.95V3725.64H3264.8V3689.57H3286.65V3782.65H3264.8Z" fill="#313131"/>
<path d="M901.934 4317.8L736.168 4332.97L751.342 4498.73L917.108 4483.56L901.934 4317.8Z" fill="#313131"/>
</svg>
